<svg xmlns="http://www.w3.org/2000/svg" viewBox="0 0 1920 478.41">
	<path class="fn_svgcolor1" d="M1920-.28V477.21H0V-1.21C89.21,81.6,208.7,152.21,340,152.21a506.62,506.62,0,0,0,51.36-2.61c81.73-8.34,164,27.67,236.28,66.76C726.51,269.84,839.71,350.21,960,350.21c120.13,0,233.19-80.29,332-133.64,72.65-39.24,155.31-75.41,237.45-67a505.32,505.32,0,0,0,51.58,2.63C1711.82,152.21,1830.9,82,1920-.28Z" transform="translate(0 1.21)"/>
	<path class="fn_svgcolor2" d="M1920,39.72V477.21H0V38.79C89.21,121.6,208.7,182.21,340,182.21a506.62,506.62,0,0,0,51.36-2.61c81.73-8.34,164,17.67,236.28,56.76C726.51,289.84,839.71,360.21,960,360.21c120.13,0,233.19-70.29,332-123.64,72.65-39.24,155.31-65.41,237.45-57a505.32,505.32,0,0,0,51.58,2.63C1711.82,182.21,1830.9,122,1920,39.72Z" transform="translate(0 1.21)"/>
	<path class="fn_svgcolor3" d="M1920,79.72V477.21H0V78.79A498.11,498.11,0,0,0,340,212.21a506.62,506.62,0,0,0,51.36-2.61,408.9,408.9,0,0,1,236.28,46.76C726.51,309.84,839.71,370.21,960,370.21c120.13,0,233.19-60.29,332-113.64a411,411,0,0,1,237.45-47,505.32,505.32,0,0,0,51.58,2.63A498.12,498.12,0,0,0,1920,79.72Z" transform="translate(0 1.21)"/>
</svg>