<svg xmlns="http://www.w3.org/2000/svg" viewBox="0 0 1920 489">
	<path class="fn_svgcolor1" d="M1920,0V489H0V0S14,95,63,115s82,20,119,52,66,129,145,154,164,8,232-7S705,427,960,427s333-128,401-113,153,32,232,7,108-122,145-154,70-32,119-52S1920,0,1920,0Z"/>
	<path class="fn_svgcolor2" d="M1920,60V489H0V60s14,55,63,75,82,30,119,62,66,119,145,144,164-2,232-17S705,427,960,427s333-118,401-103,153,42,232,17,108-112,145-144,70-42,119-62S1920,60,1920,60Z"/>
	<path class="fn_svgcolor3" d="M1920,110V489H0V110s14,35,63,55,82,30,119,62,66,109,145,134,164-2,232-17,146,83,401,83,333-98,401-83,153,42,232,17,108-102,145-134,70-42,119-62S1920,110,1920,110Z"/>
</svg>