<svg xmlns="http://www.w3.org/2000/svg" viewBox="0 0 1920 309">
	<path class="fn_svgcolor1" d="M1920,6V309H0V8A301,301,0,0,1,60,2c68.67,0,131.94,43.07,182.51,81.89A298.9,298.9,0,0,1,360,60c62.66,0,120.83,39.21,168.94,72.07a300.31,300.31,0,0,1,306.82,26.79C873.62,141.61,915.69,172,960,172c43.66,0,85.13-30.67,122.55-13.9a300.33,300.33,0,0,1,301.69-31.24C1433.63,91.09,1494.35,60,1560,60c44.31,0,86.38-.39,124.24,16.86C1733.63,41.09,1794.35,0,1860,0A301,301,0,0,1,1920,6Z"/>
	<path class="fn_svgcolor2" d="M1920,46V309H0V48a301,301,0,0,1,60-6c68.67,0,131.94,33.07,182.51,71.89A298.9,298.9,0,0,1,360,90c62.66,0,120.83,29.21,168.94,62.07a300.31,300.31,0,0,1,306.82,26.79C873.62,161.61,915.69,172,960,172c43.66,0,85.13-10.67,122.55,6.1a300.33,300.33,0,0,1,301.69-31.24C1433.63,111.09,1494.35,80,1560,80a298.88,298.88,0,0,1,124.24,26.86C1733.63,71.09,1794.35,40,1860,40A301,301,0,0,1,1920,46Z"/>
	<path class="fn_svgcolor3" d="M1920,86V309H0V88a301,301,0,0,1,60-6,298.67,298.67,0,0,1,182.51,61.89,300.4,300.4,0,0,1,286.43,28.18,300.31,300.31,0,0,1,306.82,26.79,300.76,300.76,0,0,1,246.79-.76,300.33,300.33,0,0,1,301.69-31.24,300.35,300.35,0,0,1,300-30A300.65,300.65,0,0,1,1920,86Z"/>
</svg>