<svg xmlns="http://www.w3.org/2000/svg" viewBox="0 0 1920 336.5">
	<path class="fn_svgcolor1" d="M1920-1.75v3a349.27,349.27,0,0,1-271,128.5,348.5,348.5,0,0,1-220.28-78,198.74,198.74,0,0,0-250.45-.09A348.51,348.51,0,0,1,958.5,129.25,348.51,348.51,0,0,1,738.73,51.66a198.74,198.74,0,0,0-250.45.09,348.5,348.5,0,0,1-220.28,78A349.22,349.22,0,0,1,0,4.87v-3A349.22,349.22,0,0,0,268,126.75a348.5,348.5,0,0,0,220.28-78,198.74,198.74,0,0,1,250.45-.09A348.51,348.51,0,0,0,958.5,126.25a348.51,348.51,0,0,0,219.77-77.59,198.74,198.74,0,0,1,250.45.09,348.5,348.5,0,0,0,220.28,78A349.27,349.27,0,0,0,1920-1.75Z" transform="translate(0 1.75)"/>
	<path class="fn_svgcolor2" d="M1920,11.25v7a349.27,349.27,0,0,1-271,128.5,348.5,348.5,0,0,1-220.28-78,198.74,198.74,0,0,0-250.45-.09A348.51,348.51,0,0,1,958.5,146.25,348.51,348.51,0,0,1,738.73,68.66a198.74,198.74,0,0,0-250.45.09,348.5,348.5,0,0,1-220.28,78A349.22,349.22,0,0,1,0,21.87v-7A349.22,349.22,0,0,0,268,139.75a348.5,348.5,0,0,0,220.28-78,198.74,198.74,0,0,1,250.45-.09A348.51,348.51,0,0,0,958.5,139.25a348.51,348.51,0,0,0,219.77-77.59,198.74,198.74,0,0,1,250.45.09,348.5,348.5,0,0,0,220.28,78A349.27,349.27,0,0,0,1920,11.25Z" transform="translate(0 1.75)"/>
	<path class="fn_svgcolor3" d="M1920,28.25v306.5H0V31.87A349.22,349.22,0,0,0,268,156.75a348.5,348.5,0,0,0,220.28-78,198.74,198.74,0,0,1,250.45-.09A348.51,348.51,0,0,0,958.5,156.25a348.51,348.51,0,0,0,219.77-77.59,198.74,198.74,0,0,1,250.45.09,348.5,348.5,0,0,0,220.28,78A349.27,349.27,0,0,0,1920,28.25Z" transform="translate(0 1.75)"/>
</svg>