<svg xmlns="http://www.w3.org/2000/svg" viewBox="0 0 1920 222.01">
	<path class="fn_svgcolor3" d="M1920,194.91v27H0v-27c2,1.5,122-111.88,325-94,158,13.91,379.56,132.35,635,64,255.44,68.35,477-50.09,635-64C1798,83,1918.05,196.41,1920,194.91Z" transform="translate(0 0.1)"/>
	<path class="fn_svgcolor2" d="M0,194.9c6.62-11.1,159.25-151.38,353-163s292.72,34.23,398.68,71.71C874.6,147.09,881,143.79,960,164.9c-255.44,68.35-477-50.09-635-64C122,83,2,196.4,0,194.9Z" transform="translate(0 0.1)"/>
	<path class="fn_svgcolor1" d="M1920,194.9c-6.62-11.1-159.25-151.38-353-163s-292.72,34.23-398.68,71.71C1045.4,147.09,1039,143.79,960,164.9c255.44,68.35,477-50.09,635-64C1798,83,1918.05,196.4,1920,194.9Z" transform="translate(0 0.1)"/>
<!--	<path class="fn_svgcolor4" d="M1920-.1v195c-6.62-11.1-159.25-151.38-353-163s-292.72,34.23-398.68,71.71C1045.4,147.1,1039,143.8,960,164.9c-79-21.1-85.4-17.8-208.32-61.29C645.72,66.13,546.87,20.27,353,31.9S6.62,183.8,0,194.9V-.1Z" transform="translate(0 0.1)"/>-->
</svg>