<svg xmlns="http://www.w3.org/2000/svg" viewBox="0 0 1920 216">
	<path class="fn_svgcolor1" d="M1920,0V216H0V2C58.37,2,172.84,28.67,218.92,57.51A60.37,60.37,0,0,0,269.22,64,300.84,300.84,0,0,1,504.31,86.93,61.06,61.06,0,0,0,555,90.88a300.66,300.66,0,0,1,257.08,22.5,60,60,0,0,0,50,5A301.37,301.37,0,0,1,1056,117.7a60,60,0,0,0,50-5.23,300.67,300.67,0,0,1,251.83-26.13,60,60,0,0,0,50-5,300.69,300.69,0,0,1,250-25,60,60,0,0,0,50-5C1752.48,25.09,1864.48,0,1920,0Z"/>
	<path class="fn_svgcolor2" d="M1920,20V216H0V22c58.37,0,172.84,26.67,218.92,55.51A60.37,60.37,0,0,0,269.22,84a300.84,300.84,0,0,1,235.09,22.94A61.06,61.06,0,0,0,555,110.88a300.66,300.66,0,0,1,257.08,22.5,60,60,0,0,0,50,5A301.37,301.37,0,0,1,1056,137.7a60,60,0,0,0,50-5.23,300.67,300.67,0,0,1,251.83-26.13,60,60,0,0,0,50-5,300.69,300.69,0,0,1,250-25,60,60,0,0,0,50-5C1752.48,45.09,1864.48,20,1920,20Z"/>
	<path class="fn_svgcolor3" d="M1920,40V216H0V42c58.37,0,172.84,26.67,218.92,55.51a60.37,60.37,0,0,0,50.3,6.48,300.84,300.84,0,0,1,235.09,22.94A61.06,61.06,0,0,0,555,130.88a300.66,300.66,0,0,1,257.08,22.5,60,60,0,0,0,50,5A301.37,301.37,0,0,1,1056,157.7a60,60,0,0,0,50-5.23,300.67,300.67,0,0,1,251.83-26.13,60,60,0,0,0,50-5,300.69,300.69,0,0,1,250-25,60,60,0,0,0,50-5C1752.48,65.09,1864.48,40,1920,40Z"/>
</svg>