<svg xmlns="http://www.w3.org/2000/svg" viewBox="0 0 1920 325">
	<path class="fn_svgcolor1" d="M1920,47.8V325H0V101A353.77,353.77,0,0,1,46.08,60.4C74,39.77,111.26,19,148,19c32,0,63.61,15.76,93,33.45C278.63,75.13,312.6,101,339,101c25.08,0,66.09-28.75,109.38-55.57C486.23,22,525.81,0,558,0c38,0,101.3,42.65,163.78,81,51.13,31.41,101.67,60,137.22,60,39.89,0,67-32.64,93.53-64.95,26-31.68,51.33-63,87.47-63,37.29,0,71.19,30.27,104.09,59.88C1175.6,101.24,1206.2,129,1238,129c32.38,0,80.65-31.27,129-62.66C1415.65,34.73,1464.38,3,1497,3c30.25,0,75.45,26,120.17,53.78C1668.54,88.71,1719.27,123,1746,123s52-22.52,78.81-43.35C1847.9,61.7,1872.24,45,1900,45,1905,45,1912,46,1920,47.8Z"/>
	<path class="fn_svgcolor2" d="M1920,216.73V325H0V36.73c16.44,5.93,31.7,14.6,46.08,23.67C76.81,79.8,103.5,101,129,101c24.55,0,67.1-24.83,112-48.55C282,30.77,325,10,358,10c24.7,0,56.33,15.51,90.38,35.43C509.44,81.13,578.28,131,629,131c33.68,0,63.73-23.27,92.78-50C760.86,45.12,798.12,3,840,3c42.88,0,77.82,40,112.53,73.05,24.38,23.2,48.65,43,75.47,43,31.65,0,73.74-22.76,116.09-46.12C1188.72,48.27,1233.65,23,1267,23c29.61,0,65.23,20.75,100,43.34,41.53,27,81.8,56.66,109,56.66,34.16,0,84.2-40.15,141.17-66.22C1643.58,44.7,1671.49,35.63,1700,35c61.32-1.36,100.47,22,124.81,44.65a199.72,199.72,0,0,1,25.19,28.8Z"/>
	<path class="fn_svgcolor3" d="M1920,108.45V325H0V131S75,49,148,49,272,171,319,171,449,80,518,80,630,201,709,201,887,53,960,53s193,146,258,146S1412,93,1477,93s139,100,189,100S1770,65,1830,65C1852.21,65,1902.23,84.18,1920,108.45Z"/>
</svg>