<svg xmlns="http://www.w3.org/2000/svg" viewBox="0 0 1920 235.21">
	<path class="fn_svgcolor1" d="M1657,96.21c-153,0-251-111-385-88s-418,143-608,153-405-151-504-160-160,35-160,35v199H1920v-186S1810,96.21,1657,96.21ZM159.15,42.06c-31.53-4.91-65.72-5.78-88.57-1.66,16.08-9.09,52.06-15.27,85-10.37s86.51,28.63,99.13,42.37C234.12,61.32,191.13,47,159.15,42.06ZM1279,43.29c-8.12.65-48.29,5.42-99.24,20,18.78-9.52,70.86-32.82,106.68-34.48s64.89,1.64,96,13.87C1335.1,37.92,1287.12,42.64,1279,43.29Z"/>
	<path class="fn_svgcolor2" d="M843,105.13c-38,26.08-124.49,39.08-195,39.08-71.22,0-137-16-198.82-49.8,42.14,17.26,137.46,37.8,199.32,37.8C709.5,132.21,801.1,122,843,105.13Z"/>
	<path class="fn_svgcolor3" d="M1832,49.13c-43,22.08-92,35.08-161,33.08s-141-15-177.82-35.8C1540,59.21,1638,70.45,1674,71.21,1721,72.21,1782,65.21,1832,49.13Z"/>
</svg>