<?xml version="1.0" encoding="iso-8859-1"?>
<!-- Generator: Adobe Illustrator 16.0.0, SVG Export Plug-In . SVG Version: 6.00 Build 0)  -->
<!DOCTYPE svg PUBLIC "-//W3C//DTD SVG 1.1//EN" "http://www.w3.org/Graphics/SVG/1.1/DTD/svg11.dtd">
<svg version="1.1" id="Capa_1" xmlns="http://www.w3.org/2000/svg" xmlns:xlink="http://www.w3.org/1999/xlink" x="0px" y="0px"
	 width="585.918px" height="585.918px" viewBox="0 0 585.918 585.918" style="enable-background:new 0 0 585.918 585.918;"
	 xml:space="preserve">
<g>
	<path d="M195.365,245.863c-4.935,0.092-8.273,0.631-10.003,1.158V279.3c2.048,0.488,4.591,0.646,8.084,0.635
		c12.987-0.013,21.092-6.779,21.092-18.121C214.538,251.617,207.577,245.653,195.365,245.863z"/>
	<path d="M357.396,535.325c0.776,0.052,1.542,0.114,2.329,0.114h177.39c20.75,0,37.627-16.883,37.627-37.627V86.597
		c0-20.743-16.877-37.628-37.627-37.628h-177.39c-0.781,0-1.553,0.07-2.329,0.118V0L11.176,46.206v492.311l346.22,47.401V535.325z
		 M359.726,70.476h177.39c8.893,0,16.125,7.236,16.125,16.126v411.22c0,8.888-7.232,16.127-16.125,16.127h-177.39
		c-0.792,0-1.563-0.121-2.329-0.243V307.625c11.039,35.896,44.493,62.07,83.979,62.07c7.477,0,14.688-1.035,21.617-2.799
		c4.032-5.506,10.684-9.605,18.667-11.333c2.719-0.587,5.25-0.924,8.242-0.883l0.011-10.011
		c-13.449,10.421-30.258,16.683-48.537,16.683c-43.843,0-79.496-35.658-79.496-79.488c0-43.833,35.653-79.497,79.496-79.497
		c43.686,0,79.225,35.433,79.466,79.061c2.205,1.554,4.924,3.371,8.116,5.417c0.095-1.661,0.252-3.3,0.252-4.981
		c0-48.439-39.401-87.852-87.834-87.852c-39.485,0-72.939,26.179-83.979,62.069V70.711
		C358.162,70.594,358.929,70.476,359.726,70.476z M121.34,335.91l-1.488-40.6c-0.441-12.743-0.892-28.142-0.892-43.549l-0.452,0.011
		c-3.107,13.546-7.247,28.609-11.058,40.961l-11.982,40.813l-17.125-0.431l-10.234-40.252c-3.086-12.107-6.333-26.772-8.57-40.189
		h-0.293c-0.549,13.9-0.969,29.765-1.672,42.573l-1.671,38.992l-19.486-0.493l5.9-101.837l28.344-0.736l9.375,34.446
		c3.026,12.019,6.037,24.998,8.187,37.245l0.431,0.005c2.753-12.073,6.079-25.887,9.272-37.562l10.531-35.119l29.672-0.774
		l5.617,107.067L121.34,335.91z M229.111,287.492c-8.536,8.071-21.04,11.599-35.5,11.499c-3.181-0.021-6.047-0.2-8.25-0.551v39.097
		l-23.629-0.598V230.254c7.293-1.467,17.624-2.714,32.359-3.097c15.11-0.397,26.005,2.286,33.375,8.047
		c7.105,5.488,11.917,14.714,11.917,25.696C239.384,271.883,235.735,281.192,229.111,287.492z M283.87,341.925
		c-14.455-0.382-26.52-4.394-32.934-8.567l5.23-18.991c4.57,2.415,15.137,6.96,25.807,7.149c13.745,0.23,20.767-6.147,20.767-14.54
		c0-10.962-11.213-15.959-22.835-16.001l-10.643-0.037v-18.383l10.132-0.05c8.832-0.21,20.191-3.515,20.191-12.922
		c0-6.661-5.607-11.536-16.735-11.355c-9.143,0.143-18.707,4.163-23.287,6.914l-5.252-18.363c6.607-4.335,19.906-8.704,34.426-9.068
		c24.449-0.601,38.234,11.683,38.234,27.082c0,11.94-7.004,21.312-21.229,26.149v0.347c13.869,2.402,25.192,12.624,25.192,27.361
		C330.929,328.592,312.838,342.686,283.87,341.925z"/>
	<path d="M503.057,275.248c-5.502,0.563-6.068,4.23-6.068,4.23v83.183c-4.137-1.26-9.05-1.491-14.111-0.39
		c-11.19,2.426-18.509,10.53-16.366,18.064c1.249,6.954,12.975,11.637,24.157,9.154c9.826-2.138,16.672-8.646,16.724-15.312h0.021
		l0.252-77.13c0,0,19.634-2.787,38.847,23.607c0,0,0.052-13.623-14.73-23.598C502.951,279.418,503.057,275.248,503.057,275.248z"/>
	<path d="M441.375,264.169c-9.753,0-17.689,7.929-17.689,17.685c0,9.75,7.937,17.689,17.689,17.689
		c9.754,0,17.681-7.938,17.681-17.689C459.056,272.098,451.129,264.169,441.375,264.169z"/>
	<path d="M441.375,248.014c-18.656,0-33.837,15.181-33.837,33.84c0,18.653,15.181,33.834,33.837,33.834
		c18.646,0,33.828-15.182,33.828-33.834C475.203,263.194,460.021,248.014,441.375,248.014z M441.375,307.331
		c-14.047,0-25.491-11.432-25.491-25.477c0-14.053,11.444-25.486,25.491-25.486c14.058,0,25.481,11.433,25.481,25.486
		C466.856,295.899,455.433,307.331,441.375,307.331z"/>
	<path d="M515.444,310.476l-0.062,18.493c3.774-5.932,6.872-12.325,9.16-19.106c-2.798-1.711-5.35-2.846-7.564-3.57
		C516.517,307.721,515.97,309.1,515.444,310.476z"/>
</g>
<g>
</g>
<g>
</g>
<g>
</g>
<g>
</g>
<g>
</g>
<g>
</g>
<g>
</g>
<g>
</g>
<g>
</g>
<g>
</g>
<g>
</g>
<g>
</g>
<g>
</g>
<g>
</g>
<g>
</g>
</svg>
