<?xml version="1.0" encoding="iso-8859-1"?>
<!-- Generator: Adobe Illustrator 16.0.0, SVG Export Plug-In . SVG Version: 6.00 Build 0)  -->
<!DOCTYPE svg PUBLIC "-//W3C//DTD SVG 1.1//EN" "http://www.w3.org/Graphics/SVG/1.1/DTD/svg11.dtd">
<svg version="1.1" id="Capa_1" xmlns="http://www.w3.org/2000/svg" xmlns:xlink="http://www.w3.org/1999/xlink" x="0px" y="0px"
	 width="585.918px" height="585.918px" viewBox="0 0 585.918 585.918" style="enable-background:new 0 0 585.918 585.918;"
	 xml:space="preserve">
<g>
	<path d="M357.396,535.33c0.776,0.042,1.542,0.109,2.329,0.109h177.39c20.75,0,37.627-16.883,37.627-37.627V86.597
		c0-20.743-16.877-37.628-37.627-37.628h-177.39c-0.781,0-1.553,0.077-2.329,0.113V0L11.176,46.206v492.311l346.22,47.401V535.33z
		 M359.726,70.476h177.39c8.893,0,16.125,7.236,16.125,16.126v411.22c0,8.888-7.232,16.127-16.125,16.127h-177.39
		c-0.792,0-1.563-0.127-2.329-0.243V319.212c9.92,37.738,44.168,65.606,85.018,65.606c48.611,0,88.013-39.401,88.013-88.007h-88.013
		v-88.017c-40.854,0-75.103,27.872-85.018,65.612V70.711C358.162,70.599,358.929,70.476,359.726,70.476z M116.427,297.106
		c-8.17,8.126-20.147,11.705-33.982,11.596c-3.055-0.026-5.795-0.21-7.918-0.551v39.438l-22.657-0.571V239.328
		c7.003-1.467,16.906-2.708,31.021-3.081c14.475-0.381,24.903,2.338,31.956,8.166c6.806,5.532,11.401,14.833,11.401,25.888
		C126.253,281.363,122.76,290.754,116.427,297.106z M212.05,297.273c-8.89,8.489-21.942,12.211-36.998,12.1
		c-3.318-0.021-6.302-0.214-8.601-0.572v41.136l-24.651-0.631V237.053c7.622-1.542,18.384-2.838,33.741-3.245
		c15.75-0.409,27.108,2.402,34.796,8.475c7.401,5.774,12.422,15.483,12.422,27.021C222.759,280.848,218.938,290.659,212.05,297.273z
		 M324.891,254.173l-34.302,0.56v98.364l-27.779-0.709v-97.209l-32.043,0.527V233.22l94.124-2.441V254.173z"/>
	<path d="M84.122,255.121c-4.738,0.086-7.93,0.63-9.596,1.155v32.57c1.963,0.488,4.396,0.65,7.756,0.64
		c12.438-0.023,20.191-6.833,20.191-18.266C102.474,260.938,95.817,254.916,84.122,255.121z"/>
	<path d="M176.879,253.491c-5.145,0.087-8.622,0.662-10.422,1.205v33.966c2.139,0.512,4.779,0.672,8.428,0.672
		c13.546-0.022,21.984-7.126,21.984-19.066C196.869,259.539,189.604,253.266,176.879,253.491z"/>
	<path d="M454.362,282.922v0.026h88.018c0-24.753-10.269-47.092-26.725-63.08L454.362,282.922z"/>
	<path d="M453.428,267.457l62.228-62.231c-17.501-17.512-39.339-26.047-62.29-25.72l0.042,87.93L453.428,267.457z"/>
</g>
<g>
</g>
<g>
</g>
<g>
</g>
<g>
</g>
<g>
</g>
<g>
</g>
<g>
</g>
<g>
</g>
<g>
</g>
<g>
</g>
<g>
</g>
<g>
</g>
<g>
</g>
<g>
</g>
<g>
</g>
</svg>
