<svg height="512" viewBox="0 0 56 57" width="512" xmlns="http://www.w3.org/2000/svg">
	<g id="Page-1" fill="none" fill-rule="evenodd">
		<g id="056---Listen-To-Podcast" fill="rgb(0,0,0)" fill-rule="nonzero">
			<path class="fn_path_1" d="m2 42h-1c-.55228475 0-1-.4477153-1-1v-12c0-.5522847.44771525-1 1-1h1zm8-16v18c0 .5522847-.44771525 1-1 1h-5v-20h5c.55228475 0 1 .4477153 1 1zm18-23c-11.1990817.01396033-20.41671868 8.8136138-20.95 20h-2.05c0-12.7025492 10.2974508-23 23-23s23 10.2974508 23 23h-2c-.5342036-11.2057007-9.7815804-20.01272618-21-20zm24 24v18h-5c-.5522847 0-1-.4477153-1-1v-18c0-.5522847.4477153-1 1-1h5zm4 14c0 .5522847-.4477153 1-1 1h-1v-14h1c.5522847 0 1 .4477153 1 1z"/>
			<path class="fn_path_2" d="m41.05 16.13c.2336522.0004565.4600879-.0809188.64-.23.2045071-.1695482.3331478-.4135008.3575369-.6780285s-.057478-.5278889-.2275369-.7319715c-3.419936-4.0981495-8.4823234-6.46710791-13.82-6.46710791s-10.400064 2.36895841-13.82 6.46710791c-.3534622.4252593-.2952593 1.0565378.13 1.41s1.0565378.2952593 1.41-.13c3.0399666-3.6396197 7.5378245-5.7432169 12.28-5.7432169s9.2400334 2.1035972 12.28 5.7432169c.1903565.2285401.4725678.360483.77.36z"/>
			<path class="fn_path_3" d="m38.9 18.86c.4353218-.3374567.5158001-.963399.18-1.4-2.6510014-3.4323733-6.7430662-5.4423368-11.08-5.4423368s-8.4289986 2.0099635-11.08 5.4423368c-.2965127.4372993-.2016771 1.0298079.2165123 1.3527136.4181894.3229058 1.0154171.2647752 1.3634877-.1327136 2.272144-2.9442198 5.7809855-4.6685609 9.5-4.6685609s7.227856 1.7243411 9.5 4.6685609c.1887926.245247.4805034.3892561.79.39.2209494-.0006878.4354502-.0745323.61-.21z"/>
			<path class="fn_path_4" d="m20 36h5c.5522847 0 1-.4477153 1-1s-.4477153-1-1-1h-5v-2h5c.5522847 0 1-.4477153 1-1s-.4477153-1-1-1h-5v-2h5c.5522847 0 1-.4477153 1-1s-.4477153-1-1-1h-5c0-4.418278 3.581722-8 8-8s8 3.581722 8 8h-5c-.5522847 0-1 .4477153-1 1s.4477153 1 1 1h5v2h-5c-.5522847 0-1 .4477153-1 1s.4477153 1 1 1h5v2h-5c-.5522847 0-1 .4477153-1 1s.4477153 1 1 1h5v2h-16zm15 19c.5522847 0 1 .4477153 1 1v1h-16v-1c0-.5522847.4477153-1 1-1zm-8-2v-3h1 1v3zm1-5c-4.418278 0-8-3.581722-8-8h16c0 4.418278-3.581722 8-8 8z"/>
		</g>
	</g>
</svg>