<?xml version="1.0" encoding="iso-8859-1"?>
<!-- Generator: Adobe Illustrator 19.0.0, SVG Export Plug-In . SVG Version: 6.00 Build 0)  -->
<svg version="1.1" id="Capa_1" xmlns="http://www.w3.org/2000/svg" xmlns:xlink="http://www.w3.org/1999/xlink" x="0px" y="0px"
	 viewBox="0 0 512 512" style="enable-background:new 0 0 512 512;" xml:space="preserve">
<g>
	<g>
		<path d="M497,55.623c-56.5,0-102.97-25.638-156.483-18.271c-29.785,4.1-56.925,17.732-84.517,42.59
			c-27.592-24.858-54.732-38.49-84.517-42.59C117.975,29.987,71.492,55.623,15,55.623c-8.284,0-15,6.716-15,15
			c0,6.316,0,340.479,0,360c0,8.284,6.716,15,15,15c35.99,0,66.977-6.893,91.453-12.244c49.386-10.872,62.658-13.793,97.242,20.978
			c28.683,28.837,75.971,28.823,104.64-0.01c34.562-34.76,47.833-31.837,97.213-20.967l0.113,0.025
			c23.314,5.157,55.244,12.219,91.339,12.219c8.284,0,15-6.716,15-15c0-11.517,0-352.316,0-360
			C512,62.339,505.284,55.623,497,55.623z M30,85.126c83.644-5.476,134.602-51.044,211,21.82v260.557
			c-22.532-17.053-45.138-26.795-69.517-30.151C122.761,330.646,80.017,351.265,30,355.043V85.126z M482,415.178
			c-58.596-3.414-99.014-23.675-134.726-18.113c-20.145,3.138-38.152,13.943-60.212,36.129
			c-16.909,17.005-45.127,17.068-62.096,0.007c-22.071-22.189-40.083-32.996-60.23-36.135
			C128.963,391.492,88.887,411.747,30,415.178V385.12c85.382-5.59,136.498-52.786,215.393,26.109c5.913,5.913,15.443,5.771,21.214,0
			C345.502,332.335,396.621,379.53,482,385.12V415.178z M482,355.043c-50.014-3.778-92.76-24.397-141.483-17.691
			c-24.378,3.356-46.984,13.097-69.517,30.151V106.946c76.398-72.863,127.357-27.295,211-21.82V355.043z"/>
	</g>
</g>
<g>
	<g>
		<path d="M205.121,145.477c-17.538-13.434-34.062-19.425-53.58-19.425c-15.159,0-31.166,3.532-51.433,8.004l-0.248,0.055
			c-8.123,1.796-17.33,3.832-26.667,5.609c-8.138,1.55-13.479,9.403-11.93,17.541c1.551,8.139,9.404,13.48,17.543,11.93
			c29.96-5.705,54.995-13.139,72.736-13.139c12.822,0,23.059,3.836,35.336,13.241c6.579,5.039,15.994,3.788,21.029-2.786
			C212.945,159.931,211.698,150.515,205.121,145.477z"/>
	</g>
</g>
<g>
	<g>
		<path d="M205.121,205.477c-17.538-13.434-34.062-19.425-53.58-19.425c-22.033,0-47.458,7.787-78.348,13.668
			c-8.138,1.55-13.479,9.403-11.93,17.541c1.551,8.139,9.404,13.478,17.543,11.93c30.253-5.76,54.945-13.139,72.736-13.139
			c12.822,0,23.059,3.836,35.336,13.241c6.579,5.039,15.994,3.788,21.029-2.786C212.945,219.931,211.698,210.515,205.121,205.477z"
			/>
	</g>
</g>
<g>
	<g>
		<path d="M205.121,265.478c-17.538-13.434-34.062-19.425-53.58-19.425c-22.033,0-47.458,7.787-78.348,13.668
			c-8.138,1.55-13.479,9.403-11.93,17.541c1.55,8.138,9.402,13.477,17.541,11.93c29.962-5.705,54.996-13.139,72.738-13.139
			c12.822,0,23.059,3.836,35.336,13.241c6.579,5.039,15.994,3.788,21.029-2.786C212.945,279.932,211.698,270.516,205.121,265.478z"
			/>
	</g>
</g>
<g>
	<g>
		<path d="M438.805,139.72c-31.145-5.929-56.237-13.668-78.348-13.668c-19.518,0-36.042,5.991-53.58,19.425
			c-6.577,5.038-7.824,14.453-2.786,21.03c5.04,6.578,14.455,7.823,21.031,2.786c12.277-9.405,22.515-13.241,35.336-13.241
			c17.757,0,42.725,7.424,72.736,13.139c8.137,1.548,15.992-3.791,17.541-11.93C452.284,149.123,446.943,141.27,438.805,139.72z"/>
	</g>
</g>
<g>
	<g>
		<path d="M438.805,199.72c-31.145-5.929-56.237-13.668-78.348-13.668c-19.518,0-36.042,5.991-53.58,19.425
			c-6.577,5.038-7.824,14.453-2.786,21.03c5.04,6.578,14.455,7.823,21.031,2.786c12.277-9.405,22.515-13.241,35.336-13.241
			c17.757,0,42.725,7.424,72.736,13.139c8.137,1.548,15.992-3.791,17.541-11.93C452.284,209.123,446.943,201.27,438.805,199.72z"/>
	</g>
</g>
<g>
	<g>
		<path d="M438.806,259.721c-31.145-5.929-56.237-13.668-78.348-13.668c-19.518,0-36.042,5.991-53.58,19.425
			c-6.577,5.038-7.824,14.453-2.786,21.03c5.039,6.578,14.454,7.823,21.029,2.786c12.277-9.405,22.515-13.241,35.336-13.241
			c17.757,0,42.725,7.424,72.736,13.139c8.137,1.548,15.992-3.791,17.541-11.93C452.285,269.124,446.944,261.27,438.806,259.721z"/>
	</g>
</g>
<g>
</g>
<g>
</g>
<g>
</g>
<g>
</g>
<g>
</g>
<g>
</g>
<g>
</g>
<g>
</g>
<g>
</g>
<g>
</g>
<g>
</g>
<g>
</g>
<g>
</g>
<g>
</g>
<g>
</g>
</svg>
