<?xml version="1.0" encoding="UTF-8"?> <svg xmlns="http://www.w3.org/2000/svg" width="1922" height="1754" viewBox="0 0 1922 1754" fill="none"><g clip-path="url(#clip0)"><path d="M1171.14 1750.28C1585.98 1750.28 1922.28 1413.98 1922.28 999.14C1922.28 584.297 1585.98 248 1171.14 248C756.297 248 420 584.297 420 999.14C420 1413.98 756.297 1750.28 1171.14 1750.28Z" fill="#DDE0E1"></path><path d="M1170.42 1698.23C1368.47 1698.23 1546.63 1613.06 1670.27 1477.35V966.57C1670.27 949.278 1663.4 932.694 1651.17 920.467C1638.95 908.239 1622.36 901.37 1605.07 901.37H736.13C718.838 901.37 702.254 908.239 690.027 920.467C677.799 932.694 670.93 949.278 670.93 966.57V1477.74C794.56 1613.22 972.56 1698.23 1170.42 1698.23Z" fill="#0073AA"></path><rect x="802" y="1031" width="737" height="533" rx="47" fill="#A7AFB4" stroke="#F5F5F5" stroke-width="12"></rect><path d="M719.52 333.423C716.923 333.423 714.433 332.392 712.597 330.556C710.761 328.72 709.73 326.229 709.73 323.633V10.113C709.688 8.80038 709.91 7.49271 710.384 6.26768C710.857 5.04266 711.572 3.92528 712.486 2.98192C713.399 2.03856 714.493 1.28847 715.703 0.776222C716.912 0.26397 718.212 0 719.525 0C720.838 0 722.138 0.26397 723.347 0.776222C724.557 1.28847 725.651 2.03856 726.564 2.98192C727.478 3.92528 728.193 5.04266 728.666 6.26768C729.14 7.49271 729.362 8.80038 729.32 10.113V323.633C729.32 324.92 729.066 326.193 728.574 327.382C728.081 328.57 727.359 329.65 726.449 330.559C725.539 331.468 724.458 332.189 723.27 332.681C722.081 333.172 720.806 333.424 719.52 333.423V333.423Z" fill="#A7AFB4"></path><path d="M706.46 627.353C729.91 627.353 748.92 554.246 748.92 464.063C748.92 373.88 729.91 300.773 706.46 300.773C683.01 300.773 664 373.88 664 464.063C664 554.246 683.01 627.353 706.46 627.353Z" fill="#A7AFB4"></path><path d="M736.07 300.46H703.41V627.04H736.07V300.46Z" fill="#FF891D"></path><path d="M1627.43 627.353C1650.88 627.353 1669.89 554.246 1669.89 464.063C1669.89 373.88 1650.88 300.773 1627.43 300.773C1603.98 300.773 1584.97 373.88 1584.97 464.063C1584.97 554.246 1603.98 627.353 1627.43 627.353Z" fill="#A7AFB4"></path><path d="M1598.25 627.04H1630.91V300.46H1598.25V627.04Z" fill="#FF891D"></path><rect x="737" y="131" width="868.71" height="653.17" rx="30" fill="#0073AA"></rect><path d="M1359.75 851.92H982V887.84H1359.75V851.92Z" fill="#A7AFB4"></path><path d="M1359.75 799H982V834.92H1359.75V799Z" fill="#A7AFB4"></path><path d="M957.41 502.67C1020.54 502.67 1071.71 451.496 1071.71 388.37C1071.71 325.244 1020.54 274.07 957.41 274.07C894.284 274.07 843.11 325.244 843.11 388.37C843.11 451.496 894.284 502.67 957.41 502.67Z" fill="#F5F5F5"></path><path d="M957.38 515.74C932.188 515.742 907.562 508.274 886.614 494.279C865.667 480.285 849.34 460.393 839.698 437.119C830.057 413.846 827.533 388.236 832.446 363.528C837.36 338.82 849.49 316.123 867.302 298.309C885.115 280.495 907.81 268.364 932.518 263.448C957.225 258.533 982.836 261.055 1006.11 270.695C1029.38 280.335 1049.28 296.66 1063.27 317.606C1077.27 338.552 1084.74 363.178 1084.74 388.37C1084.77 458.6 1027.63 515.74 957.38 515.74ZM957.38 287.13C937.357 287.13 917.783 293.068 901.134 304.192C884.485 315.316 871.509 331.128 863.846 349.627C856.184 368.126 854.179 388.482 858.085 408.121C861.992 427.76 871.634 445.799 885.793 459.958C899.951 474.116 917.99 483.758 937.629 487.665C957.268 491.571 977.624 489.566 996.123 481.904C1014.62 474.241 1030.43 461.265 1041.56 444.616C1052.68 427.967 1058.62 408.393 1058.62 388.37C1058.59 361.528 1047.92 335.795 1028.94 316.815C1009.96 297.835 984.222 287.159 957.38 287.13V287.13Z" fill="#A7AFB4"></path><path d="M957.41 415.31C972.289 415.31 984.35 403.249 984.35 388.37C984.35 373.492 972.289 361.43 957.41 361.43C942.532 361.43 930.47 373.492 930.47 388.37C930.47 403.249 942.532 415.31 957.41 415.31Z" fill="black"></path><path d="M1385.37 502.67C1448.5 502.67 1499.67 451.496 1499.67 388.37C1499.67 325.244 1448.5 274.07 1385.37 274.07C1322.24 274.07 1271.07 325.244 1271.07 388.37C1271.07 451.496 1322.24 502.67 1385.37 502.67Z" fill="#F5F5F5"></path><path d="M1385.36 515.74C1315.14 515.74 1258 458.6 1258 388.37C1258 363.178 1265.47 338.552 1279.47 317.606C1293.46 296.66 1313.36 280.335 1336.63 270.695C1359.9 261.055 1385.51 258.533 1410.22 263.448C1434.93 268.364 1457.63 280.495 1475.44 298.309C1493.25 316.123 1505.38 338.82 1510.29 363.528C1515.21 388.236 1512.68 413.846 1503.04 437.119C1493.4 460.393 1477.07 480.285 1456.13 494.279C1435.18 508.274 1410.55 515.742 1385.36 515.74ZM1385.36 287.13C1365.34 287.128 1345.76 293.064 1329.11 304.187C1312.46 315.31 1299.48 331.121 1291.82 349.62C1284.16 368.119 1282.15 388.476 1286.05 408.115C1289.96 427.754 1299.6 445.794 1313.76 459.954C1327.92 474.114 1345.96 483.757 1365.6 487.664C1385.23 491.571 1405.59 489.567 1424.09 481.905C1442.59 474.242 1458.4 461.266 1469.53 444.617C1480.65 427.968 1486.59 408.394 1486.59 388.37C1486.56 361.531 1475.88 335.8 1456.91 316.821C1437.93 297.842 1412.2 287.164 1385.36 287.13Z" fill="#A7AFB4"></path><path d="M1385.03 433.23C1409.88 433.23 1430.03 413.083 1430.03 388.23C1430.03 363.377 1409.88 343.23 1385.03 343.23C1360.18 343.23 1340.03 363.377 1340.03 388.23C1340.03 413.083 1360.18 433.23 1385.03 433.23Z" fill="black"></path><path d="M957.82 433.23C982.673 433.23 1002.82 413.083 1002.82 388.23C1002.82 363.377 982.673 343.23 957.82 343.23C932.967 343.23 912.82 363.377 912.82 388.23C912.82 413.083 932.967 433.23 957.82 433.23Z" fill="black"></path><path d="M1170.5 712C1259.69 712 1332 651.542 1332 577H1009C1009 651.481 1081.31 712 1170.5 712Z" fill="#F5F5F5"></path><path d="M935.534 1082H883.284V1134.25H935.534V1082Z" fill="#00A0ED"></path><path d="M1040.04 1082H987.794V1134.25H1040.04V1082Z" fill="#FF891D"></path><path d="M1144.55 1082.21H1092.3V1134.46H1144.55V1082.21Z" fill="#00A0ED"></path><path d="M1249.05 1082.21H1196.8V1134.46H1249.05V1082.21Z" fill="#FF891D"></path><path d="M1353.56 1082H1301.31V1134.25H1353.56V1082Z" fill="#00A0ED"></path><path d="M1458.07 1082H1405.82V1134.25H1458.07V1082Z" fill="#FF891D"></path><path d="M1461.32 964.06H886.53C884.798 964.06 883.137 963.372 881.913 962.147C880.688 960.923 880 959.262 880 957.53C880 955.798 880.688 954.137 881.913 952.913C883.137 951.688 884.798 951 886.53 951H1461.32C1463.05 951 1464.71 951.688 1465.94 952.913C1467.16 954.137 1467.85 955.798 1467.85 957.53C1467.85 959.262 1467.16 960.923 1465.94 962.147C1464.71 963.372 1463.05 964.06 1461.32 964.06V964.06Z" fill="#FF891D"></path><path d="M1458.07 1193.04H883.284C881.595 1192.97 879.998 1192.26 878.826 1191.04C877.654 1189.82 877 1188.2 877 1186.51C877 1184.81 877.654 1183.19 878.826 1181.97C879.998 1180.75 881.595 1180.04 883.284 1179.97H1458.07C1459.76 1180.04 1461.36 1180.75 1462.53 1181.97C1463.7 1183.19 1464.36 1184.81 1464.36 1186.51C1464.36 1188.2 1463.7 1189.82 1462.53 1191.04C1461.36 1192.26 1459.76 1192.97 1458.07 1193.04V1193.04Z" fill="#F5F5F5"></path><path d="M1160.43 1227.71H1453.55C1457.36 1227.71 1460.49 1230.83 1460.49 1234.73V1502.69C1460.49 1506.59 1457.36 1509.71 1453.55 1509.71H1160.43C1156.63 1509.71 1153.49 1506.59 1153.49 1502.69V1234.73C1153.49 1230.83 1156.63 1227.71 1160.43 1227.71Z" stroke="#F5F5F5" stroke-width="7"></path><g clip-path="url(#clip1)"><path d="M1334.85 1327.28H1338.07V1283.28H1309.29C1307.79 1278.13 1305.74 1273.15 1303.18 1268.43L1321.18 1250.43L1323.45 1248.15L1321.18 1245.87L1294.67 1219.29L1292.39 1217.01L1290.12 1219.29L1272.01 1237.4C1267.55 1235.01 1262.86 1233.06 1258.01 1231.59V1203.21H1214.01V1231.6C1209.41 1232.98 1204.95 1234.8 1200.69 1237.03L1182.95 1219.29L1180.68 1217.01L1178.39 1219.29L1151.82 1245.86L1149.55 1248.14L1151.82 1250.41L1169.17 1267.77C1166.62 1272.36 1164.55 1277.21 1162.99 1282.23H1134.99V1326.23H1162.67C1164.25 1331.64 1166.43 1336.85 1169.16 1341.77L1151.81 1359.12L1149.54 1361.4L1151.81 1363.67L1178.36 1390.23L1180.65 1392.51L1182.92 1390.23L1200.66 1372.49C1205.25 1374.89 1210.07 1376.82 1215.05 1378.23V1406.31H1259.05V1377.59C1263.55 1376.18 1267.9 1374.34 1272.05 1372.12L1290.16 1390.23L1292.43 1392.51L1294.71 1390.23L1321.27 1363.67L1323.54 1361.4L1321.27 1359.12L1303.27 1341.12C1305.66 1336.73 1307.6 1332.12 1309.07 1327.35L1334.85 1327.28ZM1281.59 1304.75C1281.6 1313.77 1278.92 1322.59 1273.91 1330.09C1268.9 1337.6 1261.78 1343.44 1253.44 1346.9C1245.11 1350.35 1235.94 1351.25 1227.09 1349.49C1218.24 1347.73 1210.11 1343.39 1203.73 1337.01C1197.35 1330.63 1193.01 1322.5 1191.25 1313.66C1189.49 1304.81 1190.39 1295.64 1193.85 1287.3C1197.3 1278.97 1203.15 1271.84 1210.65 1266.83C1218.15 1261.82 1226.97 1259.15 1235.99 1259.15C1248.08 1259.16 1259.67 1263.97 1268.22 1272.52C1276.77 1281.07 1281.58 1292.66 1281.59 1304.75V1304.75Z" fill="#0073AA"></path><path d="M1477.82 1455.59L1481.1 1454.5L1480.02 1451.22L1467.38 1412.95L1466.3 1409.67L1463.02 1410.75L1437.02 1419.35C1433.74 1414.6 1429.96 1410.22 1425.74 1406.27L1438.06 1381.81L1439.62 1378.72L1436.53 1377.17L1400.53 1359.04L1397.44 1357.48L1395.89 1360.57L1383.53 1385.12C1378.17 1384.18 1372.73 1383.78 1367.28 1383.92L1358.81 1358.27L1357.73 1354.99L1354.45 1356.07L1316.17 1368.71L1312.89 1369.79L1313.97 1373.07L1322.44 1398.73C1318.22 1401.68 1314.29 1405.03 1310.69 1408.73L1286.69 1396.62L1283.6 1395.06L1282.04 1398.15L1263.91 1434.15L1262.36 1437.24L1265.44 1438.79L1288.97 1450.64C1287.91 1456.18 1287.43 1461.82 1287.54 1467.46L1262.27 1475.8L1258.99 1476.89L1260.07 1480.17L1272.71 1518.44L1273.79 1521.72L1277.07 1520.64L1302.07 1512.4C1305.5 1517.38 1309.48 1521.96 1313.92 1526.06L1302.07 1549.58L1300.52 1552.67L1303.6 1554.22L1339.6 1572.35L1342.7 1573.91L1344.25 1570.82L1356.36 1546.82C1361.85 1547.72 1367.41 1548.05 1372.96 1547.82L1381.33 1573.16L1382.41 1576.44L1385.68 1575.36L1423.97 1562.72L1427.24 1561.64L1426.16 1558.36L1417.58 1532.36C1421.67 1529.4 1425.47 1526.08 1428.94 1522.42L1453.49 1534.78L1456.58 1536.34L1458.13 1533.25L1476.26 1497.25L1477.82 1494.16L1474.73 1492.61L1450.18 1480.27C1451.13 1474.99 1451.56 1469.63 1451.45 1464.27L1477.82 1455.56V1455.59ZM1415.95 1450.59C1418.99 1459.78 1419.23 1469.67 1416.65 1479C1414.06 1488.33 1408.77 1496.69 1401.44 1503.01C1394.1 1509.33 1385.06 1513.34 1375.45 1514.52C1365.84 1515.7 1356.1 1514.01 1347.45 1509.65C1338.8 1505.3 1331.64 1498.47 1326.87 1490.05C1322.1 1481.62 1319.94 1471.97 1320.66 1462.31C1321.37 1452.66 1324.94 1443.43 1330.9 1435.8C1336.86 1428.17 1344.95 1422.48 1354.14 1419.45C1366.46 1415.4 1379.89 1416.39 1391.47 1422.22C1403.06 1428.05 1411.86 1438.23 1415.95 1450.54V1450.59Z" fill="#0073AA"></path><path d="M1525.13 1261.02L1528.08 1260.44L1527.5 1257.5L1520.79 1223.11L1520.21 1220.11L1517.21 1220.69L1493.81 1225.26C1491.52 1220.81 1488.75 1216.62 1485.56 1212.76L1498.86 1193.01L1500.53 1190.52L1498.04 1188.84L1468.98 1169.28L1466.48 1167.59L1464.81 1170.09L1451.48 1189.96C1446.96 1188.56 1442.31 1187.62 1437.6 1187.15L1433.1 1164.15L1432.52 1161.21L1429.57 1161.78L1395.18 1168.5L1392.24 1169.08L1392.82 1172.02L1397.32 1195.02C1393.36 1197.11 1389.6 1199.58 1386.09 1202.38L1366.68 1189.31L1364.19 1187.63L1362.51 1190.13L1342.94 1219.19L1341.27 1221.68L1343.76 1223.35L1362.76 1236.14C1361.24 1240.8 1360.21 1245.61 1359.69 1250.49L1336.99 1254.92L1333.99 1255.5L1334.56 1258.45L1341.28 1292.83L1341.86 1295.83L1344.86 1295.26L1367.27 1290.88C1369.69 1295.54 1372.61 1299.92 1375.99 1303.94L1363.21 1322.94L1361.53 1325.43L1364.02 1327.1L1393.09 1346.67L1395.58 1348.35L1397.26 1345.85L1410.33 1326.44C1414.96 1327.82 1419.72 1328.72 1424.53 1329.12L1428.98 1351.89L1429.56 1354.89L1432.5 1354.31L1466.89 1347.59L1469.83 1347.02L1469.26 1344.07L1464.7 1320.72C1468.55 1318.62 1472.19 1316.17 1475.58 1313.39L1495.4 1326.73L1497.89 1328.41L1499.57 1325.92L1519.13 1296.85L1520.81 1294.36L1518.32 1292.68L1498.57 1279.39C1499.97 1274.95 1500.92 1270.37 1501.41 1265.74L1525.1 1261.11L1525.13 1261.02ZM1472.33 1249.91C1473.95 1258.17 1473.07 1266.72 1469.83 1274.48C1466.58 1282.24 1461.1 1288.87 1454.09 1293.52C1447.08 1298.17 1438.85 1300.63 1430.43 1300.6C1422.02 1300.57 1413.8 1298.05 1406.82 1293.35C1399.84 1288.65 1394.41 1281.99 1391.22 1274.2C1388.03 1266.42 1387.22 1257.86 1388.89 1249.61C1390.56 1241.37 1394.64 1233.8 1400.61 1227.87C1406.58 1221.95 1414.18 1217.92 1422.43 1216.31C1433.51 1214.16 1444.98 1216.49 1454.33 1222.79C1463.69 1229.09 1470.16 1238.84 1472.33 1249.91Z" fill="#0073AA"></path></g><path d="M906.144 1284.48C915.163 1284.48 922.474 1277.17 922.474 1268.15C922.474 1259.13 915.163 1251.82 906.144 1251.82C897.126 1251.82 889.814 1259.13 889.814 1268.15C889.814 1277.17 897.126 1284.48 906.144 1284.48Z" fill="#FF891D"></path><path d="M971.464 1284.48C980.483 1284.48 987.794 1277.17 987.794 1268.15C987.794 1259.13 980.483 1251.82 971.464 1251.82C962.445 1251.82 955.134 1259.13 955.134 1268.15C955.134 1277.17 962.445 1284.48 971.464 1284.48Z" fill="#FF891D"></path><path d="M1036.78 1284.48C1045.8 1284.48 1053.11 1277.17 1053.11 1268.15C1053.11 1259.13 1045.8 1251.82 1036.78 1251.82C1027.77 1251.82 1020.45 1259.13 1020.45 1268.15C1020.45 1277.17 1027.77 1284.48 1036.78 1284.48Z" fill="#FF891D"></path><path d="M906.144 1349.8C915.163 1349.8 922.474 1342.49 922.474 1333.47C922.474 1324.45 915.163 1317.14 906.144 1317.14C897.126 1317.14 889.814 1324.45 889.814 1333.47C889.814 1342.49 897.126 1349.8 906.144 1349.8Z" fill="#FF891D"></path><path d="M971.464 1349.8C980.483 1349.8 987.794 1342.49 987.794 1333.47C987.794 1324.45 980.483 1317.14 971.464 1317.14C962.445 1317.14 955.134 1324.45 955.134 1333.47C955.134 1342.49 962.445 1349.8 971.464 1349.8Z" fill="#FF891D"></path><path d="M1036.78 1349.8C1045.8 1349.8 1053.11 1342.49 1053.11 1333.47C1053.11 1324.45 1045.8 1317.14 1036.78 1317.14C1027.77 1317.14 1020.45 1324.45 1020.45 1333.47C1020.45 1342.49 1027.77 1349.8 1036.78 1349.8Z" fill="#FF891D"></path><path d="M906.144 1415.11C915.163 1415.11 922.474 1407.8 922.474 1398.78C922.474 1389.76 915.163 1382.45 906.144 1382.45C897.126 1382.45 889.814 1389.76 889.814 1398.78C889.814 1407.8 897.126 1415.11 906.144 1415.11Z" fill="#FF891D"></path><path d="M971.464 1415.11C980.483 1415.11 987.794 1407.8 987.794 1398.78C987.794 1389.76 980.483 1382.45 971.464 1382.45C962.445 1382.45 955.134 1389.76 955.134 1398.78C955.134 1407.8 962.445 1415.11 971.464 1415.11Z" fill="#FF891D"></path><path d="M1036.78 1415.11C1045.8 1415.11 1053.11 1407.8 1053.11 1398.78C1053.11 1389.76 1045.8 1382.45 1036.78 1382.45C1027.77 1382.45 1020.45 1389.76 1020.45 1398.78C1020.45 1407.8 1027.77 1415.11 1036.78 1415.11Z" fill="#FF891D"></path><path d="M906.144 1480.43C915.163 1480.43 922.474 1473.12 922.474 1464.1C922.474 1455.08 915.163 1447.77 906.144 1447.77C897.126 1447.77 889.814 1455.08 889.814 1464.1C889.814 1473.12 897.126 1480.43 906.144 1480.43Z" fill="#FF891D"></path><path d="M971.464 1480.43C980.483 1480.43 987.794 1473.12 987.794 1464.1C987.794 1455.08 980.483 1447.77 971.464 1447.77C962.445 1447.77 955.134 1455.08 955.134 1464.1C955.134 1473.12 962.445 1480.43 971.464 1480.43Z" fill="#FF891D"></path><path d="M1036.78 1480.43C1045.8 1480.43 1053.11 1473.12 1053.11 1464.1C1053.11 1455.08 1045.8 1447.77 1036.78 1447.77C1027.77 1447.77 1020.45 1455.08 1020.45 1464.1C1020.45 1473.12 1027.77 1480.43 1036.78 1480.43Z" fill="#FF891D"></path><path d="M1102.09 1284.48C1111.11 1284.48 1118.42 1277.17 1118.42 1268.15C1118.42 1259.13 1111.11 1251.82 1102.09 1251.82C1093.08 1251.82 1085.76 1259.13 1085.76 1268.15C1085.76 1277.17 1093.08 1284.48 1102.09 1284.48Z" fill="#FF891D"></path><path d="M1102.09 1349.8C1111.11 1349.8 1118.42 1342.49 1118.42 1333.47C1118.42 1324.45 1111.11 1317.14 1102.09 1317.14C1093.08 1317.14 1085.76 1324.45 1085.76 1333.47C1085.76 1342.49 1093.08 1349.8 1102.09 1349.8Z" fill="#FF891D"></path><path d="M1102.09 1415.11C1111.11 1415.11 1118.42 1407.8 1118.42 1398.78C1118.42 1389.76 1111.11 1382.45 1102.09 1382.45C1093.08 1382.45 1085.76 1389.76 1085.76 1398.78C1085.76 1407.8 1093.08 1415.11 1102.09 1415.11Z" fill="#FF891D"></path><path d="M1102.09 1480.43C1111.11 1480.43 1118.42 1473.12 1118.42 1464.1C1118.42 1455.08 1111.11 1447.77 1102.09 1447.77C1093.08 1447.77 1085.76 1455.08 1085.76 1464.1C1085.76 1473.12 1093.08 1480.43 1102.09 1480.43Z" fill="#FF891D"></path><rect x="269.588" y="673.054" width="168" height="461.006" rx="19" fill="#0073AA"></rect><rect x="270" y="1155" width="168" height="394" rx="19" transform="rotate(-90 270 1155)" fill="#0073AA"></rect><rect width="168" height="126" rx="19" transform="matrix(-1 0 0 1 441 522)" fill="#0073AA"></rect><rect x="273" y="433" width="48" height="73" rx="19" fill="#0073AA"></rect><rect x="333" y="433" width="49" height="73" rx="19" fill="#0073AA"></rect><rect x="393" y="433" width="48" height="73" rx="19" fill="#0073AA"></rect><rect width="48.4309" height="72.3193" rx="19" transform="matrix(0.989675 0.143331 -0.160689 0.987005 453.069 505.975)" fill="#0073AA"></rect><rect x="270" y="761" width="37" height="168" transform="rotate(-90 270 761)" fill="#A7AFB4"></rect><rect x="270" y="836" width="37" height="168" transform="rotate(-90 270 836)" fill="#A7AFB4"></rect><rect x="270" y="906" width="37" height="168" transform="rotate(-90 270 906)" fill="#A7AFB4"></rect><rect x="270" y="976" width="37" height="168" transform="rotate(-90 270 976)" fill="#A7AFB4"></rect><rect x="581" y="987" width="37" height="168" fill="#A7AFB4"></rect><rect x="441" y="987" width="37" height="168" fill="#A7AFB4"></rect><rect x="511" y="987" width="37" height="168" fill="#A7AFB4"></rect></g><defs><clipPath id="clip0"><rect width="1921.56" height="1753.75" fill="white"></rect></clipPath><clipPath id="clip1"><rect x="1157.61" y="1232.23" width="300.46" height="274.33" fill="white"></rect></clipPath></defs></svg> 