<?xml version="1.0" encoding="iso-8859-1"?>
<!-- Generator: Adobe Illustrator 16.0.0, SVG Export Plug-In . SVG Version: 6.00 Build 0)  -->
<!DOCTYPE svg PUBLIC "-//W3C//DTD SVG 1.1//EN" "http://www.w3.org/Graphics/SVG/1.1/DTD/svg11.dtd">
<svg version="1.1" id="Capa_1" xmlns="http://www.w3.org/2000/svg" xmlns:xlink="http://www.w3.org/1999/xlink" x="0px" y="0px"
	 width="30.359px" height="30.359px" viewBox="0 0 30.359 30.359" style="enable-background:new 0 0 30.359 30.359;"
	 xml:space="preserve">
<g>
	<path d="M3.294,4.594c0.168-0.113,0.318-0.262,0.509-0.339C4.919,3.792,6.188,3.75,7.37,3.474c1.513-0.349,4.455,6.606,2.574,7.21
		c-0.699,0.219-2.904,0.55-3.486,0.989c-0.519,0.391-0.272,1.35,0.24,1.953c1.35,1.587,3.332,3.355,4.901,4.905l0.002-0.001
		c0.04,0.041,0.086,0.088,0.129,0.131c0.043,0.043,0.089,0.087,0.132,0.129L11.86,18.79c1.549,1.568,3.316,3.553,4.904,4.902
		c0.604,0.513,1.562,0.758,1.953,0.239c0.438-0.581,0.77-2.787,0.988-3.486c0.604-1.881,7.561,1.062,7.211,2.576
		c-0.277,1.181-0.319,2.448-0.781,3.566c-0.079,0.189-0.229,0.339-0.34,0.511c-2.52,3.971-8.629,4.482-13.18,0.608
		c-1.738-1.479-3.427-3.019-5.069-4.604l-0.009,0.008c-0.043-0.044-0.082-0.09-0.127-0.133c-0.041-0.043-0.088-0.084-0.133-0.127
		l0.008-0.009c-1.586-1.643-3.123-3.329-4.604-5.069C-1.19,13.223-0.677,7.113,3.294,4.594z M15.257,4.041l-1.113,11.105
		c-0.066,0.673,0.43,1.169,1.102,1.102l11.106-1.112c0.674-0.065,0.832-0.513,0.354-0.991l-3.012-3.011l6.274-6.276
		c0.479-0.479,0.479-1.26,0-1.739l-2.756-2.759c-0.479-0.478-1.263-0.478-1.739,0l-6.275,6.276l-2.949-2.949
		C15.769,3.208,15.323,3.368,15.257,4.041z"/>
</g>
<g>
</g>
<g>
</g>
<g>
</g>
<g>
</g>
<g>
</g>
<g>
</g>
<g>
</g>
<g>
</g>
<g>
</g>
<g>
</g>
<g>
</g>
<g>
</g>
<g>
</g>
<g>
</g>
<g>
</g>
</svg>
