<svg height="512pt" viewBox="0 -38 512.00013 512" width="512pt" xmlns="http://www.w3.org/2000/svg"><path d="m500.960938 120.109375-236.015626-118c-5.628906-2.8125-12.257812-2.8125-17.890624 0l-236.011719 118c-14.234375 7.117187-14.835938 27.246094-1.058594 35.203125v260.6875c0 11.046875 8.957031 20 20.003906 20 11.042969 0 20-8.953125 20-20v-240.640625l26 13v84.597656c0 7.609375 4.320313 14.558594 11.144531 17.929688l160.007813 79.042969c5.582031 2.757812 12.132813 2.761718 17.71875 0l160.011719-79.042969c6.824218-3.371094 11.140625-10.320313 11.140625-17.929688v-83.757812c36.578125-18.695313 64.765625-33.214844 65.164062-33.421875 14.511719-7.472656 14.425781-28.347656-.214843-35.667969zm-104.953126 140.417969-140.007812 69.164062-140.007812-69.164062v-52.167969c139.9375 69.136719 131.589843 67.640625 140.007812 67.640625 6.519531 0 5.335938 2.050781 140.007812-66.410156zm-139.058593-26.414063-192.238281-96.113281 191.289062-95.640625 191.785156 95.886719c-32.113281 16.464844-158.015625 80.894531-190.835937 95.867187zm0 0"/></svg>