<svg id="Capa_1" enable-background="new 0 0 450.823 450.823" height="512" viewBox="0 0 450.823 450.823" width="512" xmlns="http://www.w3.org/2000/svg"><path d="m442.692 156.291-211.323-98.617c-3.77-1.761-8.145-1.761-11.914 0l-211.324 98.617c-4.967 2.312-8.131 7.292-8.131 12.768v140.882h28.176v-118.761l28.176 13.149v133.788c0 6.356 4.251 11.914 10.387 13.593l154.971 42.265c1.211.33 2.449.495 3.701.495s2.49-.165 3.701-.495l154.971-42.265c6.136-1.678 10.387-7.237 10.387-13.593v-133.788l48.222-22.503c4.967-2.311 8.131-7.292 8.131-12.767 0-5.476-3.164-10.456-8.131-12.768zm-76.398 171.068-140.882 38.412-140.883-38.412v-109.88l134.925 62.965c1.885.88 3.921 1.321 5.957 1.321s4.072-.44 5.957-1.321l134.925-62.965c.001-.001.001 109.88.001 109.88zm-140.882-75.229-178.016-83.071 178.015-83.071 178.015 83.071z"/></svg>