<svg height="512pt" viewBox="0 -27 512.001 512" width="512pt" xmlns="http://www.w3.org/2000/svg"><path d="m448.285156 329.226562 63.714844-63.710937-63.714844-63.714844 10.265625-10.265625c17.761719-17.761718 17.761719-46.660156.003907-64.421875-8.605469-8.601562-20.046876-13.339843-32.214844-13.339843-12.164063 0-23.605469 4.738281-32.207032 13.339843l-10.265624 10.265625-63.714844-63.714844-18.800782 18.804688v29.71875c33.257813 7.925781 58.066407 37.890625 58.066407 73.539062 0 35.652344-24.808594 65.617188-58.066407 73.539063v92.152344h-55.15625l-10.996093 10.996093 84.953125 84.949219 63.714844-63.714843 8.847656 8.851562c17.761718 17.761719 46.660156 17.761719 64.421875 0s17.761719-46.660156 0-64.421875zm0 0"/><path d="m271.316406 331.386719v-90.105469h12.511719c25.121094 0 45.554687-20.433594 45.554687-45.554688 0-25.117187-20.433593-45.550781-45.554687-45.550781h-12.511719v-90.105469h-90.105468v-14.515624c0-25.121094-20.433594-45.554688-45.554688-45.554688-25.117188 0-45.550781 20.433594-45.550781 45.554688v14.515624h-90.105469v90.105469h12.515625c22.039063 0 40.46875 15.730469 44.65625 36.554688 1.816406 2.539062 2.898437 5.640625 2.898437 8.996093 0 3.355469-1.082031 6.457032-2.898437 9-4.1875 20.820313-22.617187 36.554688-44.65625 36.554688h-12.515625v90.105469h90.105469v-14.519531c0-25.117188 20.433593-45.550782 45.550781-45.550782 25.121094 0 45.554688 20.433594 45.554688 45.550782v14.519531zm0 0"/></svg>