<svg id="Capa_1" enable-background="new 0 0 512 512" height="512" viewBox="0 0 512 512" width="512" xmlns="http://www.w3.org/2000/svg"><path d="m459.406 132.927-128.533-128.533c-2.813-2.813-6.628-4.394-10.606-4.394h-216.9c-30.419 0-55.167 24.748-55.167 55.167v401.666c0 30.419 24.748 55.167 55.166 55.167h305.267c30.419 0 55.167-24.748 55.167-55.167v-313.3c0-3.978-1.581-7.793-4.394-10.606zm-124.139-81.714 77.32 77.32h-52.154c-13.876 0-25.166-11.29-25.166-25.166zm73.366 430.787h-305.267c-13.876 0-25.166-11.29-25.166-25.167v-401.666c0-13.877 11.29-25.167 25.166-25.167h201.9v73.367c0 30.418 24.748 55.166 55.166 55.166h73.368v298.3c0 13.877-11.29 25.167-25.167 25.167z"/><path d="m384.533 417.732h-257.066c-8.284 0-15 6.716-15 15s6.716 15 15 15h257.066c8.284 0 15-6.716 15-15s-6.716-15-15-15z"/><path d="m384.533 353.467h-257.066c-8.284 0-15 6.716-15 15s6.716 15 15 15h257.066c8.284 0 15-6.716 15-15s-6.716-15-15-15z"/><path d="m384.533 289.199h-257.066c-8.284 0-15 6.716-15 15s6.716 15 15 15h257.066c8.284 0 15-6.716 15-15s-6.716-15-15-15z"/><path d="m127.467 254.934h192.8c8.284 0 15-6.716 15-15s-6.716-15-15-15h-192.8c-8.284 0-15 6.716-15 15s6.716 15 15 15z"/><path d="m127.467 190.666h96.399c8.284 0 15-6.716 15-15v-96.399c0-8.284-6.716-15-15-15h-96.399c-8.284 0-15 6.716-15 15v96.399c0 8.284 6.716 15 15 15zm15-96.399h66.399v66.399h-66.399z"/></svg>