<?xml version="1.0" encoding="iso-8859-1"?>
<!-- Generator: Adobe Illustrator 19.0.0, SVG Export Plug-In . SVG Version: 6.00 Build 0)  -->
<svg version="1.1" id="Capa_1" xmlns="http://www.w3.org/2000/svg" xmlns:xlink="http://www.w3.org/1999/xlink" x="0px" y="0px"
	 viewBox="0 0 512 512" style="enable-background:new 0 0 512 512;" xml:space="preserve">
<g>
	<g>
		<path d="M66,0v512h380V0H66z M138.908,224.507c0-25.07,13.166-47.11,32.937-59.61c-7.843-8.857-12.619-20.489-12.619-33.221
			c0-27.665,22.508-50.173,50.173-50.173c27.665,0,50.173,22.508,50.173,50.173c0,12.732-4.776,24.365-12.619,33.221
			c19.77,12.5,32.937,34.54,32.937,59.61v15H138.908V224.507z M373.333,430.497H138.667v-30h234.666V430.497z M373.333,366.497
			H138.667v-30h234.666V366.497z M373.333,302.497H138.667v-30h234.666V302.497z M373.333,239.507h-64v-30h64V239.507z
			 M373.333,175.507h-64v-30h64V175.507z M373.333,112.517h-64v-30h64V112.517z"/>
	</g>
</g>
<g>
	<g>
		<path d="M209.399,111.503c-11.123,0-20.173,9.05-20.173,20.173c0,11.123,9.05,20.173,20.173,20.173
			c11.124,0,20.173-9.05,20.173-20.173C229.572,120.552,220.522,111.503,209.399,111.503z"/>
	</g>
</g>
<g>
	<g>
		<path d="M209.399,184.016c-17.03,0-31.639,10.568-37.611,25.491h75.223C241.038,194.585,226.429,184.016,209.399,184.016z"/>
	</g>
</g>
<g>
</g>
<g>
</g>
<g>
</g>
<g>
</g>
<g>
</g>
<g>
</g>
<g>
</g>
<g>
</g>
<g>
</g>
<g>
</g>
<g>
</g>
<g>
</g>
<g>
</g>
<g>
</g>
<g>
</g>
</svg>
