<?xml version="1.0" encoding="iso-8859-1"?>
<!-- Generator: Adobe Illustrator 19.0.0, SVG Export Plug-In . SVG Version: 6.00 Build 0)  -->
<svg version="1.1" id="Capa_1" xmlns="http://www.w3.org/2000/svg" xmlns:xlink="http://www.w3.org/1999/xlink" x="0px" y="0px"
	 viewBox="0 0 512 512" style="enable-background:new 0 0 512 512;" xml:space="preserve">
<g>
	<g>
		<path d="M66,0v512h380V0H66z M416,482H96V30h320V482z"/>
	</g>
</g>
<g>
	<g>
		<rect x="138.67" y="272.5" width="234.67" height="30"/>
	</g>
</g>
<g>
	<g>
		<rect x="138.67" y="336.5" width="234.67" height="30"/>
	</g>
</g>
<g>
	<g>
		<rect x="138.67" y="400.5" width="234.67" height="30"/>
	</g>
</g>
<g>
	<g>
		<rect x="309.33" y="145.51" width="64" height="30"/>
	</g>
</g>
<g>
	<g>
		<rect x="309.33" y="209.51" width="64" height="30"/>
	</g>
</g>
<g>
	<g>
		<rect x="309.33" y="82.52" width="64" height="30"/>
	</g>
</g>
<g>
	<g>
		<path d="M246.954,164.897c7.843-8.856,12.619-20.488,12.619-33.221c0-27.665-22.507-50.173-50.173-50.173
			c-27.666,0-50.173,22.508-50.173,50.173c0,12.732,4.776,24.365,12.619,33.221c-19.77,12.5-32.937,34.54-32.937,59.61v15h140.982
			v-15C279.891,199.437,266.724,177.397,246.954,164.897z M209.399,111.502c11.124,0,20.173,9.05,20.173,20.173
			c0,11.124-9.05,20.173-20.173,20.173c-11.123,0-20.173-9.05-20.173-20.173S198.276,111.502,209.399,111.502z M171.787,209.507
			c5.974-14.922,20.583-25.491,37.612-25.491c17.03,0,31.639,10.568,37.611,25.491H171.787z"/>
	</g>
</g>
<g>
</g>
<g>
</g>
<g>
</g>
<g>
</g>
<g>
</g>
<g>
</g>
<g>
</g>
<g>
</g>
<g>
</g>
<g>
</g>
<g>
</g>
<g>
</g>
<g>
</g>
<g>
</g>
<g>
</g>
</svg>
