<?xml version="1.0" encoding="iso-8859-1"?>
<!-- Generator: Adobe Illustrator 19.0.0, SVG Export Plug-In . SVG Version: 6.00 Build 0)  -->
<svg version="1.1" id="Capa_1" xmlns="http://www.w3.org/2000/svg" xmlns:xlink="http://www.w3.org/1999/xlink" x="0px" y="0px"
	 viewBox="0 0 512 512" style="enable-background:new 0 0 512 512;" xml:space="preserve">
<g>
	<g>
		<path d="M333.205,34.213L330.799,0L9.546,22.591l30.317,431.118l44.011-3.095V512h322.046v-35.276l50.265,5.413l46.27-429.698
			L333.205,34.213z M83.874,420.519l-16.17,1.137L41.599,50.432l261.359-18.38l3.359,47.765H83.874V420.519z M375.9,481.979H113.895
			V109.838H375.9V481.979z M429.552,449.073l-23.631-2.545V79.817h-69.508l-1.068-15.18l134.049,14.434L429.552,449.073z"/>
	</g>
</g>
<g>
	<g>
		<rect x="147.003" y="296.746" width="195.796" height="30.021"/>
	</g>
</g>
<g>
	<g>
		<rect x="147.003" y="350.143" width="195.796" height="30.021"/>
	</g>
</g>
<g>
	<g>
		<rect x="147.003" y="403.54" width="195.796" height="30.021"/>
	</g>
</g>
<g>
	<g>
		<path d="M201.384,229.293c-13.238,0-22.154-9.186-22.154-23.64s8.915-23.64,22.154-23.64c8.511,0,15.13,4.053,20.668,11.078
			l20.128-17.966c-9.321-12.157-23.911-18.912-42.418-18.912c-30.394,0-52.684,20.398-52.684,49.442s22.289,49.442,52.684,49.44
			c18.508,0,33.097-6.754,42.418-18.912l-20.128-17.966C216.514,225.24,209.895,229.293,201.384,229.293z"/>
	</g>
</g>
<g>
	<g>
		<polygon points="321.075,158.373 297.975,213.624 275.415,158.373 241.102,158.373 281.088,252.934 312.429,252.934 
			352.414,158.373 		"/>
	</g>
</g>
<g>
</g>
<g>
</g>
<g>
</g>
<g>
</g>
<g>
</g>
<g>
</g>
<g>
</g>
<g>
</g>
<g>
</g>
<g>
</g>
<g>
</g>
<g>
</g>
<g>
</g>
<g>
</g>
<g>
</g>
</svg>
