<svg id="Capa_1" enable-background="new 0 0 458.353 458.353" height="512" viewBox="0 0 458.353 458.353" width="512" xmlns="http://www.w3.org/2000/svg"><path id="path-1_77_" d="m186.206 200.529h-156.111c7.232-64.279 61.282-114.588 127.464-114.588h14.324v-28.647h-14.324c-86.878 0-157.559 70.681-157.559 157.559v171.882c0 7.917 6.406 14.324 14.324 14.324h171.882c7.917 0 14.324-6.406 14.324-14.324v-171.882c-.001-7.917-6.407-14.324-14.324-14.324zm-14.324 171.883h-143.235v-143.236h143.235z" transform="translate(0 2)"/><path id="path-1_76_" d="m444.029 200.529h-156.111c7.232-64.279 61.282-114.588 127.464-114.588h14.324v-28.647h-14.324c-86.878 0-157.559 70.681-157.559 157.559v171.882c0 7.917 6.406 14.324 14.324 14.324h171.882c7.917 0 14.324-6.406 14.324-14.324v-171.882c0-7.917-6.406-14.324-14.324-14.324zm-14.323 171.883h-143.235v-143.236h143.235z" transform="translate(9 2)"/></svg>