<svg id="Capa_1" enable-background="new 0 0 512 512" height="512" viewBox="0 0 512 512" width="512" xmlns="http://www.w3.org/2000/svg"><path d="m482 16h-452c-16.542 0-30 13.458-30 30v300c0 16.542 13.458 30 30 30h157.5v60h-26.5c-8.284 0-15 6.716-15 15s6.716 15 15 15h110.361c2.425 16.938 16.972 30 34.506 30h110.266c19.225 0 34.867-15.701 34.867-35v-85h31c16.542 0 30-13.458 30-30v-300c0-16.542-13.458-30-30-30zm0 30v240h-31v-55c0-19.299-15.642-35-34.867-35h-110.266c-19.225 0-34.867 15.701-34.867 35v55h-241v-240zm-61 210h-120v-25c0-2.757 2.184-5 4.867-5h110.266c2.684 0 4.867 2.243 4.867 5zm-120 30h120v120h-120zm-271 30h241v30h-241zm187.5 60h53.5v60h-53.5zm198.633 90h-110.266c-2.684 0-4.867-2.243-4.867-5v-25h120v25c0 2.757-2.184 5-4.867 5zm34.867-120v-30h31v30z"/></svg>