<svg id="Capa_1" enable-background="new 0 0 512 512" height="512" viewBox="0 0 512 512" width="512" xmlns="http://www.w3.org/2000/svg"><path d="m482 16h-452c-16.54 0-30 13.46-30 30v240h241v-55c0-35.84 29.1-65 64.87-65h110.26c35.77 0 64.87 29.16 64.87 65v55h31v-240c0-16.54-13.46-30-30-30z"/><path d="m241 316h-241v30c0 16.54 13.46 30 30 30h211z"/><path d="m481 376h1c16.54 0 30-13.46 30-30v-30h-31z"/><path d="m416.133 196h-110.266c-19.225 0-34.867 15.701-34.867 35v25h180v-25c0-19.299-15.642-35-34.867-35z"/><path d="m271 286h180v120h-180z"/><path d="m271 461c0 19.299 15.642 35 34.867 35h110.266c19.225 0 34.867-15.701 34.867-35v-25h-180z"/><path d="m241 406h-53.5v30h-26.5c-8.28 0-15 6.72-15 15s6.72 15 15 15h80.19c-.13-1.65-.19-3.32-.19-5z"/></svg>