<?xml version="1.0"?>
<svg xmlns="http://www.w3.org/2000/svg" viewBox="0 0 64 64" width="512" height="512"><g id="device"><path d="M48,19a1,1,0,0,0,1-1H41a1,1,0,0,0,1,1Z"/><path d="M52,18H51a3,3,0,0,1-3,3H42a3,3,0,0,1-3-3H38a1,1,0,0,0-1,1V47a1,1,0,0,0,1,1H52a1,1,0,0,0,1-1V19A1,1,0,0,0,52,18Z"/><path d="M11,32a1,1,0,0,0-1,1V51a1,1,0,0,0,1,1H43a1,1,0,0,0,1-1V50H38a3,3,0,0,1-3-3V32Z"/><path d="M55,40h4a1,1,0,0,0,1-1V36H55Z"/><path d="M8,36H4v3a1,1,0,0,0,1,1H8Z"/><path d="M59,6H5A1,1,0,0,0,4,7V34H8V33a3,3,0,0,1,3-3H35V19a3,3,0,0,1,3-3H52a3,3,0,0,1,3,3V34h5V7A1,1,0,0,0,59,6Z"/><path d="M46.875,55H30a1,1,0,0,0-1,1H25a1,1,0,0,0-1-1H7.125a1,1,0,0,0-.96,1.28l.455,1.56A3.015,3.015,0,0,0,9.5,60h35a3.015,3.015,0,0,0,2.88-2.16l.455-1.56a1,1,0,0,0-.96-1.28Z"/></g></svg>
