<?xml version="1.0" encoding="iso-8859-1"?>
<!-- Generator: Adobe Illustrator 19.0.0, SVG Export Plug-In . SVG Version: 6.00 Build 0)  -->
<svg version="1.1" id="Layer_1" xmlns="http://www.w3.org/2000/svg" xmlns:xlink="http://www.w3.org/1999/xlink" x="0px" y="0px"
	 viewBox="0 0 512 512" style="enable-background:new 0 0 512 512;" xml:space="preserve">
<g transform="translate(1)">
	<g>
		<g>
			<path d="M399.32,399.36c-13.653,12.8-13.653,34.133,0,47.787c6.827,6.827,15.36,10.24,23.893,10.24s17.067-3.413,23.893-10.24
				c13.653-12.8,13.653-34.133,0-47.787C434.307,385.707,412.973,385.707,399.32,399.36z M435.16,436.053
				c-6.827,6.827-17.067,6.827-23.893,0s-6.827-17.067,0-23.893c3.413-3.413,7.68-5.12,11.947-5.12s8.533,1.707,11.947,5.12
				C441.987,418.987,441.987,429.227,435.16,436.053z"/>
			<path d="M505.133,409.6L351.533,256l60.587-60.587c0,0,0.001-0.001,0.001-0.001l35.839-35.839c0,0,0.001-0.001,0.001-0.001
				l52.052-52.052c14.507-14.507,14.507-38.4,0-52.907l-43.52-43.52C449.667,4.267,440.28,0,430.04,0s-19.627,4.267-26.453,11.093
				l-52.053,52.053l-35.84,35.84l-60.587,60.587L103.213,7.68c-9.387-9.387-26.453-9.387-35.84,0L6.787,68.267
				c-10.24,9.387-10.24,25.6,0,35.84l17.92,17.92l0,0c0,0,0,0,0,0l48.64,48.64c0,0,0,0,0,0s0,0,0,0l47.786,47.786c0,0,0,0,0,0
				c0,0,0,0,0.001,0.001L158.68,256L21.694,392.986c-2.554,1.127-3.931,3.43-4.667,6.374l-17.92,102.4
				c0,3.413,0.853,5.973,2.56,7.68C3.373,511.147,5.08,512,7.64,512c0.853,0,0.853,0,1.707,0l98.445-18.2
				c0.681,0.18,1.416,0.28,2.248,0.28c2.56,0,5.12-0.853,5.973-2.56l139.093-139.093l11.093,11.093c0,0,0,0,0.001,0.001
				c0,0,0.001,0.001,0.001,0.001l23.892,23.892c0,0,0,0,0.001,0.001c0,0,0.001,0.001,0.001,0.001l118.612,118.612
				c4.267,4.267,9.387,5.973,14.507,5.973s10.24-1.707,13.653-5.973l68.267-68.267C512.813,430.08,512.813,417.28,505.133,409.6z
				 M110.04,472.747l-29.858-29.858l283.716-282.898l29.449,29.449L110.04,472.747z M415.533,23.04c7.68-7.68,21.333-7.68,29.013,0
				l43.52,43.52c7.68,7.68,7.68,21.333,0,29.013l-46.08,46.08L369.453,69.12L415.533,23.04z M357.507,81.067l36.267,36.267
				L430.04,153.6l-23.893,23.893l-72.533-72.533L357.507,81.067z M163.373,236.8l18.347-18.347c3.413-3.413,3.413-8.533,0-11.947
				s-8.533-3.413-11.947,0l-18.347,18.347l-12.373-12.373l29.867-29.867c3.413-3.413,3.413-8.533,0-11.947s-8.533-3.413-11.947,0
				l-29.867,29.867l-11.947-11.947l17.92-17.92c3.413-3.413,3.413-8.533,0-11.947s-8.533-3.413-11.947,0l-17.92,17.92
				l-11.947-11.947l29.867-29.867c3.413-3.413,3.413-8.533,0-11.947s-8.533-3.413-11.947,0L79.32,152.747l-12.8-12.8l17.92-17.92
				c3.413-3.413,3.413-8.533,0-11.947s-8.533-3.413-11.947,0L54.573,128l-11.947-11.947l29.867-29.867
				c3.413-3.413,3.413-8.533,0-11.947s-8.533-3.413-11.947,0L30.68,104.107L18.733,92.16c-3.413-3.413-3.413-8.533,0-11.947
				L79.32,19.627c1.707-1.707,3.413-2.56,5.973-2.56c1.707,0,4.267,0.853,5.973,2.56L243.16,171.52l-72.533,72.533L163.373,236.8z
				 M321.667,117.76l29.858,29.858L67.809,430.516L38.36,401.067L321.667,117.76z M31.533,418.133l27.996,27.996
				c0.426,0.975,1.047,1.9,1.871,2.724l30.846,30.845l-73.512,12.674L31.533,418.133z M493.187,425.813L424.92,494.08
				c-0.853,0.853-3.413,0.853-4.267,0l-88.32-88.32l30.293-30.293c3.413-3.413,3.413-8.533,0-11.947
				c-3.413-3.413-8.533-3.413-11.947,0l-30.293,30.293l-12.373-12.373l17.92-17.92c3.413-3.413,3.413-8.533,0-11.947
				c-3.413-3.413-8.533-3.413-11.947,0l-17.92,17.92l-11.947-11.947l29.867-29.867c3.413-3.413,3.413-8.533,0-11.947
				c-3.413-3.413-8.533-3.413-11.947,0L272.173,345.6l-5.12-5.12l72.533-72.533l153.6,153.6
				C494.04,422.4,494.04,424.96,493.187,425.813z"/>
		</g>
	</g>
</g>
<g>
</g>
<g>
</g>
<g>
</g>
<g>
</g>
<g>
</g>
<g>
</g>
<g>
</g>
<g>
</g>
<g>
</g>
<g>
</g>
<g>
</g>
<g>
</g>
<g>
</g>
<g>
</g>
<g>
</g>
</svg>
