<?xml version="1.0" encoding="iso-8859-1"?>
<!-- Generator: Adobe Illustrator 19.0.0, SVG Export Plug-In . SVG Version: 6.00 Build 0)  -->
<svg version="1.1" id="Capa_1" xmlns="http://www.w3.org/2000/svg" xmlns:xlink="http://www.w3.org/1999/xlink" x="0px" y="0px"
	 viewBox="0 0 496 496" style="enable-background:new 0 0 496 496;" xml:space="preserve">
<g>
	<g>
		<path d="M485.056,152.896C474.536,135.864,421.904,56,360,56c-60.88,0-112.792,77.248-124.496,96H232v-32c0-8.824-7.176-16-16-16
			h-72c-8.824,0-16,7.176-16,16v16H61.12c-6.208,0-11.912,3.648-14.528,9.296l-45.12,97.76C0.496,245.168,0,247.424,0,249.76V376
			c0,13.232,10.768,24,24,24h50.36c6.904,23.096,28.328,40,53.64,40s46.736-16.904,53.64-40h60.72c6.904,23.096,28.328,40,53.64,40
			c20.384,0,38.2-10.984,48-27.304c9.8,16.32,27.616,27.304,48,27.304c25.312,0,46.736-16.904,53.64-40H480c8.824,0,16-7.176,16-16
			V168C496,160.952,491.392,155.024,485.056,152.896z M360,72c45.584,0,88.304,55.056,105.328,80H254.68
			C271.696,127.056,314.416,72,360,72z M72,384H24c-4.416,0-8-3.584-8-8v-8h58.36C72.84,373.072,72,378.44,72,384z M128,424
			c-22.056,0-40-17.944-40-40c0-22.056,17.944-40,40-40c22.056,0,40,17.944,40,40C168,406.056,150.056,424,128,424z M240,384h-56
			c0-5.56-0.84-10.928-2.36-16h60.72C240.84,373.072,240,378.44,240,384z M296,424c-22.056,0-40-17.944-40-40
			c0-22.056,17.944-40,40-40c22.056,0,40,17.944,40,40C336,406.056,318.056,424,296,424z M392,424c-22.056,0-40-17.944-40-40
			c0-22.056,17.944-40,40-40c22.056,0,40,17.944,40,40C432,406.056,414.056,424,392,424z M480,384h-32c0-5.56-0.84-10.928-2.36-16
			H480V384z M480,352h-42.112c-10.136-14.488-26.912-24-45.888-24c-20.384,0-38.2,10.984-48,27.304
			C334.2,338.984,316.384,328,296,328c-18.976,0-35.752,9.512-45.888,24h-76.224c-10.136-14.488-26.912-24-45.888-24
			s-35.752,9.512-45.888,24H16v-16h24v-16H16v-70.24L61.12,152H160v160h320V352z M480,296h-32v-96h-16v96h-40v-96h-16v96h-40v-96
			h-16v96h-40v-96h-16v96h-40v-96h-16v96h-32V152c0-8.824-7.176-16-16-16h-16v-16h72v48h264V296z"/>
	</g>
</g>
<g>
	<g>
		<path d="M128,168H81.584c-6.208,0-11.904,3.648-14.528,9.296L32,253.264V288c0,8.824,7.176,16,16,16h80c8.824,0,16-7.176,16-16
			V184C144,175.176,136.824,168,128,168z M128,248h-16v16h16v24H48v-24h48v-16H52.056l29.528-64H128V248z"/>
	</g>
</g>
<g>
	<g>
		<path d="M128,360c-13.232,0-24,10.768-24,24s10.768,24,24,24s24-10.768,24-24S141.232,360,128,360z M128,392c-4.416,0-8-3.584-8-8
			c0-4.416,3.584-8,8-8s8,3.584,8,8C136,388.416,132.416,392,128,392z"/>
	</g>
</g>
<g>
	<g>
		<path d="M392,360c-13.232,0-24,10.768-24,24s10.768,24,24,24s24-10.768,24-24S405.232,360,392,360z M392,392c-4.416,0-8-3.584-8-8
			c0-4.416,3.584-8,8-8c4.416,0,8,3.584,8,8C400,388.416,396.416,392,392,392z"/>
	</g>
</g>
<g>
	<g>
		<path d="M296,360c-13.232,0-24,10.768-24,24s10.768,24,24,24s24-10.768,24-24S309.232,360,296,360z M296,392c-4.416,0-8-3.584-8-8
			c0-4.416,3.584-8,8-8c4.416,0,8,3.584,8,8C304,388.416,300.416,392,296,392z"/>
	</g>
</g>
<g>
	<g>
		<rect x="384" y="88" width="16" height="16"/>
	</g>
</g>
<g>
	<g>
		<rect x="424" y="128" width="16" height="16"/>
	</g>
</g>
<g>
	<g>
		<rect x="368" y="120" width="16" height="16"/>
	</g>
</g>
<g>
	<g>
		<rect x="336" y="104" width="16" height="16"/>
	</g>
</g>
<g>
	<g>
		<rect x="296" y="120" width="16" height="16"/>
	</g>
</g>
<g>
</g>
<g>
</g>
<g>
</g>
<g>
</g>
<g>
</g>
<g>
</g>
<g>
</g>
<g>
</g>
<g>
</g>
<g>
</g>
<g>
</g>
<g>
</g>
<g>
</g>
<g>
</g>
<g>
</g>
</svg>
