<?xml version="1.0" encoding="iso-8859-1"?>
<!-- Generator: Adobe Illustrator 19.0.0, SVG Export Plug-In . SVG Version: 6.00 Build 0)  -->
<svg version="1.1" id="Capa_1" xmlns="http://www.w3.org/2000/svg" xmlns:xlink="http://www.w3.org/1999/xlink" x="0px" y="0px"
	 viewBox="0 0 482.4 482.4" style="enable-background:new 0 0 482.4 482.4;" xml:space="preserve">
<g>
	<g>
		<path d="M376,408.996h48c17.673,0,32-14.327,32-32c0-8.837,7.163-16,16-16h8v-16h-8c-17.673,0-32,14.327-32,32
			c0,8.837-7.163,16-16,16h-48c-17.673,0-32,14.327-32,32v8c0,4.418,3.582,8,8,8h128v-16H360
			C360,416.159,367.163,408.996,376,408.996z"/>
	</g>
</g>
<g>
	<g>
		<circle cx="416" cy="368.996" r="8"/>
	</g>
</g>
<g>
	<g>
		<circle cx="456" cy="320.996" r="8"/>
	</g>
</g>
<g>
	<g>
		<path d="M344,296.996c-13.255,0-24,10.745-24,24s10.745,24,24,24s24-10.745,24-24S357.255,296.996,344,296.996z M344,328.996
			c-4.418,0-8-3.582-8-8s3.582-8,8-8s8,3.582,8,8S348.418,328.996,344,328.996z"/>
	</g>
</g>
<g>
	<g>
		<path d="M128,296.996c-13.255,0-24,10.745-24,24s10.745,24,24,24s24-10.745,24-24S141.255,296.996,128,296.996z M128,328.996
			c-4.418,0-8-3.582-8-8s3.582-8,8-8s8,3.582,8,8S132.418,328.996,128,328.996z"/>
	</g>
</g>
<g>
	<g>
		<path d="M235.2,54.884v0.072l-40.672-13.552l-5.064,15.2l40.136,13.36L184,192.476v-55.48c0-4.418-3.582-8-8-8H88
			c-2.122,0-4.156,0.844-5.656,2.344l-80,80c-1.5,1.5-2.344,3.534-2.344,5.656v104c0,4.418,3.582,8,8,8h64.64
			c4.391,30.574,32.736,51.8,63.311,47.409c24.574-3.529,43.88-22.836,47.409-47.409h105.28c4.391,30.574,32.736,51.8,63.311,47.409
			c24.574-3.529,43.88-22.836,47.409-47.409H424c4.418,0,8-3.582,8-8v-46.544l32-85.336v91.88h16V146.444l2.4-6.328L235.2,54.884z
			 M16,220.308l75.312-75.312H104v88H16V220.308z M128,360.996c-22.091,0-40-17.909-40-40c0-22.091,17.909-40,40-40s40,17.909,40,40
			C167.974,343.076,150.08,360.97,128,360.996z M168,281.836l-0.232-0.216c-0.624-0.632-1.296-1.208-1.952-1.808
			c-0.656-0.6-1.328-1.264-2.04-1.848c-0.712-0.584-1.432-1.096-2.16-1.648c-0.728-0.552-1.416-1.112-2.16-1.6
			c-0.744-0.488-1.6-0.984-2.4-1.472s-1.48-0.944-2.248-1.368s-1.712-0.848-2.576-1.264c-0.864-0.416-1.544-0.8-2.344-1.128
			s-1.848-0.696-2.776-1.032c-0.8-0.288-1.6-0.624-2.4-0.88c-1.024-0.32-2.08-0.552-3.12-0.8c-0.76-0.192-1.496-0.424-2.272-0.584
			c-1.224-0.256-2.488-0.408-3.744-0.584c-0.616-0.088-1.224-0.216-1.848-0.28c-1.903-0.206-3.814-0.316-5.728-0.328
			c-1.848,0-3.68,0.104-5.48,0.28c-0.592,0.056-1.176,0.168-1.76,0.248c-1.2,0.16-2.4,0.32-3.576,0.544
			c-0.688,0.136-1.352,0.312-2.032,0.48c-1.056,0.248-2.104,0.504-3.136,0.8c-0.704,0.208-1.384,0.456-2.072,0.688
			c-0.976,0.336-1.944,0.68-2.896,1.064c-0.688,0.28-1.36,0.584-2.04,0.888c-0.92,0.416-1.824,0.848-2.712,1.312
			c-0.656,0.344-1.304,0.696-1.952,1.064c-0.872,0.496-1.728,1.016-2.568,1.6c-0.616,0.392-1.224,0.8-1.816,1.208
			c-0.8,0.584-1.64,1.2-2.448,1.832c-0.56,0.44-1.112,0.864-1.656,1.32c-0.8,0.68-1.6,1.392-2.328,2.12
			c-0.488,0.464-0.984,0.912-1.456,1.384c-0.8,0.8-1.536,1.656-2.28,2.504c-0.392,0.448-0.8,0.872-1.176,1.336
			c-0.904,1.104-1.744,2.256-2.56,3.424c-0.168,0.24-0.36,0.464-0.52,0.712c-0.971,1.435-1.872,2.917-2.704,4.448
			c-0.208,0.384-0.384,0.8-0.592,1.192c-0.592,1.144-1.168,2.304-1.688,3.496c-0.256,0.584-0.464,1.192-0.696,1.792
			c-0.4,1.032-0.8,2.056-1.144,3.112c-0.224,0.68-0.4,1.384-0.6,2.08c-0.28,1.008-0.56,2.016-0.8,3.048
			c-0.16,0.744-0.296,1.488-0.424,2.24c-0.112,0.616-0.264,1.216-0.352,1.832H16v-64.048h96c4.418,0,8-3.582,8-8v-96h48V281.836z
			 M184,199.644l191.728,65.352H184V199.644z M298.536,288.428c-1.53,2.12-2.909,4.344-4.128,6.656
			c-0.208,0.392-0.376,0.8-0.576,1.192c-1.159,2.327-2.154,4.733-2.976,7.2c-0.072,0.208-0.16,0.408-0.224,0.624
			c-0.812,2.617-1.43,5.291-1.848,8c-0.048,0.304-0.16,0.584-0.208,0.888H184v-31.992h120.84c-0.056,0.056-0.096,0.12-0.152,0.176
			c-1.862,1.861-3.591,3.85-5.176,5.952C299.184,287.556,298.856,287.988,298.536,288.428z M344,360.996c-22.091,0-40-17.909-40-40
			c0-22.091,17.909-40,40-40c22.091,0,40,17.909,40,40C383.974,343.076,366.08,360.97,344,360.996z M416,312.996h-16.568
			c-0.04-0.304-0.152-0.584-0.208-0.888c-0.418-2.709-1.036-5.383-1.848-8c-0.072-0.216-0.16-0.416-0.232-0.632
			c-0.82-2.466-1.812-4.872-2.968-7.2c-0.2-0.4-0.368-0.8-0.576-1.2c-1.219-2.312-2.598-4.536-4.128-6.656
			c-0.32-0.44-0.648-0.872-0.976-1.312c-1.584-2.102-3.314-4.091-5.176-5.952c-0.056-0.056-0.096-0.12-0.152-0.176H416V312.996z
			 M419.2,262.916l-216.8-73.92L244.8,75.1l216.8,74.776L419.2,262.916z"/>
	</g>
</g>
<g>
</g>
<g>
</g>
<g>
</g>
<g>
</g>
<g>
</g>
<g>
</g>
<g>
</g>
<g>
</g>
<g>
</g>
<g>
</g>
<g>
</g>
<g>
</g>
<g>
</g>
<g>
</g>
<g>
</g>
</svg>
