<?xml version="1.0" encoding="iso-8859-1"?>
<!-- Generator: Adobe Illustrator 19.0.0, SVG Export Plug-In . SVG Version: 6.00 Build 0)  -->
<svg version="1.1" id="Capa_1" xmlns="http://www.w3.org/2000/svg" xmlns:xlink="http://www.w3.org/1999/xlink" x="0px" y="0px"
	 viewBox="0 0 511.998 511.998" style="enable-background:new 0 0 511.998 511.998;" xml:space="preserve">
<g>
	<g>
		<path d="M263.541,3.123c-4.165-4.164-10.917-4.164-15.083,0c-7.531,7.541-184.459,185.963-184.459,316.875
			c0.123,105.988,86.013,191.877,192,192c105.988-0.123,191.877-86.012,192-192C448,189.086,271.072,10.664,263.541,3.123z
			 M256,490.664c-94.257,0-170.667-76.41-170.667-170.667C85.333,212.52,222.048,61.778,256,26.013
			c33.952,35.744,170.667,186.443,170.667,293.984C426.667,414.254,350.256,490.664,256,490.664z"/>
	</g>
</g>
<g>
	<g>
		<path d="M149.333,319.998H128c0.076,70.661,57.339,127.924,128,128v-21.333C197.116,426.6,149.398,378.881,149.333,319.998z"/>
	</g>
</g>
<g>
</g>
<g>
</g>
<g>
</g>
<g>
</g>
<g>
</g>
<g>
</g>
<g>
</g>
<g>
</g>
<g>
</g>
<g>
</g>
<g>
</g>
<g>
</g>
<g>
</g>
<g>
</g>
<g>
</g>
</svg>
