<?xml version="1.0" encoding="iso-8859-1"?>
<!-- Generator: Adobe Illustrator 19.0.0, SVG Export Plug-In . SVG Version: 6.00 Build 0)  -->
<svg version="1.1" id="Capa_1" xmlns="http://www.w3.org/2000/svg" xmlns:xlink="http://www.w3.org/1999/xlink" x="0px" y="0px"
	 viewBox="0 0 480 480" style="enable-background:new 0 0 480 480;" xml:space="preserve">
<g>
	<g>
		<path d="M472,0H200c-4.418,0-8,3.582-8,8v8h-16V8c0-4.418-3.582-8-8-8h-32c-4.418,0-8,3.582-8,8v8H80
			c-2.122,0-4.156,0.844-5.656,2.344l-24,24C48.844,43.844,48,45.878,48,48v8H0v16h48v8c0,2.122,0.844,4.156,2.344,5.656l24,24
			c1.5,1.5,3.534,2.344,5.656,2.344h48v8c0,4.418,3.582,8,8,8h32c4.418,0,8-3.582,8-8v-8h16v8c0,4.418,3.582,8,8,8h36.688
			l45.656,45.656c1.5,1.5,3.534,2.344,5.656,2.344h24v48c0,2.122,0.844,4.156,2.344,5.656l16,16c1.5,1.5,3.534,2.344,5.656,2.344h8
			v100.688l-21.656,21.656c-1.5,1.5-2.344,3.534-2.344,5.656v48c0,13.255,10.745,24,24,24s24-10.745,24-24v-8h16v56
			c0,4.418,3.582,8,8,8h32c4.418,0,8-3.582,8-8v-56h24c4.418,0,8-3.582,8-8V176h8c4.418,0,8-3.582,8-8V8C480,3.582,476.418,0,472,0z
			 M128,96H83.312L64,76.688V51.312L83.312,32H128V96z M160,112h-16V16h16V112z M192,96h-16V32h16V96z M339.312,232L328,220.688V176
			h16v56H339.312z M352,424c0,4.418-3.582,8-8,8s-8-3.582-8-8v-8h16V424z M416,464h-16v-48h16V464z M448,400H336v-20.688
			l21.656-21.656c1.5-1.5,2.344-3.534,2.344-5.656V176h88V400z M464,160H291.312l-45.656-45.656c-1.5-1.5-3.534-2.344-5.656-2.344
			h-32V16h256V160z"/>
	</g>
</g>
<g>
	<g>
		<path d="M404,232c-15.464,0-28,12.536-28,28c0,15.464,12.536,28,28,28c15.464,0,28-12.536,28-28C432,244.536,419.464,232,404,232z
			 M404,272c-6.627,0-12-5.373-12-12c0-6.627,5.373-12,12-12c6.627,0,12,5.373,12,12C416,266.627,410.627,272,404,272z"/>
	</g>
</g>
<g>
	<g>
		<rect x="400" y="32" width="48" height="16"/>
	</g>
</g>
<g>
	<g>
		<rect x="400" y="64" width="48" height="16"/>
	</g>
</g>
<g>
	<g>
		<rect x="400" y="96" width="48" height="16"/>
	</g>
</g>
<g>
	<g>
		<rect x="400" y="128" width="48" height="16"/>
	</g>
</g>
<g>
	<g>
		<rect x="264" y="32" width="32" height="16"/>
	</g>
</g>
<g>
	<g>
		<rect x="264" y="64" width="32" height="16"/>
	</g>
</g>
<g>
	<g>
		<rect x="264" y="96" width="32" height="16"/>
	</g>
</g>
<g>
	<g>
		<path d="M376,96h-56c-4.418,0-8,3.582-8,8v32c0,4.418,3.582,8,8,8h56c4.418,0,8-3.582,8-8v-32C384,99.582,380.418,96,376,96z
			 M368,128h-40v-16h40V128z"/>
	</g>
</g>
<g>
</g>
<g>
</g>
<g>
</g>
<g>
</g>
<g>
</g>
<g>
</g>
<g>
</g>
<g>
</g>
<g>
</g>
<g>
</g>
<g>
</g>
<g>
</g>
<g>
</g>
<g>
</g>
<g>
</g>
</svg>
