<?xml version="1.0" encoding="iso-8859-1"?>
<!-- Generator: Adobe Illustrator 19.0.0, SVG Export Plug-In . SVG Version: 6.00 Build 0)  -->
<svg version="1.1" id="Capa_1" xmlns="http://www.w3.org/2000/svg" xmlns:xlink="http://www.w3.org/1999/xlink" x="0px" y="0px"
	 viewBox="0 0 480 480" style="enable-background:new 0 0 480 480;" xml:space="preserve">
<g>
	<g>
		<path d="M472,384h-40v-8c0-4.418-3.582-8-8-8h-32c-4.418,0-8,3.582-8,8v8h-88c-4.418,0-8-3.582-8-8v-56h8c4.418,0,8-3.582,8-8v-8
			h56c4.418,0,8-3.582,8-8v-80c0-13.255-10.745-24-24-24s-24,10.745-24,24v72h-16v-8c0-4.418-3.582-8-8-8h-8v-56
			c0-4.418-3.582-8-8-8h-8v-88C272,53.726,218.274,0,152,0S32,53.726,32,120v24c0,4.418,3.582,8,8,8h32c4.418,0,8-3.582,8-8v-24
			c0-39.765,32.236-72,72-72c39.765,0,72,32.235,72,72v88h-8c-4.418,0-8,3.582-8,8v56h-8c-4.418,0-8,3.582-8,8v32
			c0,4.418,3.582,8,8,8h8v88c0.035,30.913,25.087,55.965,56,56h120v8c0,4.418,3.582,8,8,8h32c4.418,0,8-3.582,8-8v-8h40
			c4.418,0,8-3.582,8-8v-64C480,387.582,476.418,384,472,384z M336,216c0-4.418,3.582-8,8-8s8,3.582,8,8v72h-16V216z M152,32
			c-48.579,0.053-87.947,39.421-88,88v16H48v-16C48,62.562,94.563,16,152,16s104,46.562,104,104v88h-16v-88
			C239.947,71.421,200.579,32.053,152,32z M224,224h48v48h-48V224z M208,288h80v16h-80V288z M384,448H264
			c-22.08-0.026-39.974-17.92-40-40v-88h48v56c0,13.255,10.745,24,24,24h88V448z M416,464h-16v-80h16V464z M464,448h-32v-48h32V448z
			"/>
	</g>
</g>
<g>
	<g>
		<path d="M95.6,204.28l-33.944-33.936c-3.124-3.123-8.188-3.123-11.312,0L16.4,204.288C5.866,214.766-0.039,229.022,0,243.88V248
			c0,30.928,25.072,56,56,56c30.928,0,56-25.072,56-56v-4.12C112.042,229.02,106.136,214.76,95.6,204.28z M96,248
			c0,22.091-17.909,40-40,40s-40-17.909-40-40v-4.12c-0.028-10.612,4.189-20.795,11.712-28.28L56,187.312L84.288,215.6
			c7.523,7.485,11.74,17.668,11.712,28.28V248z"/>
	</g>
</g>
<g>
</g>
<g>
</g>
<g>
</g>
<g>
</g>
<g>
</g>
<g>
</g>
<g>
</g>
<g>
</g>
<g>
</g>
<g>
</g>
<g>
</g>
<g>
</g>
<g>
</g>
<g>
</g>
<g>
</g>
</svg>
