<?xml version="1.0" encoding="iso-8859-1"?>
<!-- Generator: Adobe Illustrator 18.0.0, SVG Export Plug-In . SVG Version: 6.00 Build 0)  -->
<!DOCTYPE svg PUBLIC "-//W3C//DTD SVG 1.1//EN" "http://www.w3.org/Graphics/SVG/1.1/DTD/svg11.dtd">
<svg version="1.1" id="Capa_1" xmlns="http://www.w3.org/2000/svg" xmlns:xlink="http://www.w3.org/1999/xlink" x="0px" y="0px"
	 viewBox="0 0 437.592 437.592" style="enable-background:new 0 0 437.592 437.592;" xml:space="preserve">
<g>
	<path d="M161.109,396.118c0.333,0,0.671-0.034,1.01-0.103c35.866-7.359,61.897-39.286,61.897-75.917c0-2.761-2.238-5-5-5
		s-5,2.239-5,5c0,31.904-22.671,59.712-53.907,66.121c-2.705,0.555-4.448,3.198-3.894,5.903
		C156.702,394.488,158.784,396.118,161.109,396.118z"/>
	<path d="M215.43,251.189c-1.951-1.952-5.119-1.952-7.07,0c-1.953,1.953-1.953,5.119,0,7.071
		c16.545,16.545,25.657,38.506,25.657,61.837c0,48.245-39.25,87.495-87.494,87.495c-24.07,0-47.344-10.111-63.853-27.74
		c-1.888-2.016-5.051-2.121-7.067-0.232c-2.016,1.887-2.119,5.051-0.231,7.067c18.393,19.641,44.326,30.905,71.151,30.905
		c53.759,0,97.494-43.736,97.494-97.495C244.016,294.095,233.864,269.623,215.43,251.189z"/>
	<path d="M197.27,214.105v-46.531c8.62-0.387,15.519-7.5,15.519-16.214c0-8.961-7.29-16.251-16.251-16.251H96.503
		c-8.961,0-16.251,7.29-16.251,16.251c0,8.714,6.899,15.827,15.519,16.214v46.532c-40.653,19.491-66.742,60.737-66.742,105.991
		c0,64.787,52.708,117.495,117.494,117.495s117.494-52.708,117.494-117.495C264.017,274.843,237.924,233.595,197.27,214.105z
		 M90.252,151.361c0-3.447,2.804-6.251,6.251-6.251h100.035c3.447,0,6.251,2.804,6.251,6.251s-2.804,6.251-6.251,6.251H96.503
		C93.056,157.612,90.252,154.808,90.252,151.361z M146.522,427.592c-59.272,0-107.494-48.222-107.494-107.495
		c0-42.402,25.035-80.959,63.78-98.229c1.876-0.836,3.02-2.713,2.962-4.708v-49.549h81.5v49.689c0,1.974,1.161,3.763,2.965,4.567
		c38.745,17.27,63.781,55.827,63.781,98.229C254.016,379.371,205.795,427.592,146.522,427.592z"/>
	<path d="M150.967,32.502h5.804v95.4c0,2.761,2.238,5,5,5s5-2.239,5-5v-95.4h103v20c0,2.761,2.238,5,5,5s5-2.239,5-5v-20h5.804
		c8.961,0,16.251-7.29,16.251-16.251S294.535,0,285.574,0H150.967c-8.961,0-16.251,7.29-16.251,16.251
		S142.006,32.502,150.967,32.502z M150.967,10h134.607c3.447,0,6.251,2.804,6.251,6.251s-2.804,6.251-6.251,6.251H150.967
		c-3.447,0-6.251-2.804-6.251-6.251S147.519,10,150.967,10z"/>
	<path d="M406.127,363.51l-72.829-186.159V91.916h2.635c8.961,0,16.251-7.29,16.251-16.251s-7.29-16.251-16.251-16.251h-83.642
		c-8.961,0-16.251,7.29-16.251,16.251s7.29,16.251,16.251,16.251h2.635v85.429l-20.191,51.594c-1.006,2.572,0.263,5.472,2.834,6.479
		c2.57,1.006,5.472-0.263,6.479-2.834l19.286-49.282h61.555l71.928,183.854c3.104,7.923,2.133,16.498-2.663,23.527
		c-4.799,7.035-12.436,11.069-20.952,11.069H245.77c-2.762,0-5,2.239-5,5s2.238,5,5,5H373.2c11.699,0,22.62-5.77,29.213-15.434
		C409.003,386.66,410.391,374.394,406.127,363.51z M246.04,75.665c0-3.447,2.804-6.251,6.251-6.251h83.642
		c3.447,0,6.251,2.804,6.251,6.251s-2.804,6.251-6.251,6.251h-83.642C248.844,81.916,246.04,79.112,246.04,75.665z M323.298,91.916
		v81.386h-58.372V91.916H323.298z"/>
	<path d="M323.2,233.877l54.994,140.561c0.772,1.973,2.659,3.18,4.657,3.18c0.606,0,1.223-0.111,1.82-0.345
		c2.572-1.006,3.841-3.906,2.835-6.478l-54.994-140.561c-1.007-2.572-3.911-3.841-6.478-2.834
		C323.463,228.405,322.194,231.305,323.2,233.877z"/>
	<path d="M323.012,205.951c-1.008-2.572-3.907-3.839-6.479-2.834c-2.571,1.006-3.84,3.907-2.834,6.479l3.925,10.03
		c0.772,1.973,2.659,3.179,4.657,3.179c0.606,0,1.223-0.111,1.821-0.345c2.571-1.006,3.84-3.907,2.834-6.479L323.012,205.951z"/>
	<path d="M311.757,259.521L349.7,356.5c0.772,1.973,2.659,3.18,4.657,3.18c0.606,0,1.223-0.111,1.821-0.345
		c2.571-1.006,3.84-3.906,2.834-6.478l-37.943-96.979c-1.007-2.572-3.907-3.841-6.479-2.834
		C312.019,254.049,310.751,256.95,311.757,259.521z"/>
	<path d="M313.27,167.002c2.762,0,5-2.239,5-5v-60c0-2.761-2.238-5-5-5s-5,2.239-5,5v60
		C308.27,164.763,310.509,167.002,313.27,167.002z"/>
	<path d="M173.27,49.502v45c0,2.761,2.238,5,5,5s5-2.239,5-5v-45c0-2.761-2.238-5-5-5S173.27,46.741,173.27,49.502z"/>
	<path d="M175.77,211.342c2.762,0,5-2.239,5-5v-29c0-2.761-2.238-5-5-5s-5,2.239-5,5v29
		C170.77,209.103,173.009,211.342,175.77,211.342z"/>
	<path d="M114.77,211.342c2.762,0,5-2.239,5-5v-9c0-2.761-2.238-5-5-5s-5,2.239-5,5v9
		C109.77,209.103,112.009,211.342,114.77,211.342z"/>
	<path d="M114.772,187.845c1.31,0,2.6-0.54,3.53-1.47c0.939-0.93,1.47-2.22,1.47-3.53c0-1.32-0.53-2.61-1.47-3.54
		c-0.931-0.93-2.21-1.46-3.53-1.46s-2.61,0.53-3.54,1.46c-0.93,0.93-1.46,2.22-1.46,3.54c0,1.32,0.53,2.6,1.46,3.53
		C112.162,187.305,113.452,187.845,114.772,187.845z"/>
</g>
<g>
</g>
<g>
</g>
<g>
</g>
<g>
</g>
<g>
</g>
<g>
</g>
<g>
</g>
<g>
</g>
<g>
</g>
<g>
</g>
<g>
</g>
<g>
</g>
<g>
</g>
<g>
</g>
<g>
</g>
</svg>
