<?xml version="1.0" encoding="iso-8859-1"?>
<!-- Generator: Adobe Illustrator 19.0.0, SVG Export Plug-In . SVG Version: 6.00 Build 0)  -->
<svg version="1.1" id="Capa_1" xmlns="http://www.w3.org/2000/svg" xmlns:xlink="http://www.w3.org/1999/xlink" x="0px" y="0px"
	 viewBox="0 0 512 512" style="enable-background:new 0 0 512 512;" xml:space="preserve">
<g>
	<g>
		<path d="M489.538,66.537h-17.51V23.134c0-12.386-10.077-22.462-22.462-22.462h-69.302c-4.136,0-7.487,3.352-7.487,7.487
			s3.351,7.487,7.487,7.487h69.302c4.129,0,7.487,3.358,7.487,7.487v101.779c0,4.129-3.358,7.487-7.487,7.487H184.167
			c-4.136,0-7.487,3.352-7.487,7.487c0,0.061,0.008,0.12,0.009,0.181c-0.001,0.061-0.009,0.12-0.009,0.181
			c0,4.135,3.351,7.487,7.487,7.487h18.028v94.623c0,9.439-7.679,17.119-17.119,17.119s-17.119-7.68-17.119-17.119v-17.145
			c0-16.452-13.384-29.838-29.838-29.838c-16.452,0-29.839,13.385-29.839,29.838v35.546c0,9.009-7.33,16.338-16.339,16.338
			c-9.009,0-16.337-7.33-16.337-16.338V147.737h78.615c4.136,0,7.487-3.352,7.487-7.487c0-0.064-0.008-0.127-0.01-0.191
			c0.001-0.057,0.009-0.113,0.009-0.171c0-4.135-3.351-7.487-7.487-7.487H47.73c-4.129,0-7.487-3.358-7.487-7.487V23.134
			c0-4.129,3.358-7.487,7.487-7.487h302.585c4.136,0,7.487-3.352,7.487-7.487s-3.351-7.487-7.487-7.487H47.73
			c-12.385,0-22.462,10.076-22.462,22.462v10.437H7.487C3.351,33.571,0,36.924,0,41.059v65.93c0,4.135,3.351,7.487,7.487,7.487
			h17.779v10.437c0,12.386,10.077,22.462,22.462,22.462h12.899v113.386c0,17.266,14.047,31.313,31.313,31.313
			c17.266,0,31.312-14.047,31.312-31.313v-35.546c0-8.195,6.668-14.863,14.864-14.863c8.195,0,14.863,6.668,14.863,14.863v17.145
			c0,17.696,14.398,32.094,32.094,32.094c17.697,0,32.094-14.398,32.094-32.094v-94.985h232.396
			c12.385,0,22.462-10.076,22.462-22.462V81.512h17.51c4.129,0,7.487,3.359,7.487,7.487v85.752c0,3.799-2.845,6.996-6.619,7.436
			l-222.024,25.927c-11.32,1.322-19.857,10.914-19.857,22.31v75.262h-23.211c-4.136,0-7.487,3.352-7.487,7.487v56.528
			c0,4.135,3.351,7.487,7.487,7.487s7.487-3.352,7.487-7.487v-49.04h47.937v151.723c0,13.216-10.753,23.968-23.969,23.968
			c-13.216,0-23.969-10.752-23.969-23.968v-72.734c0-4.135-3.351-7.487-7.487-7.487s-7.487,3.352-7.487,7.487v72.734
			c0,21.473,17.47,38.942,38.943,38.942s38.943-17.47,38.943-38.942V313.175c0-4.135-3.351-7.487-7.487-7.487h-24.725v-75.262
			c0-3.799,2.846-6.996,6.619-7.436l222.024-25.927c11.32-1.322,19.857-10.914,19.857-22.31V88.999
			C512,76.613,501.924,66.537,489.538,66.537z M25.266,99.502H14.975V48.546h10.292V99.502z"/>
	</g>
</g>
<g>
	<g>
		<path d="M409.081,379.917l-18.22-8.166c-5.876-2.634-10.562-7.321-13.197-13.196l-8.166-18.22
			c-1.206-2.692-3.882-4.426-6.832-4.426s-5.626,1.733-6.833,4.425l-8.168,18.221c-2.633,5.876-7.319,10.562-13.195,13.196
			l-18.22,8.166c-2.692,1.207-4.426,3.882-4.426,6.832s1.732,5.626,4.426,6.832l18.22,8.166c5.876,2.634,10.562,7.32,13.196,13.197
			l8.167,18.22c1.207,2.692,3.882,4.425,6.832,4.425s5.627-1.733,6.832-4.426l8.166-18.22c2.635-5.876,7.321-10.563,13.197-13.196
			l18.22-8.166c2.692-1.207,4.426-3.882,4.426-6.832S411.774,381.124,409.081,379.917z M384.737,388.082
			c-9.233,4.139-16.598,11.503-20.737,20.737l-1.334,2.976l-1.334-2.975c-4.138-9.233-11.503-16.598-20.737-20.737l-2.975-1.333
			l2.975-1.334c9.234-4.139,16.599-11.504,20.736-20.736l1.335-2.977l1.334,2.976c4.139,9.234,11.504,16.598,20.737,20.737
			l2.975,1.334L384.737,388.082z"/>
	</g>
</g>
<g>
	<g>
		<path d="M506.962,259.117l-18.22-8.166c-5.876-2.634-10.562-7.32-13.197-13.196l-8.166-18.22
			c-1.206-2.692-3.882-4.426-6.832-4.426s-5.627,1.733-6.832,4.426l-8.166,18.22c-2.635,5.876-7.321,10.562-13.197,13.196
			l-18.22,8.166c-2.692,1.207-4.426,3.882-4.426,6.832s1.732,5.625,4.426,6.832l18.22,8.166c5.876,2.634,10.562,7.32,13.197,13.196
			l8.166,18.22c1.206,2.692,3.882,4.426,6.832,4.426s5.627-1.733,6.832-4.426l8.166-18.22c2.635-5.876,7.321-10.563,13.197-13.196
			l18.22-8.166c2.692-1.207,4.426-3.882,4.426-6.832C511.387,263,509.655,260.324,506.962,259.117z M482.618,267.283
			c-9.233,4.139-16.598,11.503-20.737,20.737l-1.334,2.975l-1.334-2.975c-4.139-9.234-11.503-16.598-20.737-20.737l-2.975-1.333
			l2.975-1.334c9.233-4.139,16.598-11.504,20.737-20.736l1.334-2.975l1.334,2.975c4.139,9.233,11.504,16.598,20.737,20.736
			l2.975,1.334L482.618,267.283z"/>
	</g>
</g>
<g>
	<g>
		<path d="M97.345,304.875c-1.422-1.639-3.485-2.581-5.655-2.581s-4.234,0.941-5.655,2.581
			c-4.379,5.047-42.772,50.021-42.772,74.713c0,26.703,21.724,48.427,48.427,48.427s48.428-21.724,48.428-48.427
			C140.118,354.896,101.724,309.922,97.345,304.875z M91.689,413.041c-18.446,0-33.453-15.007-33.453-33.453
			c0-12.72,18.673-39.939,33.455-58.149c14.781,18.201,33.452,45.412,33.452,58.149C125.143,398.035,110.135,413.041,91.689,413.041
			z"/>
	</g>
</g>
<g>
</g>
<g>
</g>
<g>
</g>
<g>
</g>
<g>
</g>
<g>
</g>
<g>
</g>
<g>
</g>
<g>
</g>
<g>
</g>
<g>
</g>
<g>
</g>
<g>
</g>
<g>
</g>
<g>
</g>
</svg>
