<?xml version="1.0" encoding="iso-8859-1"?>
<!-- Generator: Adobe Illustrator 19.0.0, SVG Export Plug-In . SVG Version: 6.00 Build 0)  -->
<svg version="1.1" id="Capa_1" xmlns="http://www.w3.org/2000/svg" xmlns:xlink="http://www.w3.org/1999/xlink" x="0px" y="0px"
	 viewBox="0 0 480 480" style="enable-background:new 0 0 480 480;" xml:space="preserve">
<g>
	<g>
		<path d="M152,152c-48.579,0.053-87.947,39.421-88,88c0,48.601,39.399,88,88,88s88-39.399,88-88C240,191.399,200.601,152,152,152z
			 M152,312c-39.764,0-72-32.236-72-72c0-39.765,32.235-72,72-72c39.746,0.044,71.956,32.254,72,72C224,279.764,191.765,312,152,312
			z"/>
	</g>
</g>
<g>
	<g>
		<path d="M464,328H304v-80h32v-8c0.132-48.826-19.272-95.677-53.888-130.112l-5.656-5.656L253.504,127.2
			C227.721,103.906,194.7,90.207,160,88.408V88h-8C68.053,88,0,156.053,0,240s68.053,152,152,152h112
			c12.523-0.039,24.299-5.965,31.792-16H464v16h16v-64H464z M160,136v-31.592c61.281,3.645,112.543,47.85,125.16,107.928h-0.04
			c0,0.104,0.056,0.208,0.08,0.312c0.8,3.792,1.32,7.664,1.768,11.568c0.08,0.672,0.232,1.328,0.296,2
			c0.192,1.904,0.184,3.856,0.296,5.784H256v8c0,57.438-46.562,104-104,104S48,297.438,48,240s46.562-104,104-104H160z M288,352
			c0,13.255-10.745,24-24,24H152c-75.076-0.084-135.916-60.924-136-136c0-4.608,0.24-9.16,0.688-13.648
			c0.152-1.496,0.456-2.944,0.656-4.424c0.4-2.96,0.8-5.936,1.352-8.8c0.352-1.752,0.864-3.44,1.28-5.168
			c0.624-2.56,1.208-5.136,1.968-7.64c0.56-1.816,1.256-3.568,1.888-5.352c0.8-2.328,1.6-4.672,2.544-6.944
			c0.744-1.8,1.6-3.528,2.448-5.288c1.008-2.16,1.984-4.336,3.104-6.4c0.928-1.744,1.976-3.416,2.976-5.112
			c1.184-2,2.344-4,3.624-5.96c1.104-1.672,2.312-3.256,3.48-4.872c1.344-1.848,2.672-3.712,4.104-5.488
			c1.264-1.6,2.616-3.064,3.944-4.568c1.496-1.696,2.984-3.392,4.56-5.016c1.416-1.456,2.904-2.832,4.384-4.224
			c1.6-1.536,3.272-3.072,4.984-4.528c1.552-1.32,3.2-2.576,4.8-3.824c1.768-1.368,3.536-2.736,5.368-4
			c1.68-1.176,3.416-2.288,5.152-3.392c1.888-1.2,3.784-2.4,5.736-3.488c1.792-1.024,3.624-1.976,5.472-2.912
			c2-1.016,4-2.008,6.072-2.928c1.896-0.848,3.832-1.648,5.768-2.4c2.104-0.8,4.224-1.6,6.4-2.336c1.989-0.672,4-1.296,6.032-1.872
			c2.197-0.629,4.413-1.2,6.648-1.712c2.064-0.475,4.144-0.907,6.24-1.296c2.288-0.416,4.592-0.76,6.912-1.056
			c2.128-0.272,4.264-0.512,6.4-0.688c1-0.08,2.016-0.096,3.016-0.152v15.864c-66.127,4.416-116.154,61.602-111.738,127.729
			s61.602,116.154,127.729,111.738c60.014-4.008,107.79-51.825,111.745-111.843H288V352z M303.376,227.36
			c-0.136-1.68-0.28-3.352-0.472-5.016c-0.4-3.488-0.952-6.936-1.6-10.36c-0.216-1.176-0.392-2.36-0.64-3.52
			c-2.998-14.257-8.057-28.001-15.016-40.8l-0.104-0.176c-2.208-4.056-4.624-8-7.2-11.864c-0.312-0.464-0.64-0.92-0.96-1.384
			c-2.32-3.376-4.779-6.661-7.376-9.856c-0.544-0.672-1.096-1.328-1.648-1.992c-1.128-1.344-2.176-2.744-3.36-4.056l11.32-11.344
			c26.358,28.823,41.753,65.989,43.496,105.008h-16C303.736,230.44,303.504,228.912,303.376,227.36z M464,360H304v-16h160V360z"/>
	</g>
</g>
<g>
	<g>
		<path d="M96,216v48h112v-48H96z M192,248h-80v-16h80V248z"/>
	</g>
</g>
<g>
	<g>
		<rect x="128" y="184" width="48" height="16"/>
	</g>
</g>
<g>
	<g>
		<rect x="128" y="280" width="48" height="16"/>
	</g>
</g>
<g>
</g>
<g>
</g>
<g>
</g>
<g>
</g>
<g>
</g>
<g>
</g>
<g>
</g>
<g>
</g>
<g>
</g>
<g>
</g>
<g>
</g>
<g>
</g>
<g>
</g>
<g>
</g>
<g>
</g>
</svg>
