<svg viewBox="-80 0 512 512" xmlns="http://www.w3.org/2000/svg"><path d="m4.222656 303.363281c2.574219 4.457031 7.945313 6.410157 12.792969 4.617188l94.34375-34.910157c.570313-.210937 1.195313-.535156 1.695313-.886718l41.011718-28.695313v223.445313h-96.09375c-11.394531 0-22.125 8.835937-22.125 22.941406 0 12.199219 9.925782 22.125 22.125 22.125h101.125c4.144532 0 7.5-3.355469 7.5-7.5s-3.355468-7.5-7.5-7.5h-101.125c-9.53125 0-9.492187-15.0625 0-15.0625h237.253906c9.53125 0 9.492188 15.0625 0 15.0625h-101.125c-4.144531 0-7.5 3.355469-7.5 7.5s3.355469 7.5 7.5 7.5h101.125c11.394532 0 22.125-8.832031 22.125-22.9375 0-12.203125-9.925781-22.128906-22.125-22.128906h-96.09375c0-32.300782 0-110.441406 0-148.109375 0-4.144531-3.359374-7.503907-7.503906-7.503907-4.140625 0-7.5 3.359376-7.5 7.503907v43.296875h-15.0625v-129.125l2.5-1.75c3.234375.554687 6.511719.601562 9.988282.015625l2.574218 1.804687v50.753906c0 4.144532 3.355469 7.5 7.5 7.5 4.144532 0 7.5-3.355468 7.5-7.5v-40.238281l41.035156 28.761719c.554688.394531 1.167969.695312 1.703126.894531l94.410156 34.933594c4.804687 1.777344 10.128906-.15625 12.683594-4.574219l2.816406-4.875c2.578125-4.46875 1.570312-10.097656-2.398438-13.386718l-77.402344-64.25c-.46875-.386719-1.171874-.820313-1.617187-1.027344l-67.34375-31.4375c-.789063-1.546875-1.703125-3.019532-2.742187-4.394532l6.546874-74.378906c.046876-.5.015626-1.378906-.078124-1.921875l-16.953126-99.230469c-.859374-5.039062-5.191406-8.695312-10.304687-8.695312h-5.628906c-5.152344 0-9.523438 3.6875-10.394531 8.769531l-16.941407 99.15625c-.09375.546875-.121093 1.40625-.078125 1.914063l6.480469 74.390625c-1.015625 1.347656-1.910156 2.78125-2.6875 4.289062l-67.363281 31.371094c-.539063.25-1.21875.691406-1.625 1.027344l-77.460938 64.296875c-3.933594 3.265625-4.933594 8.84375-2.378906 13.273437zm162.859375-129.410156-4.984375-57.261719h29.0625l-5.039062 57.261719c-5.882813-1.992187-12.792969-2.117187-19.039063 0zm38.824219 32.574219 50.695312 23.660156-14.53125 25.171875-45.175781-31.664063c5.160157-4.824218 8.125-11.257812 9.011719-17.167968zm-29.308594-19.128906c8.050782 0 14.644532 6.589843 14.644532 14.640624 0 8.714844-7.496094 15.089844-15.527344 14.597657-6.339844-.378907-11.363282-4.6875-13.097656-10.246094 0 0 0 0 0-.003906-2.957032-9.476563 4.273437-18.988281 13.980468-18.988281zm7.53125 189.722656v89.816406h-15.0625v-89.816406zm71.28125-114.867188 13.828125-23.949218 63.179688 52.441406zm-78.777344-241.503906 13.828126 80.941406h-27.65625zm-29.351562 185.695312c.867188 6.132813 3.980469 12.511719 8.980469 17.203126l-45.101563 31.554687c-8.070312-13.984375-6.113281-10.585937-14.53125-25.171875zm-63.292969 31.691407c5.160157 8.9375 8.671875 15.023437 13.824219 23.949219l-77.007812 28.496093zm0 0"/></svg>