<?xml version="1.0" encoding="iso-8859-1"?>
<!-- Generator: Adobe Illustrator 19.0.0, SVG Export Plug-In . SVG Version: 6.00 Build 0)  -->
<svg version="1.1" id="Capa_1" xmlns="http://www.w3.org/2000/svg" xmlns:xlink="http://www.w3.org/1999/xlink" x="0px" y="0px"
	 viewBox="0 0 480 480" style="enable-background:new 0 0 480 480;" xml:space="preserve">
<g>
	<g>
		<path d="M416,7.999v104H176v48h-48v48H80v48H32v64h448v-312H416z M288,127.999h80v32h-80V127.999z M320,207.999h-80v-32h80
			V207.999z M368,223.999v32h-80v-32H368z M272,223.999v32h-80v-32H272z M192,127.999h80v32h-80V127.999z M144,175.999h80v32h-80
			V175.999z M96,223.999h80v32H96V223.999z M128,303.999H48v-32h80V303.999z M224,303.999h-80v-32h80V303.999z M320,303.999h-80v-32
			h80V303.999z M416,303.999h-80v-32h80V303.999z M416,255.999h-32v-32h32V255.999z M416,207.999h-80v-32h80V207.999z M416,159.999
			h-32v-32h32V159.999z M464,303.999h-32v-280h32V303.999z"/>
	</g>
</g>
<g>
	<g>
		<path d="M176,423.999v-40h-32v-40H64v40H32v40H0v56h208v-56H176z M160,399.999v24h-48v-24H160z M80,359.999h48v24H80V359.999z
			 M48,399.999h48v24H48V399.999z M64,463.999H16v-24h48V463.999z M128,463.999H80v-24h48V463.999z M192,463.999h-48v-24h48V463.999
			z"/>
	</g>
</g>
<g>
	<g>
		<path d="M224,423.999v56h80v-56H224z M288,463.999h-48v-24h48V463.999z"/>
	</g>
</g>
<g>
	<g>
		<path d="M0,127.999v64h112v-64H0z M96,175.999H16v-32h80V175.999z"/>
	</g>
</g>
<g>
	<g>
		<path d="M271.155,44.426c-0.774-1.549-2.03-2.805-3.579-3.579l-80-40c-3.952-1.975-8.757-0.372-10.732,3.58
			c-0.554,1.109-0.843,2.332-0.844,3.572v32h-64v-8c0-4.418-3.582-8-8-8H72c-13.255,0-24,10.745-24,24s10.745,24,24,24h32
			c4.418,0,8-3.582,8-8v-8h64v32c-0.002,4.418,3.578,8.002,7.996,8.004c1.243,0.001,2.468-0.288,3.58-0.844l80-40
			C271.528,53.183,273.131,48.378,271.155,44.426z M96,55.999H72c-4.418,0-8-3.582-8-8s3.582-8,8-8h24V55.999z M192,75.055V20.943
			l54.112,27.056L192,75.055z"/>
	</g>
</g>
<g>
</g>
<g>
</g>
<g>
</g>
<g>
</g>
<g>
</g>
<g>
</g>
<g>
</g>
<g>
</g>
<g>
</g>
<g>
</g>
<g>
</g>
<g>
</g>
<g>
</g>
<g>
</g>
<g>
</g>
</svg>
