<?xml version="1.0" encoding="iso-8859-1"?>
<!-- Generator: Adobe Illustrator 19.0.0, SVG Export Plug-In . SVG Version: 6.00 Build 0)  -->
<svg version="1.1" id="Capa_1" xmlns="http://www.w3.org/2000/svg" xmlns:xlink="http://www.w3.org/1999/xlink" x="0px" y="0px"
	 viewBox="0 0 512 512" style="enable-background:new 0 0 512 512;" xml:space="preserve">
<g>
	<g>
		<path d="M142.546,235.978c-0.136-0.66-0.336-1.321-0.598-1.96c-0.262-0.629-0.587-1.237-0.964-1.803
			c-0.388-0.577-0.828-1.111-1.31-1.594c-0.483-0.482-1.017-0.923-1.594-1.31c-0.566-0.377-1.174-0.702-1.803-0.964
			c-0.64-0.262-1.3-0.461-1.96-0.598c-1.352-0.273-2.747-0.273-4.099,0c-0.672,0.136-1.331,0.336-1.96,0.598
			c-0.64,0.262-1.248,0.587-1.814,0.964c-0.577,0.388-1.111,0.828-1.594,1.31s-0.923,1.017-1.3,1.594
			c-0.377,0.566-0.702,1.174-0.964,1.803c-0.262,0.64-0.46,1.3-0.598,1.96c-0.136,0.681-0.209,1.373-0.209,2.055
			c0,0.681,0.072,1.373,0.209,2.044c0.136,0.671,0.336,1.331,0.598,1.96c0.262,0.64,0.588,1.248,0.964,1.814
			c0.377,0.577,0.818,1.111,1.3,1.594c0.482,0.482,1.017,0.923,1.594,1.3c0.566,0.377,1.174,0.702,1.814,0.965
			c0.628,0.262,1.288,0.461,1.96,0.598c0.67,0.136,1.363,0.21,2.044,0.21c0.681,0,1.373-0.073,2.055-0.21
			c0.66-0.136,1.321-0.335,1.96-0.598c0.629-0.262,1.237-0.587,1.803-0.965c0.577-0.377,1.111-0.818,1.594-1.3
			c0.482-0.482,0.923-1.017,1.31-1.594c0.377-0.566,0.702-1.174,0.964-1.814c0.262-0.629,0.461-1.289,0.598-1.96
			c0.136-0.671,0.2-1.363,0.2-2.044S142.682,236.659,142.546,235.978z"/>
	</g>
</g>
<g>
	<g>
		<path d="M508.568,186.822l-17.712-16.1V96.482c0-5.79-4.695-10.484-10.484-10.484h-40.068c-5.789,0-10.484,4.693-10.484,10.484
			v18.764l-49.287-44.799c-3.998-3.635-10.105-3.635-14.104,0L238.396,186.822c-3.205,2.913-4.289,7.498-2.727,11.537
			c1.561,4.04,5.446,6.704,9.778,6.704h0.03v46.183l-48.74-48.74c-16.47-16.468-47.615-29.369-70.905-29.369H10.484
			C4.694,173.138,0,177.832,0,183.622v146.055c0,5.79,4.694,10.484,10.484,10.484h48.947c4.025,0,7.519-2.269,9.276-5.595h7.286
			c4.903,0,13.159,2.123,17.666,4.512l138.761,97.055c0.281,0.197,0.571,0.38,0.87,0.547c7.693,4.324,19.874,7.592,28.342,7.6
			h198.85c22.256,0,40.361-18.106,40.361-40.361c0-7.409-2.008-14.358-5.506-20.333c3.626-1.649,6.149-5.304,6.149-9.547V205.063
			h0.029c4.332,0,8.217-2.664,9.778-6.704C512.857,194.32,511.772,189.736,508.568,186.822z M48.947,319.194h-27.98V194.106h27.98
			V319.194z M450.787,106.965h19.101v44.7l-19.101-17.362V106.965z M373.482,92.372l100.914,91.724H272.569L373.482,92.372z
			 M460.482,423.312H261.641c-4.756-0.004-13.02-2.211-17.67-4.687l-138.764-97.057c-0.281-0.197-0.571-0.38-0.87-0.548
			c-7.525-4.23-19.709-7.421-28.342-7.421h-6.078V194.105h55.92c17.805,0,43.487,10.637,56.079,23.228l113.114,113.114
			c3.663,3.663,5.681,8.533,5.681,13.714c0,5.18-2.018,10.051-5.681,13.714c-3.605,3.605-8.38,5.616-13.467,5.679h-0.063
			c-0.021,0-0.042,0.001-0.063,0.001c-0.04,0-0.08,0.001-0.12,0.001c-5.18,0-10.051-2.018-13.734-5.7l-95.076-94.581
			c-4.104-4.083-10.743-4.067-14.827,0.039c-4.083,4.104-4.066,10.743,0.039,14.826l95.057,94.562
			c7.605,7.605,17.71,11.801,28.462,11.821c0.026,0,0.051,0.001,0.078,0.001h179.168c10.693,0,19.394,8.7,19.394,19.395
			C479.876,414.612,471.176,423.312,460.482,423.312z M344.191,363.555v-93.812h58.582v93.812H344.191z M480.52,363.555h-56.778
			V259.26c0-5.79-4.695-10.484-10.484-10.484h-79.55c-5.79,0-10.484,4.694-10.484,10.484v104.295h-6.491
			c3.228-5.876,4.943-12.503,4.943-19.393c0-10.781-4.199-20.917-11.821-28.541l-43.407-43.407v-67.151H480.52V363.555z"/>
	</g>
</g>
<g>
</g>
<g>
</g>
<g>
</g>
<g>
</g>
<g>
</g>
<g>
</g>
<g>
</g>
<g>
</g>
<g>
</g>
<g>
</g>
<g>
</g>
<g>
</g>
<g>
</g>
<g>
</g>
<g>
</g>
</svg>
