<?xml version="1.0" encoding="iso-8859-1"?>
<!-- Generator: Adobe Illustrator 19.0.0, SVG Export Plug-In . SVG Version: 6.00 Build 0)  -->
<svg version="1.1" id="Capa_1" xmlns="http://www.w3.org/2000/svg" xmlns:xlink="http://www.w3.org/1999/xlink" x="0px" y="0px"
	 viewBox="0 0 511.998 511.998" style="enable-background:new 0 0 511.998 511.998;" xml:space="preserve">
<g>
	<g>
		<path d="M440.37,448.903h-8.532V199.371h0.516c8.556,0,15.516-6.96,15.516-15.516v-16.032c0-8.556-6.96-15.516-15.516-15.516
			h-56.629v-17.065h8.533c2.599,0,5.013-1.346,6.38-3.557s1.491-4.972,0.328-7.297l-10.605-21.21h3.897
			c2.599,0,5.013-1.346,6.38-3.557s1.491-4.972,0.328-7.297l-10.605-21.21h3.897c2.599,0,5.013-1.346,6.38-3.557
			s1.491-4.972,0.328-7.297l-16.033-32.064c-1.271-2.541-3.867-4.146-6.708-4.146h-8.532V7.5c0-4.142-3.358-7.5-7.5-7.5
			c-4.142,0-7.5,3.358-7.5,7.5v16.548h-8.532c-2.841,0-5.438,1.605-6.708,4.146l-16.032,32.064
			c-1.163,2.325-1.039,5.086,0.328,7.297s3.781,3.557,6.38,3.557h3.897l-10.605,21.21c-1.163,2.325-1.039,5.086,0.328,7.297
			s3.781,3.557,6.38,3.557h3.897l-10.605,21.21c-1.163,2.325-1.039,5.086,0.328,7.297s3.781,3.557,6.38,3.557h8.532v17.065h-49.129
			V135.24h8.532c2.599,0,5.013-1.346,6.38-3.557s1.491-4.972,0.328-7.297l-10.605-21.21h3.897c2.599,0,5.013-1.346,6.38-3.557
			s1.491-4.972,0.328-7.297l-10.605-21.21h3.897c2.599,0,5.013-1.346,6.38-3.557s1.491-4.972,0.328-7.297l-16.033-32.064
			c-1.27-2.541-3.867-4.146-6.708-4.146h-8.532V7.5c0-4.142-3.358-7.5-7.5-7.5c-4.142,0-7.5,3.358-7.5,7.5v16.548h-8.532
			c-2.841,0-5.438,1.605-6.708,4.146l-16.032,32.064c-1.163,2.325-1.039,5.086,0.328,7.297s3.781,3.557,6.38,3.557h3.897
			l-10.605,21.21c-1.163,2.325-1.039,5.086,0.328,7.297s3.781,3.557,6.38,3.557h3.897l-10.605,21.21
			c-1.163,2.325-1.039,5.086,0.328,7.297s3.781,3.557,6.38,3.557h8.532v17.065h-49.129V135.24h8.532c2.599,0,5.013-1.346,6.38-3.557
			s1.491-4.972,0.328-7.297l-10.605-21.21h3.897c2.599,0,5.013-1.346,6.38-3.557s1.491-4.972,0.328-7.297l-10.605-21.21h3.897
			c2.599,0,5.013-1.346,6.38-3.557s1.491-4.972,0.328-7.297l-16.032-32.064c-1.27-2.541-3.867-4.146-6.708-4.146h-8.532V7.5
			c0-4.142-3.358-7.5-7.5-7.5c-4.142,0-7.5,3.358-7.5,7.5v16.548h-8.532c-2.841,0-5.438,1.605-6.708,4.146l-16.033,32.064
			c-1.163,2.325-1.039,5.086,0.328,7.297s3.781,3.557,6.38,3.557h3.897l-10.605,21.21c-1.163,2.325-1.039,5.086,0.328,7.297
			s3.781,3.557,6.38,3.557h3.897l-10.605,21.21c-1.163,2.325-1.039,5.086,0.328,7.297s3.781,3.557,6.38,3.557h8.533v17.065h-56.63
			c-8.556,0-15.516,6.96-15.516,15.516v16.032c0,8.556,6.96,15.516,15.516,15.516h0.516v249.532h-8.532
			c-8.556,0-15.516,6.96-15.516,15.516v32.064c0,8.556,6.96,15.517,15.516,15.517H440.37c8.556,0,15.516-6.961,15.516-15.517
			v-32.064C455.886,455.864,448.926,448.903,440.37,448.903z M340.795,39.048h22.794l8.533,17.064h-39.859L340.795,39.048z
			 M340.795,71.113h22.794l8.533,17.064h-39.859L340.795,71.113z M340.795,103.177h22.794l8.533,17.064h-39.859L340.795,103.177z
			 M360.724,135.242v17.065H343.66v-17.065H360.724z M244.602,39.048h22.794l8.532,17.064H236.07L244.602,39.048z M244.602,71.113
			h22.794l8.532,17.064H236.07L244.602,71.113z M244.602,103.177h22.794l8.532,17.064H236.07L244.602,103.177z M264.531,135.242
			v17.065h-17.064v-17.065H264.531z M148.409,39.048h22.794l8.532,17.064h-39.859L148.409,39.048z M148.409,71.113h22.794
			l8.532,17.064h-39.859L148.409,71.113z M148.409,103.177h22.794l8.532,17.064h-39.859L148.409,103.177z M168.337,135.242v17.065
			h-17.064v-17.065H168.337z M440.37,497H71.628c-0.285,0-0.516-0.231-0.516-0.517v-32.064c0-0.285,0.231-0.516,0.516-0.516h32.068
			c4.142,0,7.5-3.358,7.5-7.5c0-4.142-3.358-7.5-7.5-7.5H95.16V199.371h57.146v8.532c0,4.142,3.358,7.5,7.5,7.5
			c4.142,0,7.5-3.358,7.5-7.5v-8.532h81.193v8.532c0,4.142,3.358,7.5,7.5,7.5c4.142,0,7.5-3.358,7.5-7.5v-8.532h81.193v8.532
			c0,4.142,3.358,7.5,7.5,7.5c4.142,0,7.5-3.358,7.5-7.5v-8.532h16.544c4.142,0,7.5-3.358,7.5-7.5c0-4.142-3.358-7.5-7.5-7.5H79.644
			c-0.285,0-0.516-0.231-0.516-0.516v-16.032c0-0.285,0.231-0.516,0.516-0.516h352.71c0.285,0,0.516,0.231,0.516,0.516v16.032
			c0,0.285-0.231,0.516-0.516,0.516h-24.053c-4.142,0-7.5,3.358-7.5,7.5c0,4.142,3.358,7.5,7.5,7.5h8.537v249.532H135.759
			c-4.142,0-7.5,3.358-7.5,7.5c0,4.142,3.358,7.5,7.5,7.5H440.37c0.285,0,0.516,0.231,0.516,0.516v32.064h0
			C440.886,496.768,440.655,497,440.37,497z"/>
	</g>
</g>
<g>
	<g>
		<path d="M344.437,386.233L268.445,254.61c-2.598-4.5-7.25-7.186-12.446-7.186c-5.196,0-9.848,2.686-12.446,7.186l-75.992,131.623
			c-2.598,4.5-2.598,9.872,0,14.372c2.597,4.499,7.25,7.186,12.446,7.186h151.984c5.196,0,9.849-2.687,12.446-7.186
			C347.035,396.105,347.035,390.733,344.437,386.233z M181.095,392.791l74.904-129.738l74.904,129.738H181.095z"/>
	</g>
</g>
<g>
	<g>
		<path d="M272.03,336.291c-1.413-1.92-3.656-3.055-6.041-3.055H256.2l6.959-22.336c1.232-3.955-0.975-8.16-4.93-9.392
			s-8.159,0.975-9.392,4.93l-9.99,32.067c-0.709,2.277-0.293,4.755,1.12,6.676c1.413,1.92,3.656,3.055,6.041,3.055h9.789
			l-6.959,22.337c-1.232,3.955,0.975,8.16,4.93,9.392c0.743,0.231,1.494,0.341,2.233,0.341c3.196,0,6.158-2.059,7.158-5.271
			l9.99-32.068C273.859,340.69,273.443,338.211,272.03,336.291z"/>
	</g>
</g>
<g>
</g>
<g>
</g>
<g>
</g>
<g>
</g>
<g>
</g>
<g>
</g>
<g>
</g>
<g>
</g>
<g>
</g>
<g>
</g>
<g>
</g>
<g>
</g>
<g>
</g>
<g>
</g>
<g>
</g>
</svg>
