<?xml version="1.0" encoding="iso-8859-1"?>
<!-- Generator: Adobe Illustrator 19.0.0, SVG Export Plug-In . SVG Version: 6.00 Build 0)  -->
<svg version="1.1" id="Capa_1" xmlns="http://www.w3.org/2000/svg" xmlns:xlink="http://www.w3.org/1999/xlink" x="0px" y="0px"
	 viewBox="0 0 496 496" style="enable-background:new 0 0 496 496;" xml:space="preserve">
<g>
	<g>
		<g>
			<path d="M374,250.136l26.728-26.736l-56.568-56.568l-26.736,26.728c-9.328-5.152-19.2-9.176-29.432-12.128v-37.088
				c25.84-13.904,40-36.736,40-64.776c0-33.784-21.432-64.064-53.328-75.36L264,0.432V65.8l-16,5.336L232,65.8V0.432l-10.672,3.776
				C189.432,15.504,168,45.784,168,79.568c0,28.04,14.16,50.872,40,64.776v37.088c-10.232,2.96-20.104,6.976-29.432,12.128
				l-26.736-26.728L95.264,223.4l26.728,26.736c-5.16,9.336-9.248,19.192-12.2,29.432H72v80h37.792
				c2.96,10.24,7.04,20.096,12.2,29.432l-26.728,26.736l56.568,56.568l26.736-26.728c9.336,5.16,19.192,9.248,29.432,12.2v37.792h80
				v-37.792c10.24-2.96,20.096-7.04,29.432-12.2l26.736,26.728l56.568-56.568L374.008,389c5.16-9.336,9.248-19.192,12.2-29.432H424
				v-80h-37.792C383.248,269.328,379.168,259.472,374,250.136z M184,79.568c0-23.048,12.488-44.064,32-55.352v53.12L248,88
				l32-10.664v-53.12c19.512,11.288,32,32.304,32,55.352c0,23.464-12.248,41.664-35.424,52.632L272,134.368v129.2h16V250.24
				c24.632,14.128,40,40.2,40,69.328c0,29.536-16.128,55.32-40,69.176V279.568h-16V395.88c-7.584,2.392-15.64,3.688-24,3.688
				s-16.416-1.296-24-3.688V134.368l-4.576-2.168C196.248,121.232,184,103.032,184,79.568z M408,343.568h-34.24l-1.48,6.12
				c-3.112,12.872-8.192,25.136-15.112,36.44l-3.288,5.376l24.232,24.224l-33.944,33.944l-24.224-24.232l-5.376,3.288
				c-11.312,6.92-23.568,12-36.44,15.112L272,445.328v34.24h-48v-34.24l-6.12-1.48c-12.872-3.112-25.136-8.192-36.44-15.112
				l-5.376-3.288L151.84,449.68l-33.944-33.944l24.232-24.224l-3.288-5.376c-6.92-11.312-12-23.568-15.112-36.44l-1.488-6.128H88
				v-48h34.24l1.48-6.12c3.112-12.872,8.192-25.136,15.112-36.44l3.288-5.376l-24.232-24.224l33.944-33.944l24.224,24.232
				l5.376-3.288c8.376-5.128,17.28-9.232,26.56-12.28v34.208c-34.184,15.624-56,49.256-56,87.24c0,52.936,43.064,96,96,96
				c52.936,0,96-43.064,96-96c0-37.992-21.816-71.624-56-87.24v-34.208c9.28,3.056,18.184,7.16,26.56,12.28l5.376,3.288
				l24.224-24.232l33.944,33.944l-24.232,24.224l3.288,5.376c6.92,11.312,12,23.568,15.112,36.44l1.496,6.12H408V343.568z
				 M208,250.248v138.496c-23.872-13.856-40-39.64-40-69.176C168,290.448,183.368,264.376,208,250.248z"/>
			<path d="M32,393.04V103.568c0-4.408,3.592-8,8-8h65.472c3.312,9.288,12.112,16,22.528,16c13.232,0,24-10.768,24-24
				s-10.768-24-24-24c-10.416,0-19.216,6.712-22.528,16H40c-13.232,0-24,10.768-24,24V393.04c-9.288,3.312-16,12.112-16,22.528
				c0,13.232,10.768,24,24,24s24-10.768,24-24C48,405.152,41.288,396.352,32,393.04z M128,79.568c4.408,0,8,3.592,8,8s-3.592,8-8,8
				s-8-3.592-8-8S123.592,79.568,128,79.568z M24,423.568c-4.408,0-8-3.592-8-8c0-4.408,3.592-8,8-8s8,3.592,8,8
				C32,419.976,28.408,423.568,24,423.568z"/>
			<rect x="48" y="111.568" width="16" height="16"/>
			<rect x="48" y="143.568" width="16" height="16"/>
			<rect x="48" y="175.568" width="16" height="16"/>
			<path d="M480,393.04V103.568c0-13.232-10.768-24-24-24h-65.472c-3.312-9.288-12.112-16-22.528-16c-13.232,0-24,10.768-24,24
				s10.768,24,24,24c10.416,0,19.216-6.712,22.528-16H456c4.408,0,8,3.592,8,8V393.04c-9.288,3.312-16,12.112-16,22.528
				c0,13.232,10.768,24,24,24s24-10.768,24-24C496,405.152,489.288,396.352,480,393.04z M368,95.568c-4.408,0-8-3.592-8-8
				s3.592-8,8-8c4.408,0,8,3.592,8,8S372.408,95.568,368,95.568z M472,423.568c-4.408,0-8-3.592-8-8c0-4.408,3.592-8,8-8
				c4.408,0,8,3.592,8,8C480,419.976,476.408,423.568,472,423.568z"/>
			<rect x="432" y="111.568" width="16" height="16"/>
			<rect x="432" y="143.568" width="16" height="16"/>
			<rect x="432" y="175.568" width="16" height="16"/>
			<rect x="240" y="367.568" width="16" height="16"/>
			<rect x="240" y="335.568" width="16" height="16"/>
			<rect x="240" y="303.568" width="16" height="16"/>
		</g>
	</g>
</g>
<g>
</g>
<g>
</g>
<g>
</g>
<g>
</g>
<g>
</g>
<g>
</g>
<g>
</g>
<g>
</g>
<g>
</g>
<g>
</g>
<g>
</g>
<g>
</g>
<g>
</g>
<g>
</g>
<g>
</g>
</svg>
