<?xml version="1.0" encoding="iso-8859-1"?>
<!-- Generator: Adobe Illustrator 19.0.0, SVG Export Plug-In . SVG Version: 6.00 Build 0)  -->
<svg version="1.1" id="Capa_1" xmlns="http://www.w3.org/2000/svg" xmlns:xlink="http://www.w3.org/1999/xlink" x="0px" y="0px"
	 viewBox="0 0 512.001 512.001" style="enable-background:new 0 0 512.001 512.001;" xml:space="preserve">
<g>
	<g>
		<path d="M354.675,180.814h-22.714c-1.387-4.402-3.151-8.664-5.28-12.753L342.741,152c2.007-2.007,3.112-4.676,3.112-7.515
			c0-2.84-1.105-5.509-3.112-7.516l-18.901-18.902c-4.144-4.141-10.886-4.143-15.031,0.001l-16.061,16.061
			c-4.089-2.129-8.352-3.894-12.753-5.28v-22.715c-0.001-5.86-4.769-10.629-10.63-10.629h-26.731
			c-5.86,0-10.628,4.768-10.628,10.629v22.715c-4.402,1.387-8.664,3.151-12.754,5.28l-16.062-16.062
			c-4.144-4.142-10.886-4.141-15.03,0.001l-18.9,18.9c-2.008,2.007-3.114,4.676-3.114,7.516c0,2.839,1.106,5.508,3.113,7.515
			l16.061,16.061c-2.129,4.089-3.894,8.352-5.28,12.753h-22.715c-5.86,0-10.628,4.768-10.628,10.629v26.731
			c0,5.86,4.768,10.628,10.628,10.628h22.715c1.387,4.401,3.151,8.665,5.28,12.753l-16.061,16.061
			c-4.144,4.144-4.144,10.887,0,15.031l18.901,18.901c4.144,4.145,10.888,4.144,15.031,0l16.061-16.061
			c4.089,2.129,8.353,3.894,12.754,5.28v22.715c0,5.86,4.768,10.628,10.628,10.628h26.731c5.86,0,10.629-4.768,10.629-10.628
			v-22.715c4.4-1.386,8.664-3.151,12.753-5.28l16.061,16.061c4.145,4.145,10.888,4.144,15.032,0l18.9-18.901
			c2.007-2.007,3.112-4.676,3.112-7.515c0-2.839-1.105-5.508-3.112-7.516l-16.061-16.061c2.129-4.089,3.894-8.352,5.28-12.753
			h22.715c5.86,0,10.629-4.768,10.629-10.628v-26.731C365.304,185.582,360.535,180.814,354.675,180.814z M350.305,213.801h-24.059
			c-3.484,0-6.509,2.399-7.303,5.792c-1.599,6.835-4.283,13.318-7.978,19.267c-1.839,2.96-1.396,6.796,1.067,9.261l17.011,17.011
			l-12.718,12.718l-17.011-17.011c-2.464-2.464-6.3-2.908-9.262-1.068c-5.95,3.695-12.433,6.379-19.266,7.979
			c-3.393,0.793-5.792,3.818-5.792,7.303v24.06h-17.985v-24.06c0-3.484-2.399-6.509-5.792-7.303
			c-6.833-1.598-13.316-4.282-19.267-7.979c-2.959-1.836-6.796-1.396-9.261,1.068l-17.011,17.011l-12.718-12.718l17.011-17.011
			c2.464-2.464,2.906-6.3,1.068-9.261c-3.695-5.95-6.379-12.433-7.978-19.267c-0.793-3.393-3.819-5.792-7.303-5.792h-24.059v-17.985
			h24.059c3.484,0,6.509-2.399,7.303-5.792c1.599-6.834,4.283-13.317,7.978-19.267c1.838-2.96,1.396-6.796-1.068-9.261
			l-17.011-17.011l12.718-12.718l17.011,17.011c2.462,2.464,6.3,2.907,9.261,1.068c5.949-3.695,12.432-6.379,19.267-7.978
			c3.393-0.793,5.792-3.818,5.792-7.303v-24.06h17.985v24.06c0,3.484,2.399,6.509,5.792,7.303
			c6.834,1.599,13.316,4.283,19.267,7.978c2.958,1.837,6.796,1.394,9.261-1.068l17.011-17.011l12.718,12.718l-17.011,17.011
			c-2.464,2.464-2.906,6.3-1.067,9.261c3.694,5.948,6.378,12.431,7.978,19.267c0.794,3.393,3.818,5.792,7.303,5.792h24.059V213.801z
			"/>
	</g>
</g>
<g>
	<g>
		<path d="M256,164.628c-22.156,0-40.18,18.025-40.18,40.18s18.025,40.18,40.18,40.18s40.18-18.025,40.18-40.18
			C296.18,182.653,278.156,164.628,256,164.628z M256,229.988c-13.884,0-25.18-11.296-25.18-25.18s11.296-25.18,25.18-25.18
			c13.884,0,25.18,11.296,25.18,25.18S269.884,229.988,256,229.988z"/>
	</g>
</g>
<g>
	<g>
		<path d="M83.574,197.308H58.692c-4.142,0-7.5,3.358-7.5,7.5s3.358,7.5,7.5,7.5h24.882c4.142,0,7.5-3.358,7.5-7.5
			S87.716,197.308,83.574,197.308z"/>
	</g>
</g>
<g>
	<g>
		<path d="M453.309,197.308h-24.882c-4.143,0-7.5,3.358-7.5,7.5s3.357,7.5,7.5,7.5h24.882c4.143,0,7.5-3.358,7.5-7.5
			S457.451,197.308,453.309,197.308z"/>
	</g>
</g>
<g>
	<g>
		<path d="M139.379,321.429c-2.928-2.929-7.677-2.929-10.607,0l-17.594,17.594c-2.929,2.929-2.929,7.678,0,10.607
			c2.929,2.929,7.678,2.929,10.607,0l17.594-17.594C142.308,329.107,142.308,324.358,139.379,321.429z"/>
	</g>
</g>
<g>
	<g>
		<path d="M400.822,59.988c-2.93-2.929-7.678-2.929-10.608,0L372.62,77.582c-2.929,2.929-2.929,7.678,0,10.607
			c2.93,2.929,7.678,2.928,10.608,0l17.594-17.594C403.751,67.665,403.751,62.916,400.822,59.988z"/>
	</g>
</g>
<g>
	<g>
		<path d="M256.001,0c-4.143,0-7.5,3.358-7.5,7.5v24.882c0,4.142,3.357,7.5,7.5,7.5s7.5-3.358,7.5-7.5V7.5
			C263.501,3.358,260.144,0,256.001,0z"/>
	</g>
</g>
<g>
	<g>
		<path d="M400.822,339.023l-17.594-17.594c-2.93-2.929-7.678-2.929-10.608,0c-2.929,2.929-2.929,7.679,0,10.607l17.594,17.594
			c2.93,2.929,7.678,2.929,10.608,0C403.751,346.701,403.751,341.952,400.822,339.023z"/>
	</g>
</g>
<g>
	<g>
		<path d="M139.379,77.582l-17.594-17.594c-2.929-2.929-7.678-2.929-10.607,0c-2.929,2.929-2.929,7.678,0,10.607l17.594,17.594
			c2.929,2.929,7.678,2.929,10.607,0C142.308,85.259,142.308,80.51,139.379,77.582z"/>
	</g>
</g>
<g>
	<g>
		<path d="M405.629,186.435c-8.071-68.875-62.668-123.477-131.22-131.833c-4.105-0.505-7.852,2.426-8.354,6.537
			c-0.501,4.112,2.426,7.852,6.538,8.354c62.257,7.588,110.837,56.395,118.136,118.688c0.447,3.817,3.688,6.627,7.439,6.627
			c0.292,0,0.586-0.017,0.883-0.051C403.167,194.276,406.111,190.55,405.629,186.435z"/>
	</g>
</g>
<g>
	<g>
		<path d="M398.963,214.868c-4.116-0.524-7.863,2.389-8.383,6.499c-5.113,40.388-27.909,76.025-62.543,97.77
			c-14.931,9.375-23.844,25.419-23.844,42.917v30.867h-96.383v-31.55c0-16.944-8.855-32.952-23.108-41.775
			c-40.306-24.95-64.37-68.107-64.371-115.446c0-68.352,51.198-126.238,119.091-134.648c4.111-0.509,7.03-4.255,6.521-8.366
			c-0.509-4.11-4.253-7.037-8.366-6.521c-75.015,9.293-132.25,73.803-132.249,149.535c0,26.133,6.797,51.881,19.658,74.461
			c12.467,21.89,30.386,40.472,51.818,53.739c9.871,6.11,16.002,17.23,16.002,29.02v32.643c-7.626,2.65-13.125,9.892-13.125,18.409
			v10.692c0,4.527,1.564,8.688,4.161,12.001c-2.598,3.313-4.161,7.473-4.161,12.001v10.691c0,10.753,8.749,19.501,19.501,19.501
			h23.58v16.955c0,9.781,7.957,17.738,17.737,17.738h30.997c9.781,0,17.737-7.957,17.737-17.738v-16.955h23.58
			c10.753,0,19.501-8.749,19.501-19.501v-10.691c0-4.527-1.564-8.688-4.162-12.001c2.598-3.313,4.162-7.473,4.162-12.001v-10.692
			c0-8.518-5.498-15.759-13.125-18.409v-31.96c0-12.305,6.287-23.599,16.82-30.212c38.454-24.144,63.768-63.724,69.447-108.59
			C405.981,219.141,403.072,215.388,398.963,214.868z M274.235,494.262c0,1.483-1.253,2.737-2.736,2.737h-30.997
			c-1.483,0-2.736-1.253-2.736-2.737v-16.955h36.469V494.262z M317.317,457.806c0,2.439-2.061,4.5-4.5,4.5
			c-13.24,0-101.138,0-113.632,0c-2.439,0-4.5-2.061-4.5-4.5v-10.691c0-2.439,2.061-4.5,4.5-4.5h113.632c2.439,0,4.5,2.061,4.5,4.5
			V457.806z M317.317,423.113c0,2.439-2.061,4.5-4.5,4.5H199.185c-2.439,0-4.5-2.061-4.5-4.5v-10.692c0-2.439,2.061-4.5,4.5-4.5
			h113.632c2.439,0,4.5,2.061,4.5,4.5V423.113z"/>
	</g>
</g>
<g>
</g>
<g>
</g>
<g>
</g>
<g>
</g>
<g>
</g>
<g>
</g>
<g>
</g>
<g>
</g>
<g>
</g>
<g>
</g>
<g>
</g>
<g>
</g>
<g>
</g>
<g>
</g>
<g>
</g>
</svg>
