<?xml version="1.0" encoding="iso-8859-1"?>
<!-- Generator: Adobe Illustrator 19.0.0, SVG Export Plug-In . SVG Version: 6.00 Build 0)  -->
<svg version="1.1" id="Capa_1" xmlns="http://www.w3.org/2000/svg" xmlns:xlink="http://www.w3.org/1999/xlink" x="0px" y="0px"
	 viewBox="0 0 480.892 480.892" style="enable-background:new 0 0 480.892 480.892;" xml:space="preserve">
<g>
	<g>
		<path d="M471.04,307.378c-3.64-2.428-7.918-3.723-12.294-3.721l0,0c-8.862,0.372-17.307,3.87-23.836,9.875l-17.414,17.414
			c-9.145,9.165-20.896,15.285-33.648,17.523l-31.937,5.633l15.781-10.773c10.422-7.127,13.093-21.353,5.966-31.774
			c-0.518-0.757-1.08-1.482-1.685-2.171c-7.702-8.388-20.313-10.038-29.914-3.914l-50.648,30.484
			c-12.238,7.332-21.127,19.154-24.774,32.945l-26.832,100.632l-27.418-102.827c-3.275-12.382-11.256-22.995-22.242-29.578
			l-52.602-31.664c-9.601-6.099-22.191-4.45-29.899,3.914c-8.331,9.488-7.393,23.933,2.095,32.264
			c0.694,0.609,1.424,1.176,2.186,1.697l15.773,10.766l-31.938-5.633c-12.751-2.235-24.501-8.356-33.641-17.524L41.106,309.93
			c-4.027-4.003-9.47-6.257-15.148-6.273c-13.73-0.001-24.861,11.129-24.861,24.859c0,4.908,1.452,9.706,4.174,13.789l12.969,19.445
			c5.422,8.165,12.284,15.275,20.25,20.984l11.953,8.602c5.367,3.863,11.186,7.056,17.328,9.508l92.539,37.017v34.172
			c0.158,4.58,3.834,8.256,8.414,8.414h63.047c2.647-0.192,5.088-1.502,6.711-3.602c0.653-0.881,1.115-1.888,1.359-2.956
			c0.331,1.256,0.905,2.435,1.688,3.472c1.516,1.947,3.845,3.086,6.313,3.086h63.055c4.578-0.159,8.252-3.836,8.406-8.414v-34.164
			l92.539-37.023c6.141-2.453,11.96-5.645,17.328-9.508l11.953-8.594c7.963-5.715,14.827-12.824,20.258-20.984l15.789-23.687
			C483.952,327.903,481.208,314.162,471.04,307.378z M176.309,464.446v-32c-0.001-1.579-0.468-3.123-1.344-4.438
			c-0.944-1.402-2.301-2.475-3.883-3.07l-0.062-0.023l-97.312-38.93c-4.932-1.967-9.605-4.53-13.914-7.633l-11.969-8.609
			c-6.401-4.587-11.915-10.3-16.273-16.859L18.583,333.43c-2.713-4.073-1.61-9.574,2.463-12.287
			c1.455-0.969,3.164-1.486,4.912-1.486c1.438,0.003,2.816,0.573,3.836,1.586l21.016,21.016
			c11.457,11.493,26.186,19.164,42.172,21.961l66.625,11.766c3.909,0.723,7.786-1.411,9.266-5.102
			c1.373-3.676,0.127-7.817-3.047-10.125l-44.875-30.632c-3.127-2.134-3.933-6.398-1.799-9.526c0.165-0.242,0.346-0.474,0.541-0.693
			c2.657-2.416,6.616-2.719,9.609-0.734l52.594,31.656c7.426,4.454,12.822,11.629,15.039,20l24.961,93.617H176.309z
			 M463.856,329.196l-15.789,23.688c-4.37,6.56-9.888,12.276-16.289,16.875l-11.953,8.594c-4.314,3.099-8.989,5.662-13.922,7.633
			l-97.305,38.93c-1.604,0.738-2.972,1.907-3.953,3.375c-0.876,1.314-1.343,2.858-1.344,4.438v31.719h-45.586l24.375-91.422
			c2.592-9.779,8.895-18.162,17.57-23.367l50.64-30.477c2.99-2.003,6.962-1.703,9.617,0.727c1.32,1.475,1.933,3.451,1.68,5.414
			c-0.249,1.943-1.315,3.688-2.93,4.797l-44.875,30.641c-3.303,2.215-4.581,6.453-3.055,10.125c1.574,3.598,5.368,5.69,9.25,5.102
			l66.64-11.766c15.987-2.8,30.718-10.47,42.18-21.961l17.422-17.422c3.513-3.017,7.898-4.832,12.516-5.18
			c3.389-0.002,6.138,2.744,6.139,6.132C464.887,327.002,464.528,328.187,463.856,329.196L463.856,329.196z"/>
	</g>
</g>
<g>
	<g>
		<path d="M448.464,216.446c-10.771-0.026-20.835,5.355-26.796,14.327l-29.61-11.844c0.053-0.837,0.251-1.632,0.251-2.482
			c-0.026-18.998-13.391-35.366-32-39.191v-33.617c18.609-3.825,31.974-20.193,32-39.191c0-0.636-0.159-1.228-0.188-1.857
			l32.398-8.945c11.733,12.912,31.712,13.869,44.624,2.136c12.912-11.733,13.869-31.712,2.136-44.624
			c-11.733-12.912-31.712-13.869-44.624-2.136c-8.354,7.591-12.023,19.062-9.625,30.092l-28.855,7.967
			c-9.453-19.814-33.179-28.212-52.992-18.759c-3.976,1.897-7.608,4.441-10.749,7.529L279.943,44.07
			c0.111-1.212,0.366-2.383,0.366-3.624c0-22.091-17.909-40-40-40c-22.091,0-40,17.909-40,40c0,1.241,0.255,2.412,0.366,3.624
			l-44.491,31.779c-15.582-15.36-40.666-15.18-56.026,0.402c-0.58,0.589-1.142,1.196-1.685,1.82L64.09,66.61
			c0.05-0.729,0.219-1.423,0.219-2.164c0.085-17.758-14.242-32.224-32-32.309C14.551,32.052,0.086,46.379,0,64.137
			C-0.085,81.895,14.242,96.36,32,96.446c10.94,0.053,21.156-5.461,27.117-14.634l31.297,10.433
			c-1.34,3.931-2.05,8.049-2.105,12.202c0.026,18.998,13.391,35.366,32,39.191v33.617c-18.609,3.825-31.974,20.193-32,39.191
			c0,0.85,0.198,1.646,0.251,2.482l-29.61,11.844c-5.917-8.94-15.92-14.32-26.641-14.327c-17.673,0-32,14.327-32,32s14.327,32,32,32
			s32-14.327,32-32c0-0.85-0.185-1.649-0.251-2.482l28.74-11.496c8.213,16.951,27.373,25.603,45.52,20.555l62.326,38.115
			c-0.093,1.109-0.334,2.176-0.334,3.308c-0.45,22.091,17.094,40.364,39.186,40.814s40.364-17.094,40.814-39.186
			c0.055-2.687-0.162-5.373-0.645-8.017l54.378-38.234c5.627,2.993,11.895,4.579,18.268,4.623
			c15.032-0.052,28.759-8.548,35.511-21.979l28.74,11.496c-0.065,0.833-0.251,1.632-0.251,2.482
			c-0.043,17.716,14.284,32.112,32,32.155s32.112-14.284,32.155-32C480.506,230.885,466.179,216.489,448.464,216.446z
			 M448.309,56.446c8.837,0,16,7.163,16,16s-7.163,16-16,16s-16-7.163-16-16C432.321,63.614,439.477,56.457,448.309,56.446z
			 M32.309,80.446c-8.837,0-16-7.163-16-16s7.163-16,16-16s16,7.163,16,16C48.298,73.278,41.141,80.434,32.309,80.446z
			 M32.309,264.446c-8.837,0-16-7.163-16-16c0-8.837,7.163-16,16-16s16,7.163,16,16C48.298,257.278,41.141,264.434,32.309,264.446z
			 M352.309,80.446c13.255,0,24,10.745,24,24s-10.745,24-24,24s-24-10.745-24-24C328.324,91.197,339.06,80.46,352.309,80.446z
			 M240.309,16.446c13.255,0,24,10.745,24,24s-10.745,24-24,24s-24-10.745-24-24C216.324,27.197,227.06,16.46,240.309,16.446z
			 M104.309,104.446c0-13.255,10.745-24,24-24s24,10.745,24,24s-10.745,24-24,24C115.06,128.431,104.324,117.695,104.309,104.446z
			 M128.309,240.446c-13.255,0-24-10.745-24-24c0.014-13.249,10.751-23.986,24-24c13.255,0,24,10.745,24,24
			S141.564,240.446,128.309,240.446z M240.309,320.446c-13.255,0-24-10.745-24-24s10.745-24,24-24s24,10.745,24,24
			C264.295,309.695,253.558,320.431,240.309,320.446z M321.205,241.284l-47.441,33.357c-11.897-18.441-36.491-23.746-54.932-11.849
			c-5.623,3.628-10.239,8.616-13.419,14.504l-50.722-31.019c16.559-14.466,18.256-39.618,3.789-56.177
			c-5.773-6.608-13.566-11.123-22.17-12.845v-33.617c21.625-4.394,35.594-25.488,31.2-47.113c-0.52-2.558-1.289-5.059-2.296-7.467
			l40.492-28.923c7.039,12.505,20.255,20.262,34.604,20.312c14.35-0.05,27.565-7.807,34.604-20.312l40.492,28.923
			c-8.518,20.357,1.08,43.765,21.437,52.283c2.408,1.008,4.909,1.777,7.467,2.296v33.617c-18.609,3.825-31.974,20.193-32,39.191
			C312.348,225.499,315.488,234.265,321.205,241.284z M352.309,240.446c-13.255,0-24-10.745-24-24s10.745-24,24-24
			c13.249,0.014,23.986,10.751,24,24C376.309,229.701,365.564,240.446,352.309,240.446z M448.309,264.446c-8.837,0-16-7.163-16-16
			c0.011-8.832,7.168-15.989,16-16c8.837,0,16,7.163,16,16C464.309,257.282,457.146,264.446,448.309,264.446z"/>
	</g>
</g>
<g>
</g>
<g>
</g>
<g>
</g>
<g>
</g>
<g>
</g>
<g>
</g>
<g>
</g>
<g>
</g>
<g>
</g>
<g>
</g>
<g>
</g>
<g>
</g>
<g>
</g>
<g>
</g>
<g>
</g>
</svg>
