<?xml version="1.0" encoding="iso-8859-1"?>
<!-- Generator: Adobe Illustrator 19.0.0, SVG Export Plug-In . SVG Version: 6.00 Build 0)  -->
<svg version="1.1" id="Capa_1" xmlns="http://www.w3.org/2000/svg" xmlns:xlink="http://www.w3.org/1999/xlink" x="0px" y="0px"
	 viewBox="0 0 480 480" style="enable-background:new 0 0 480 480;" xml:space="preserve">
<g>
	<g>
		<path d="M432,368h-16V264c0-4.418-3.582-8-8-8h-16V24c0-4.418-3.582-8-8-8H128c-4.418,0-8,3.582-8,8v48c0,4.418,3.582,8,8,8h40
			v41.136c-12.553,3.272-21.874,13.82-23.576,26.68L107,177.752c-1.897,1.519-3.001,3.818-3,6.248v32c0,4.418,3.582,8,8,8
			s8-3.582,8-8v-28.16l27.344-21.872c7.594,15.826,26.58,22.5,42.406,14.906c6.52-3.128,11.778-8.386,14.906-14.906L232,187.84V216
			c0,4.418,3.582,8,8,8s8-3.582,8-8v-32c0.001-2.43-1.103-4.729-3-6.248l-37.424-29.936c-1.702-12.86-11.023-23.408-23.576-26.68V80
			h144v176h-64c-4.418,0-8,3.582-8,8v104h-32V264c0-4.418-3.582-8-8-8H72c-4.418,0-8,3.582-8,8v104H48c-26.51,0-48,21.49-48,48
			c0,26.51,21.49,48,48,48h384c26.51,0,48-21.49,48-48C480,389.49,458.51,368,432,368z M152,64h-16V32h16V64z M192,152
			c0,8.837-7.163,16-16,16s-16-7.163-16-16s7.163-16,16-16S192,143.163,192,152z M184,64h-16V32h16V64z M200,64V32h176v32H200z
			 M376,80v176h-32V80H376z M320,272h32v32h-32V272z M272,272h32v40c0,4.418,3.582,8,8,8h48c4.418,0,8-3.582,8-8v-40h32v96H272V272z
			 M128,272h32v32h-32V272z M80,272h32v40c0,4.418,3.582,8,8,8h48c4.418,0,8-3.582,8-8v-40h32v96H80V272z M432,448H48
			c-17.673,0-32-14.327-32-32c0-17.673,14.327-32,32-32h384c17.673,0,32,14.327,32,32C464,433.673,449.673,448,432,448z"/>
	</g>
</g>
<g>
	<g>
		<path d="M48,392c-13.255,0-24,10.745-24,24s10.745,24,24,24s24-10.745,24-24S61.255,392,48,392z M48,424c-4.418,0-8-3.582-8-8
			s3.582-8,8-8s8,3.582,8,8S52.418,424,48,424z"/>
	</g>
</g>
<g>
	<g>
		<path d="M112,392c-13.255,0-24,10.745-24,24s10.745,24,24,24s24-10.745,24-24S125.255,392,112,392z M112,424c-4.418,0-8-3.582-8-8
			s3.582-8,8-8s8,3.582,8,8S116.418,424,112,424z"/>
	</g>
</g>
<g>
	<g>
		<path d="M176,392c-13.255,0-24,10.745-24,24s10.745,24,24,24s24-10.745,24-24S189.255,392,176,392z M176,424c-4.418,0-8-3.582-8-8
			s3.582-8,8-8s8,3.582,8,8S180.418,424,176,424z"/>
	</g>
</g>
<g>
	<g>
		<path d="M240,392c-13.255,0-24,10.745-24,24s10.745,24,24,24s24-10.745,24-24S253.255,392,240,392z M240,424c-4.418,0-8-3.582-8-8
			s3.582-8,8-8s8,3.582,8,8S244.418,424,240,424z"/>
	</g>
</g>
<g>
	<g>
		<path d="M304,392c-13.255,0-24,10.745-24,24s10.745,24,24,24s24-10.745,24-24S317.255,392,304,392z M304,424c-4.418,0-8-3.582-8-8
			s3.582-8,8-8s8,3.582,8,8S308.418,424,304,424z"/>
	</g>
</g>
<g>
	<g>
		<path d="M368,392c-13.255,0-24,10.745-24,24s10.745,24,24,24s24-10.745,24-24S381.255,392,368,392z M368,424c-4.418,0-8-3.582-8-8
			s3.582-8,8-8s8,3.582,8,8S372.418,424,368,424z"/>
	</g>
</g>
<g>
	<g>
		<path d="M432,392c-13.255,0-24,10.745-24,24s10.745,24,24,24s24-10.745,24-24S445.255,392,432,392z M432,424c-4.418,0-8-3.582-8-8
			s3.582-8,8-8s8,3.582,8,8S436.418,424,432,424z"/>
	</g>
</g>
<g>
	<g>
		<path d="M192,336h-16c-4.418,0-8,3.582-8,8s3.582,8,8,8h16c4.418,0,8-3.582,8-8S196.418,336,192,336z"/>
	</g>
</g>
<g>
	<g>
		<path d="M384,336h-16c-4.418,0-8,3.582-8,8s3.582,8,8,8h16c4.418,0,8-3.582,8-8S388.418,336,384,336z"/>
	</g>
</g>
<g>
</g>
<g>
</g>
<g>
</g>
<g>
</g>
<g>
</g>
<g>
</g>
<g>
</g>
<g>
</g>
<g>
</g>
<g>
</g>
<g>
</g>
<g>
</g>
<g>
</g>
<g>
</g>
<g>
</g>
</svg>
