<?xml version="1.0" encoding="iso-8859-1"?>
<!-- Generator: Adobe Illustrator 19.0.0, SVG Export Plug-In . SVG Version: 6.00 Build 0)  -->
<svg version="1.1" id="Capa_1" xmlns="http://www.w3.org/2000/svg" xmlns:xlink="http://www.w3.org/1999/xlink" x="0px" y="0px"
	 viewBox="0 0 480 480" style="enable-background:new 0 0 480 480;" xml:space="preserve">
<g>
	<g>
		<g>
			<path d="M472,322.955L472,322.955h-8v-24c0-4.418-3.582-8-8-8h-0.32c-3.032-88.693-60.254-166.406-144.048-195.632
				C309.844,83.641,299.818,75,288,74.955h-25.472c-4.335-12.442-17.935-19.014-30.376-14.68c-6.877,2.396-12.284,7.802-14.68,14.68
				H192c-11.818,0.045-21.844,8.686-23.632,20.368C84.574,124.549,27.352,202.262,24.32,290.955H24c-4.418,0-8,3.582-8,8v24H8
				c-4.418,0-8,3.582-8,8v48c0,3.599,2.403,6.755,5.872,7.712l19.264,5.312c69.989,19.304,142.261,29.086,214.864,29.08
				c72.603,0.006,144.875-9.776,214.864-29.08l19.264-5.312c3.469-0.957,5.872-4.113,5.872-7.712v-48
				C480,326.537,476.418,322.955,472,322.955z M168,112.483v74.472c0,4.418,3.582,8,8,8s8-3.582,8-8v-88c0-4.418,3.582-8,8-8h24v112
				c0,4.418,3.582,8,8,8s8-3.582,8-8v-120c0-4.418,3.582-8,8-8s8,3.582,8,8v120c0,4.418,3.582,8,8,8s8-3.582,8-8v-112h24
				c4.418,0,8,3.582,8,8v88c0,4.418,3.582,8,8,8s8-3.582,8-8v-74.472c74.474,28.536,124.721,98.773,127.68,178.472H40.32
				C43.278,211.256,93.526,141.019,168,112.483z M32,306.955h416v16H32V306.955z M464,372.859l-13.384,3.696
				c-137.839,38.008-283.393,38.008-421.232,0L16,372.859v-33.904h448V372.859z"/>
			<path d="M240,218.955c-17.673,0-32,14.327-32,32s14.327,32,32,32c17.673,0,32-14.327,32-32S257.673,218.955,240,218.955z
				 M240,266.955c-8.837,0-16-7.163-16-16s7.163-16,16-16s16,7.163,16,16S248.837,266.955,240,266.955z"/>
		</g>
	</g>
</g>
<g>
</g>
<g>
</g>
<g>
</g>
<g>
</g>
<g>
</g>
<g>
</g>
<g>
</g>
<g>
</g>
<g>
</g>
<g>
</g>
<g>
</g>
<g>
</g>
<g>
</g>
<g>
</g>
<g>
</g>
</svg>
