<svg xmlns="http://www.w3.org/2000/svg" xmlns:xlink="http://www.w3.org/1999/xlink" x="0px" y="0px"
	 viewBox="0 0 511.997 511.997" style="enable-background:new 0 0 511.997 511.997;" xml:space="preserve">
		<circle cx="366.436" cy="147.111" r="8.245"/>
			<path d="M319.099,217.409C319.171,217.333,319.023,217.482,319.099,217.409L319.099,217.409z"/>
			<path d="M296.128,194.448C296.071,194.507,296.187,194.39,296.128,194.448L296.128,194.448z"/>
			<path d="M489.835,128.821H479.76c-3.229-13.125-8.4-25.602-15.411-37.183l7.131-7.131c8.038-8.039,8.037-21.118,0-29.155
				l-16.38-16.38c-8.038-8.038-21.117-8.038-29.154,0l-7.131,7.131c-11.585-7.013-24.063-12.183-37.184-15.411V20.615
				C381.631,9.248,372.382,0,361.014,0h-23.166c-11.367,0-20.615,9.248-20.615,20.615V30.69
				c-13.124,3.229-25.599,8.398-37.184,15.411l-7.131-7.131c-8.038-8.036-21.116-8.036-29.154,0l-16.38,16.38
				c-8.038,8.038-8.038,21.117,0,29.156l7.131,7.13c-7.011,11.583-12.183,24.061-15.411,37.183h-10.075
				c-11.367,0-20.615,9.248-20.615,20.616v23.165c0,11.367,9.248,20.615,20.615,20.615h10.075
				c3.208,13.036,8.348,25.469,15.306,37.011l1.775,3.053L99.911,369.553c-26.488-9.535-56.799-2.954-76.881,17.126
				c-20.479,20.479-27,51.197-16.614,78.258c0.906,2.36,2.944,4.101,5.416,4.626c2.473,0.525,5.043-0.235,6.831-2.022l38.269-38.269
				l18.908,7.777l8.378,19.611l-38.217,38.217c-1.788,1.787-2.549,4.358-2.023,6.831c0.526,2.472,2.266,4.511,4.626,5.416
				c8.547,3.28,17.46,4.874,26.299,4.874c19.146,0,37.949-7.477,51.96-21.488c20.082-20.082,26.661-50.393,17.126-76.881
				l25.279-25.279c2.915-2.916,2.915-7.642,0-10.557c-2.915-2.914-7.642-2.914-10.556,0l-28.759,28.759
				c-2.183,2.183-2.797,5.484-1.545,8.306c9.741,21.959,4.878,48.117-12.101,65.095c-13.418,13.418-32.351,19.31-50.65,16.381
				l32.688-32.688c2.157-2.157,2.784-5.407,1.586-8.211L88.37,428.373c-0.768-1.8-2.214-3.226-4.025-3.971l-26.333-10.831
				c-2.784-1.144-5.988-0.506-8.117,1.625l-32.688,32.688c-2.932-18.297,2.964-37.233,16.38-50.65
				c16.978-16.98,43.137-21.841,65.095-12.1c2.822,1.25,6.123,0.639,8.306-1.545l189.14-189.14c2.183-2.183,2.797-5.484,1.545-8.306
				c-9.741-21.958-4.878-48.117,12.101-65.095c13.417-13.418,32.352-19.315,50.65-16.38c-0.024,0.023,0,0-0.024,0.023
				l-32.762,32.762c-0.059,0.059-0.115,0.118-0.172,0.178c-0.008,0.009-0.016,0.017-0.024,0.026c-0.01,0.011-0.02,0.022-0.031,0.034
				c-0.054,0.059-0.107,0.118-0.158,0.178c-0.012,0.014-0.024,0.028-0.035,0.042c-0.019,0.022-0.037,0.044-0.056,0.066
				c-0.018,0.022-0.036,0.045-0.054,0.067c-0.011,0.014-0.022,0.027-0.033,0.041c-0.017,0.021-0.034,0.043-0.051,0.064
				c-0.012,0.016-0.025,0.032-0.037,0.048c-0.017,0.023-0.034,0.045-0.051,0.068c-0.01,0.014-0.021,0.028-0.032,0.042
				c-0.016,0.021-0.031,0.043-0.046,0.064c-0.012,0.017-0.025,0.034-0.037,0.051c-0.015,0.021-0.029,0.042-0.043,0.062
				c-0.012,0.017-0.024,0.034-0.035,0.051c-0.014,0.021-0.028,0.042-0.042,0.063c-0.012,0.018-0.024,0.037-0.036,0.055
				c-0.014,0.022-0.028,0.044-0.042,0.066c-0.01,0.016-0.021,0.032-0.031,0.048c-0.015,0.025-0.031,0.05-0.046,0.075
				c-0.009,0.015-0.018,0.029-0.027,0.044c-0.014,0.023-0.028,0.048-0.042,0.072c-0.009,0.016-0.019,0.032-0.028,0.048
				c-0.013,0.022-0.025,0.044-0.038,0.066c-0.01,0.018-0.021,0.037-0.031,0.055c-0.012,0.022-0.024,0.044-0.036,0.066
				c-0.01,0.019-0.02,0.037-0.029,0.055c-0.014,0.026-0.027,0.052-0.04,0.078c-0.007,0.015-0.015,0.029-0.022,0.043
				c-0.012,0.025-0.025,0.05-0.037,0.074c-0.008,0.017-0.017,0.034-0.025,0.052c-0.011,0.023-0.022,0.046-0.033,0.069
				c-0.009,0.019-0.017,0.037-0.026,0.055c-0.012,0.025-0.023,0.05-0.034,0.075c-0.007,0.017-0.015,0.033-0.022,0.049
				c-0.01,0.022-0.019,0.044-0.029,0.067c-0.009,0.021-0.018,0.042-0.027,0.064c-0.009,0.021-0.017,0.042-0.026,0.063
				c-0.008,0.021-0.016,0.041-0.024,0.061c-0.01,0.026-0.02,0.052-0.03,0.078c-0.006,0.017-0.013,0.033-0.019,0.05
				c-0.01,0.026-0.019,0.052-0.028,0.078c-0.006,0.017-0.012,0.034-0.018,0.051c-0.01,0.027-0.019,0.055-0.028,0.083
				c-0.005,0.016-0.01,0.031-0.016,0.046c-0.009,0.026-0.017,0.052-0.025,0.077c-0.006,0.02-0.012,0.038-0.018,0.057
				c-0.007,0.022-0.014,0.045-0.02,0.067c-0.007,0.022-0.013,0.043-0.019,0.065s-0.013,0.044-0.019,0.066
				c-0.006,0.021-0.012,0.043-0.018,0.064c-0.007,0.024-0.013,0.048-0.019,0.073c-0.005,0.02-0.01,0.039-0.015,0.059
				c-0.007,0.027-0.013,0.053-0.02,0.08c-0.004,0.017-0.008,0.033-0.012,0.05c-0.007,0.028-0.013,0.057-0.019,0.085
				c-0.004,0.017-0.008,0.034-0.011,0.051c-0.005,0.025-0.011,0.051-0.016,0.077c-0.004,0.019-0.008,0.038-0.011,0.057
				c-0.005,0.027-0.01,0.053-0.015,0.08c-0.003,0.018-0.007,0.036-0.01,0.054c-0.005,0.026-0.009,0.052-0.013,0.078
				c-0.003,0.02-0.007,0.039-0.01,0.059c-0.004,0.025-0.008,0.05-0.011,0.074c-0.003,0.02-0.006,0.04-0.009,0.06
				c-0.004,0.029-0.008,0.058-0.011,0.086c-0.002,0.015-0.004,0.03-0.006,0.045c-0.004,0.03-0.007,0.061-0.01,0.092
				c-0.002,0.015-0.003,0.03-0.005,0.045c-0.003,0.029-0.006,0.059-0.008,0.089c-0.002,0.017-0.003,0.033-0.005,0.05
				c-0.002,0.027-0.004,0.055-0.006,0.082c-0.001,0.019-0.003,0.037-0.004,0.055c-0.002,0.028-0.003,0.056-0.005,0.084
				c-0.001,0.018-0.002,0.035-0.003,0.053c-0.001,0.029-0.002,0.058-0.003,0.086c-0.001,0.016-0.001,0.032-0.002,0.048
				c-0.001,0.031-0.002,0.063-0.002,0.094c0,0.014-0.001,0.028-0.001,0.042c0,0.031,0,0.062,0,0.093c0,0.015,0,0.03,0,0.045
				c0,0.033,0.001,0.065,0.001,0.098c0,0.012,0,0.024,0.001,0.036c0.001,0.033,0.002,0.065,0.003,0.098
				c0.001,0.014,0.001,0.028,0.002,0.042c0.001,0.031,0.003,0.063,0.005,0.094c0.001,0.014,0.002,0.028,0.002,0.042
				c0.002,0.033,0.004,0.067,0.007,0.1c0.001,0.011,0.002,0.023,0.003,0.034c0.003,0.033,0.006,0.067,0.009,0.1
				c0.001,0.013,0.003,0.026,0.004,0.04c0.003,0.033,0.007,0.066,0.011,0.099c0.001,0.012,0.003,0.025,0.004,0.037
				c0.004,0.033,0.008,0.065,0.012,0.098c0.002,0.014,0.004,0.027,0.005,0.041c0.005,0.033,0.009,0.066,0.014,0.099
				c0.002,0.012,0.004,0.024,0.005,0.036c0.005,0.034,0.011,0.067,0.016,0.101c0.002,0.013,0.004,0.026,0.007,0.039
				c0.006,0.032,0.012,0.064,0.018,0.096c0.002,0.013,0.005,0.025,0.007,0.038c0.007,0.033,0.013,0.067,0.02,0.101
				c0.002,0.012,0.005,0.024,0.008,0.036c0.007,0.034,0.015,0.069,0.023,0.102c0.002,0.011,0.005,0.021,0.007,0.032
				c0.008,0.032,0.015,0.065,0.023,0.097c0.004,0.015,0.008,0.03,0.011,0.045c0.008,0.03,0.016,0.061,0.024,0.09l0.011,0.042
				c0.009,0.032,0.018,0.064,0.027,0.096c0.004,0.013,0.007,0.025,0.011,0.038c0.009,0.031,0.018,0.062,0.028,0.093
				c0.005,0.016,0.01,0.031,0.014,0.046c0.009,0.029,0.018,0.057,0.027,0.086c0.006,0.017,0.011,0.034,0.017,0.05
				c0.009,0.027,0.019,0.055,0.028,0.083c0.006,0.017,0.012,0.035,0.018,0.052c0.009,0.026,0.018,0.051,0.028,0.077
				c0.008,0.021,0.015,0.041,0.023,0.062c0.009,0.024,0.018,0.047,0.027,0.071c0.008,0.02,0.016,0.04,0.024,0.06
				c0.01,0.024,0.019,0.048,0.029,0.072c0.004,0.01,0.008,0.02,0.012,0.029l10.931,26.233c0.744,1.786,2.152,3.213,3.927,3.98
				l26.963,11.661c2.811,1.215,6.077,0.591,8.241-1.573l32.786-32.787c2.932,18.297-2.964,37.234-16.38,50.65
				c-16.978,16.979-43.138,21.84-65.095,12.101c-2.823-1.251-6.123-0.639-8.306,1.545L179.83,356.677
				c-2.915,2.916-2.915,7.642,0,10.557c2.915,2.914,7.642,2.914,10.556,0l90.692-90.692c11.299,6.699,23.442,11.669,36.161,14.8
				v10.076c0,11.367,9.248,20.615,20.615,20.615h23.166c11.367,0,20.615-9.248,20.615-20.615v-10.076
				c13.127-3.229,25.603-8.4,37.184-15.411l7.131,7.131c3.893,3.893,9.071,6.037,14.577,6.037c5.506,0,10.683-2.144,14.577-6.037
				l16.38-16.38c3.894-3.893,6.038-9.071,6.038-14.577c0-5.507-2.144-10.683-6.038-14.578l-7.131-7.13
				c7.011-11.583,12.183-24.061,15.411-37.184h10.075c11.367,0,20.615-9.248,20.615-20.615v-23.165
				C510.451,138.069,501.203,128.821,489.835,128.821z M384.319,156.561l-15.115,15.115l-19.63-9.019l-7.808-18.217l18.78-18.781
				l21.028,6.31l6.309,21.028L384.319,156.561z M495.522,172.602c0,3.135-2.551,5.686-5.686,5.686h-13.864
				c-4.754,0-8.937,3.383-9.941,8.044c-3.02,13.981-8.49,27.18-16.26,39.233c-2.582,4.006-2.016,9.355,1.345,12.716l9.808,9.808
				c1.074,1.074,1.665,2.502,1.665,4.02c0,1.519-0.591,2.947-1.666,4.021l-16.38,16.38c-2.217,2.218-5.825,2.218-8.042,0
				l-9.808-9.808c-3.36-3.36-8.709-3.926-12.718-1.344c-12.049,7.769-25.249,13.239-39.23,16.26
				c-4.662,1.005-8.045,5.186-8.045,9.941v13.865c0,3.135-2.551,5.686-5.686,5.686H337.85c-3.135,0-5.686-2.551-5.686-5.686v-13.864
				c0-4.755-3.384-8.937-8.043-9.942c-11.254-2.43-22.032-6.465-32.106-12.01l14.171-14.17c13.431,6.423,28.269,9.797,43.248,9.797
				c47.843,0,89.206-34.036,98.354-80.93c0.789-4.046-1.851-7.966-5.897-8.755c-4.047-0.791-7.967,1.85-8.755,5.898
				c-7.782,39.899-42.984,68.86-83.7,68.86c-10.964,0-21.834-2.122-31.928-6.19l8.665-8.665c26.491,9.534,56.8,2.956,76.881-17.126
				c20.479-20.479,27-51.197,16.614-78.26c-0.906-2.36-2.944-4.101-5.416-4.626c-2.47-0.524-5.043,0.235-6.831,2.022l-7.544,7.544
				l-5.154-17.178c-0.721-2.404-2.602-4.284-5.004-5.004l-17.178-5.154l7.543-7.543c1.787-1.787,2.549-4.358,2.023-6.831
				c-0.526-2.472-2.267-4.511-4.627-5.416c-27.062-10.385-57.779-3.864-78.258,16.613c-20.081,20.083-26.661,50.393-17.126,76.881
				l-9.881,9.881c-5.297-11.279-8.065-23.639-8.065-36.235c0-47.028,38.259-85.287,85.287-85.287
				c42.749,0,79.108,31.916,84.577,74.242c0.528,4.089,4.27,6.975,8.359,6.447c4.089-0.529,6.975-4.271,6.446-8.359
				c-6.427-49.745-49.152-87.258-99.383-87.258c-55.258,0-100.216,44.957-100.216,100.216c0,16.593,4.092,32.843,11.879,47.351
				l-13.994,13.993c-6.719-11.184-11.519-23.305-14.267-36.032c-1.007-4.661-5.188-8.044-9.943-8.044h-13.863
				c-3.135,0-5.686-2.551-5.686-5.686v-23.165c0-3.135,2.551-5.687,5.686-5.687h13.864c4.754,0,8.935-3.382,9.941-8.043
				c3.02-13.981,8.49-27.18,16.26-39.233c2.584-4.009,2.016-9.358-1.345-12.716l-9.808-9.807c-2.217-2.218-2.217-5.826,0-8.043
				l16.38-16.38c2.217-2.218,5.825-2.218,8.042,0l9.807,9.807c3.361,3.363,8.71,3.929,12.719,1.346
				c12.053-7.77,25.252-13.24,39.236-16.26c4.658-1.009,8.039-5.189,8.039-9.94V20.615c0-3.135,2.551-5.686,5.686-5.686h23.166
				c3.135,0,5.686,2.551,5.686,5.686V34.48c0,4.75,3.381,8.932,8.043,9.941c13.98,3.019,27.179,8.489,39.23,16.258
				c4.007,2.584,9.356,2.017,12.72-1.343l9.808-9.808c2.217-2.218,5.825-2.218,8.042,0l16.38,16.38c2.217,2.217,2.217,5.825,0,8.042
				l-9.806,9.806c-3.364,3.361-3.931,8.71-1.347,12.721c7.769,12.051,13.239,25.25,16.259,39.23
				c1.006,4.662,5.186,8.044,9.941,8.044h13.864c3.135,0,5.686,2.551,5.686,5.687V172.602z"/>
		<path d="M153.399,147.85h-4.182c-0.795-2.298-1.724-4.543-2.783-6.728l2.956-2.955c4.364-4.366,4.364-11.469-0.001-15.836
			l-13.019-13.018c-2.115-2.115-4.927-3.279-7.918-3.279s-5.803,1.165-7.917,3.279l-2.955,2.955
			c-2.184-1.058-4.43-1.988-6.728-2.783v-4.182c0-6.175-5.023-11.198-11.198-11.198H81.242c-6.175,0-11.198,5.023-11.198,11.198
			v4.182c-2.298,0.795-4.543,1.724-6.728,2.783l-2.954-2.954c-2.115-2.115-4.927-3.28-7.918-3.28c-2.991,0-5.803,1.164-7.918,3.279
			l-13.02,13.019c-4.364,4.366-4.364,11.469,0.001,15.836l2.955,2.954c-1.058,2.184-1.988,4.43-2.783,6.728h-4.182
			c-6.175,0-11.198,5.023-11.198,11.198v18.411c0.001,6.175,5.024,11.198,11.199,11.198h4.182c0.795,2.298,1.724,4.543,2.783,6.728
			l-2.956,2.955c-4.364,4.366-4.364,11.469,0.001,15.836l13.019,13.018c2.115,2.115,4.927,3.279,7.918,3.279
			c2.992,0,5.803-1.165,7.917-3.279l2.955-2.955c2.184,1.058,4.43,1.988,6.728,2.783v4.182c0,6.175,5.023,11.198,11.198,11.198
			h18.411c6.175,0,11.198-5.023,11.198-11.198v-4.182c2.298-0.795,4.543-1.724,6.728-2.783l2.954,2.954
			c2.115,2.115,4.927,3.28,7.918,3.28c2.991,0,5.803-1.164,7.918-3.279l13.02-13.019c4.364-4.366,4.364-11.469-0.001-15.836
			l-2.955-2.954c1.058-2.184,1.988-4.43,2.783-6.728h4.182c6.175,0,11.198-5.023,11.198-11.198v-18.411
			C164.597,152.874,159.574,147.85,153.399,147.85z M149.664,173.727h-6.031c-3.445,0-6.443,2.358-7.255,5.706
			c-1.151,4.748-3.016,9.256-5.543,13.397c-1.794,2.942-1.343,6.73,1.095,9.166l4.26,4.259l-7.741,7.741l-4.26-4.26
			c-2.437-2.434-6.222-2.887-9.164-1.095c-4.143,2.528-8.651,4.392-13.398,5.543c-3.348,0.811-5.706,3.809-5.706,7.255v6.031H84.972
			v-6.031c0-3.446-2.358-6.443-5.706-7.255c-4.747-1.151-9.255-3.015-13.398-5.543c-2.941-1.794-6.729-1.344-9.164,1.095l-4.26,4.26
			l-7.741-7.741l4.26-4.259c2.436-2.436,2.888-6.224,1.095-9.166c-2.527-4.141-4.392-8.649-5.543-13.397
			c-0.811-3.348-3.81-5.706-7.255-5.706h-6.031v-10.948h6.031c3.445,0,6.443-2.358,7.255-5.706
			c1.151-4.748,3.016-9.256,5.543-13.397c1.794-2.942,1.343-6.73-1.095-9.166l-4.26-4.259l7.741-7.741l4.26,4.26
			c2.437,2.435,6.223,2.888,9.164,1.095c4.143-2.528,8.651-4.392,13.398-5.543c3.348-0.811,5.706-3.809,5.706-7.255v-6.031H95.92
			v6.031c0,3.446,2.358,6.443,5.706,7.255c4.747,1.151,9.255,3.015,13.398,5.543c2.939,1.792,6.728,1.342,9.164-1.095l4.26-4.26
			l7.741,7.741l-4.26,4.259c-2.436,2.436-2.888,6.224-1.095,9.166c2.527,4.141,4.392,8.649,5.543,13.397
			c0.811,3.348,3.81,5.706,7.255,5.706h6.031V173.727z"/>
		<path d="M90.447,131.926c-20.031,0-36.327,16.297-36.327,36.327s16.297,36.327,36.327,36.327s36.327-16.297,36.327-36.327
			S110.478,131.926,90.447,131.926z M90.447,189.652c-11.799,0-21.398-9.599-21.398-21.398c0-11.799,9.599-21.398,21.398-21.398
			s21.398,9.599,21.398,21.398C111.846,180.052,102.246,189.652,90.447,189.652z"/>
		<path d="M414.158,394.678h-4.182c-0.795-2.298-1.724-4.543-2.783-6.728l2.956-2.955c4.364-4.366,4.364-11.469-0.001-15.836
			l-13.019-13.018c-2.115-2.115-4.927-3.279-7.918-3.279s-5.803,1.165-7.917,3.279l-2.955,2.955
			c-2.184-1.058-4.43-1.988-6.728-2.783v-4.182c0-6.175-5.023-11.198-11.198-11.198h-18.41c-6.175,0-11.198,5.023-11.198,11.198
			v4.182c-2.298,0.795-4.543,1.724-6.728,2.783l-2.954-2.954c-2.115-2.115-4.927-3.28-7.918-3.28c-2.991,0-5.803,1.164-7.918,3.279
			l-13.02,13.019c-4.364,4.366-4.364,11.469,0.001,15.836l2.955,2.954c-1.058,2.184-1.988,4.43-2.783,6.728h-4.182
			c-6.175,0-11.198,5.023-11.198,11.198v18.411c0,6.175,5.023,11.198,11.198,11.198h4.182c0.795,2.298,1.724,4.543,2.783,6.728
			l-2.956,2.955c-4.364,4.366-4.364,11.469,0.001,15.836l13.019,13.018c2.115,2.115,4.927,3.279,7.918,3.279
			s5.803-1.165,7.917-3.279l2.955-2.955c2.184,1.058,4.43,1.988,6.728,2.783v4.182c0,6.175,5.023,11.198,11.198,11.198h18.41
			c6.175,0,11.198-5.023,11.198-11.198v-4.182c2.298-0.795,4.543-1.724,6.728-2.783l2.954,2.954c2.115,2.115,4.927,3.28,7.918,3.28
			c2.991,0,5.803-1.164,7.918-3.279l13.02-13.019c4.364-4.366,4.364-11.469-0.001-15.836l-2.955-2.954
			c1.058-2.184,1.988-4.43,2.783-6.728h4.182c6.175,0,11.198-5.023,11.198-11.198v-18.411
			C425.356,399.701,420.332,394.678,414.158,394.678z M410.427,420.555h-6.031c-3.445,0-6.443,2.358-7.255,5.706
			c-1.151,4.748-3.016,9.256-5.543,13.397c-1.794,2.942-1.343,6.73,1.095,9.166l4.26,4.259l-7.741,7.741l-4.26-4.26
			c-2.436-2.435-6.223-2.887-9.164-1.095c-4.143,2.528-8.651,4.392-13.398,5.543c-3.348,0.811-5.706,3.809-5.706,7.255v6.031
			h-10.948v-6.031c0-3.446-2.358-6.443-5.706-7.255c-4.747-1.151-9.255-3.015-13.398-5.543c-2.941-1.794-6.729-1.343-9.164,1.095
			l-4.26,4.26l-7.741-7.741l4.26-4.259c2.436-2.436,2.888-6.224,1.095-9.166c-2.527-4.141-4.392-8.649-5.543-13.397
			c-0.811-3.348-3.81-5.706-7.255-5.706h-6.031v-10.948h6.031c3.445,0,6.443-2.358,7.255-5.706
			c1.151-4.748,3.016-9.256,5.543-13.397c1.794-2.942,1.343-6.73-1.095-9.166l-4.26-4.259l7.741-7.741l4.26,4.26
			c2.437,2.435,6.223,2.888,9.164,1.095c4.143-2.528,8.651-4.392,13.398-5.543c3.348-0.811,5.706-3.809,5.706-7.255v-6.031h10.948
			v6.031c0,3.446,2.358,6.443,5.706,7.255c4.747,1.151,9.255,3.015,13.398,5.543c2.939,1.792,6.727,1.342,9.164-1.095l4.26-4.26
			l7.741,7.741l-4.26,4.259c-2.436,2.436-2.888,6.224-1.095,9.166c2.527,4.141,4.392,8.649,5.543,13.397
			c0.811,3.348,3.81,5.706,7.255,5.706h6.031V420.555z"/>
		<path d="M351.208,378.753c-20.031,0-36.327,16.297-36.327,36.327s16.297,36.327,36.327,36.327s36.327-16.297,36.327-36.327
			S371.239,378.753,351.208,378.753z M351.208,436.479c-11.799,0-21.398-9.599-21.398-21.398s9.599-21.398,21.398-21.398
			s21.398,9.599,21.398,21.398S363.007,436.479,351.208,436.479z"/>
</svg>