<?xml version="1.0" encoding="iso-8859-1"?>
<!-- Generator: Adobe Illustrator 19.0.0, SVG Export Plug-In . SVG Version: 6.00 Build 0)  -->
<svg version="1.1" id="Capa_1" xmlns="http://www.w3.org/2000/svg" xmlns:xlink="http://www.w3.org/1999/xlink" x="0px" y="0px"
	 viewBox="0 0 496.002 496.002" style="enable-background:new 0 0 496.002 496.002;" xml:space="preserve">
<g>
	<g>
		<g>
			<path d="M144.001,176h-40c-48.577,0.057-87.943,39.423-88,88v72h-8c-4.418,0-8,3.582-8,8v32c0,4.418,3.582,8,8,8h112
				c4.418,0,8-3.582,8-8v-32c0-4.418-3.582-8-8-8h-8v-56c0-4.418,3.582-8,8-8h24v16h16V160h-16V176z M112.001,368h-96v-16h96V368z
				 M144.001,256h-24c-13.255,0-24,10.745-24,24v56h-64v-72c0.044-39.746,32.254-71.956,72-72h40V256z"/>
			<path d="M400.001,176h-40v0.208c-4.551-6.078-9.938-11.483-16-16.056V128h16v-16h-128v16h16v32.152
				c-6.062,4.573-11.449,9.978-16,16.056V176h-40v-16h-16v128h16v-16h40v-0.208c26.221,35.346,76.132,42.743,111.478,16.522
				c6.289-4.666,11.856-10.233,16.522-16.522V272h40v16h16V160h-16V176z M222.729,256h-30.728v-64h30.728
				C213.758,212.39,213.758,235.61,222.729,256z M264.001,128h64v22.728c-20.39-8.971-43.61-8.971-64,0V128z M296.001,288
				c-32.223-0.054-59.392-24.033-63.448-56h16.168c4.392,26.112,29.12,43.72,55.232,39.328
				c20.151-3.389,35.939-19.177,39.328-39.328h16.168C355.393,263.967,328.224,287.946,296.001,288z M264.001,224
				c0-17.673,14.327-32,32-32c17.673,0,32,14.327,32,32s-14.327,32-32,32C278.328,256,264.001,241.673,264.001,224z M343.281,216
				c-4.392-26.112-29.12-43.72-55.232-39.328c-20.151,3.389-35.939,19.177-39.328,39.328h-16.168
				c4.056-31.967,31.225-55.946,63.448-56c32.223,0.054,59.392,24.033,63.448,56H343.281z M400.001,256h-30.728
				c8.971-20.39,8.971-43.61,0-64h30.728V256z"/>
			<path d="M488.001,176h-40v-16h-16v128h16v-16h40c4.418,0,8-3.582,8-8v-80C496.001,179.582,492.419,176,488.001,176z M480.001,256
				h-32v-64h32V256z"/>
			<path d="M70.553,403.416c-2.803-3.619-8.009-4.28-11.628-1.476c-0.552,0.428-1.048,0.924-1.476,1.476l-27.64,39.544
				c-7.263,10.025-7.747,23.446-1.224,33.968c7.752,12.011,21.121,19.21,35.416,19.072c14.295,0.138,27.664-7.061,35.416-19.072
				c6.523-10.522,6.039-23.943-1.224-33.968L70.553,403.416z M85.929,468.32L85.929,468.32c-4.823,7.396-13.099,11.805-21.928,11.68
				c-8.829,0.125-17.105-4.284-21.928-11.68c-3.035-5.059-2.719-11.449,0.8-16.184l21.128-30.176l21.088,30.176
				C88.621,456.863,88.952,463.253,85.929,468.32z"/>
			<path d="M392.001,0h-192c-13.255,0-24,10.745-24,24s10.745,24,24,24h43.72l21.336,32h-33.056v16h128V80h-33.056l21.336-32h43.72
				c13.255,0,24-10.745,24-24S405.256,0,392.001,0z M307.721,80h-23.44l-21.336-32h66.112L307.721,80z M392.001,32h-192
				c-4.418,0-8-3.582-8-8s3.582-8,8-8h192c4.418,0,8,3.582,8,8S396.419,32,392.001,32z"/>
		</g>
	</g>
</g>
<g>
</g>
<g>
</g>
<g>
</g>
<g>
</g>
<g>
</g>
<g>
</g>
<g>
</g>
<g>
</g>
<g>
</g>
<g>
</g>
<g>
</g>
<g>
</g>
<g>
</g>
<g>
</g>
<g>
</g>
</svg>
