<?xml version="1.0" encoding="iso-8859-1"?>
<!-- Generator: Adobe Illustrator 19.0.0, SVG Export Plug-In . SVG Version: 6.00 Build 0)  -->
<svg version="1.1" id="Capa_1" xmlns="http://www.w3.org/2000/svg" xmlns:xlink="http://www.w3.org/1999/xlink" x="0px" y="0px"
	 viewBox="0 0 512.003 512.003" style="enable-background:new 0 0 512.003 512.003;" xml:space="preserve">
<g>
	<g>
		<path d="M469.322,323.07v-0.833c0-18.413-14.981-33.394-33.395-33.394h-95.291l6.196-138.71c0.139-3.124-1.631-6.02-4.476-7.319
			c-24.982-11.41-41.124-36.507-41.124-63.937c0-23.546,11.821-45.28,30.921-58.208v47.282c0,10.904,8.872,19.775,19.776,19.775
			h39.147c10.904,0,19.776-8.871,19.776-19.775V20.67c19.1,12.928,30.921,34.662,30.921,58.208c0,28.129-16.709,53.482-42.567,64.59
			c-2.949,1.267-4.797,4.236-4.632,7.442l5.394,104.645c0.218,4.229,3.818,7.491,8.054,7.264c4.23-0.218,7.482-3.824,7.264-8.054
			l-5.129-99.492c28.693-14.516,46.953-43.939,46.953-76.396c0-33.759-19.943-64.459-50.807-78.213
			c-2.372-1.057-5.118-0.842-7.298,0.573c-2.178,1.414-3.493,3.835-3.493,6.432v60.28c0,2.447-1.991,4.437-4.437,4.437h-39.147
			c-2.447,0-4.437-1.99-4.437-4.437V7.671c0-2.597-1.315-5.018-3.493-6.432c-2.179-1.415-4.926-1.63-7.298-0.573
			c-30.864,13.753-50.807,44.454-50.807,78.213c0,31.666,17.651,60.776,45.391,75.566l-0.264,16.507
			c-5.309-4.207-12.006-6.734-19.284-6.751c-3.211-0.062-13.883,0.497-22.283,9.271c-7.12,7.438-8.276,16.197-8.331,20.754
			c-0.007,0.615-0.122,1.262-0.341,1.924c-5.175,15.659-11.925,30.494-20.063,44.092c-2.175,3.634-0.992,8.344,2.642,10.519
			c3.635,2.176,8.344,0.992,10.519-2.642c8.715-14.564,15.938-30.429,21.465-47.154c0.713-2.155,1.088-4.358,1.115-6.55
			c0.028-2.3,0.594-6.701,4.073-10.335c4.059-4.239,9.362-4.543,10.791-4.543c0.144,0,0.236,0.003,0.34,0.003
			c8.771,0,15.907,7.147,15.907,15.933c0,3.42,0.024,6.584,0.047,9.576c0.037,4.813,0.069,8.969-0.004,13.086
			c-0.214,12.18-0.757,23.017-1.281,33.497c-0.682,13.62-1.387,27.703-1.387,44.882c0,4.236,3.434,7.669,7.669,7.669h103.31
			c9.956,0,18.056,8.1,18.056,18.056v0.833c0,9.956-8.1,18.057-18.056,18.057h-22.27c-4.236,0-7.669,3.433-7.669,7.669
			c0,4.236,3.434,7.669,7.669,7.669h22.27c9.956,0,18.056,8.101,18.056,18.057v0.175c0,9.956-8.1,18.056-18.056,18.056h-22.27
			c-4.236,0-7.669,3.433-7.669,7.669c0,4.236,3.434,7.669,7.669,7.669h22.27c9.956,0,18.056,8.101,18.056,18.057v1.008
			c0,9.956-8.1,18.057-18.056,18.057h-22.27c-4.236,0-7.669,3.433-7.669,7.669c0,4.236,3.434,7.669,7.669,7.669h22.27
			c9.956,0,18.056,8.101,18.056,18.057s-8.1,18.056-18.056,18.056H252.886c-18.039,0-35.126-6.895-48.113-19.415l-7.697-7.42
			v-146.86c10.478-5.824,20.429-12.547,29.63-20.032c5.563-4.526,10.946-9.406,16-14.506c2.981-3.009,2.959-7.864-0.049-10.846
			s-7.864-2.959-10.846,0.049c-4.67,4.712-9.644,9.222-14.785,13.405c-6.507,5.293-13.428,10.165-20.658,14.581
			c-2.49-9.636-11.257-16.776-21.66-16.776H50.351c-4.236,0-7.669,3.433-7.669,7.669v207.819c0,4.236,3.434,7.669,7.669,7.669
			h124.356c11.888,0,21.636-9.323,22.326-21.04c15.461,13.596,35.142,21.04,55.853,21.04h183.041
			c18.414,0,33.395-14.981,33.395-33.395c0-10.338-4.722-19.594-12.123-25.725c7.401-6.13,12.123-15.387,12.123-25.726v-1.008
			c0-10.338-4.722-19.595-12.123-25.726c7.401-6.13,12.123-15.386,12.123-25.725v-0.175c0-10.339-4.723-19.595-12.124-25.726
			C464.598,342.666,469.322,333.409,469.322,323.07z M181.738,318.298c0,0.011,0,0.022,0,0.033v171.301
			c0,3.877-3.154,7.031-7.03,7.031H58.02V304.182h116.687c3.877,0,7.03,3.154,7.03,7.03V318.298z"/>
	</g>
</g>
<g>
	<g>
		<circle cx="137.272" cy="343.741" r="10.742"/>
	</g>
</g>
<g>
</g>
<g>
</g>
<g>
</g>
<g>
</g>
<g>
</g>
<g>
</g>
<g>
</g>
<g>
</g>
<g>
</g>
<g>
</g>
<g>
</g>
<g>
</g>
<g>
</g>
<g>
</g>
<g>
</g>
</svg>
