<?xml version="1.0" encoding="iso-8859-1"?>
<!-- Generator: Adobe Illustrator 19.0.0, SVG Export Plug-In . SVG Version: 6.00 Build 0)  -->
<svg version="1.1" id="Capa_1" xmlns="http://www.w3.org/2000/svg" xmlns:xlink="http://www.w3.org/1999/xlink" x="0px" y="0px"
	 viewBox="0 0 512 512" style="enable-background:new 0 0 512 512;" xml:space="preserve">
<g>
	<g>
		<path d="M505.195,149.385L474.01,131.38c-2.011-1.161-3.449-3.036-4.051-5.279c-0.601-2.243-0.292-4.586,0.869-6.597
			l18.006-31.186c1.692-2.933,1.692-6.576-0.002-9.508c-1.693-2.932-4.848-4.753-8.234-4.753h-36.009
			c-2.322,0-4.505-0.904-6.148-2.548c-1.642-1.641-2.546-3.824-2.546-6.147v-36.01c0-3.386-1.822-6.541-4.754-8.234
			s-6.576-1.693-9.509,0l-31.184,18.005c-2.011,1.161-4.351,1.471-6.599,0.868c-2.242-0.601-4.117-2.039-5.278-4.051L360.565,4.752
			C358.871,1.821,355.715,0,352.33,0c-3.385,0-6.54,1.821-8.235,4.754l-18.004,31.185c-1.161,2.011-3.036,3.45-5.279,4.051
			c-2.243,0.602-4.586,0.292-6.597-0.868L283.03,21.117c-2.932-1.693-6.576-1.693-9.509,0c-2.932,1.693-4.754,4.849-4.754,8.234
			v36.01c0,2.322-0.904,4.506-2.547,6.148c-1.642,1.642-3.825,2.546-6.147,2.546h-36.009c-3.386,0-6.541,1.821-8.234,4.753
			s-1.693,6.576,0,9.51l18.005,31.185c1.161,2.011,1.47,4.354,0.868,6.598c-0.601,2.243-2.039,4.117-4.051,5.279l-31.183,18.004
			c-2.934,1.693-4.756,4.849-4.756,8.235c0,2.447,0.962,4.765,2.596,6.506h-91.153c-4.919,0-9.4,2.9-11.414,7.387l-22.42,49.936
			c-0.002,0.004-0.003,0.007-0.005,0.011L3.156,375.501c-1.746,3.888-1.406,8.344,0.91,11.922c2.316,3.577,6.242,5.714,10.504,5.714
			h100.152c0.009,0,0.018,0.002,0.027,0.002c0.008,0,0.016-0.002,0.024-0.002h77.251V419.9c0,4.146,3.361,7.507,7.507,7.507
			s7.507-3.361,7.507-7.507v-26.763h64.006v103.849h-64.006v-24.538c0-4.146-3.361-7.507-7.507-7.507s-7.507,3.361-7.507,7.507
			v24.538h-41.151c-4.146,0-7.507,3.361-7.507,7.507s3.361,7.507,7.507,7.507h48.658h79.019h48.658c4.146,0,7.507-3.361,7.507-7.507
			s-3.36-7.507-7.507-7.507h-41.151V393.137h77.252c0.008,0,0.016,0.002,0.024,0.002c0.009,0,0.018-0.002,0.027-0.002h100.151
			c4.262,0,8.188-2.136,10.504-5.714c2.316-3.577,2.656-8.035,0.91-11.922l-39.319-87.577c0.183-0.649,0.288-1.331,0.288-2.038
			v-36.009c0-2.322,0.904-4.506,2.547-6.149c1.641-1.642,3.825-2.546,6.147-2.546h36.009c3.386,0,6.541-1.821,8.234-4.753
			c1.694-2.932,1.694-6.575,0.001-9.51l-18.005-31.185c-1.161-2.012-1.47-4.355-0.869-6.597c0.601-2.243,2.04-4.118,4.051-5.28
			l31.185-18.004c2.932-1.693,4.754-4.849,4.754-8.235C509.948,154.232,508.128,151.077,505.195,149.385z M107.774,179.139h59.863
			l-11.095,37.733H90.833L107.774,179.139z M84.093,231.885h68.035l-16.596,56.444H58.751L84.093,231.885z M109.129,378.123H18.436
			l33.575-74.781h79.106L109.129,378.123z M231.534,378.124h-32.002h-74.754l21.988-74.781h84.768V378.124z M231.534,288.329H151.18
			l16.596-56.444h63.758V288.329z M231.535,216.871L231.535,216.871h-59.344l11.095-37.733h48.249V216.871z M278.551,378.124
			h-32.003v-74.781h84.769l21.988,74.781H278.551z M310.306,231.885l16.596,56.444h-80.354v-56.444H310.306z M246.548,216.872
			v-37.733h48.248l11.095,37.733H246.548z M321.54,216.871l-11.095-37.733h59.863l16.941,37.733H321.54z M393.989,231.885
			l25.342,56.444h-76.78l-16.597-56.444H393.989z M459.647,378.124h-90.693l-21.988-74.781h79.106L459.647,378.124z
			 M466.502,170.857c-5.483,3.166-9.405,8.278-11.044,14.395c-1.639,6.116-0.799,12.505,2.368,17.99l13.238,22.927h-26.475
			c-6.333,0-12.286,2.466-16.763,6.943c-4.479,4.478-6.945,10.431-6.945,16.765v5.248L408.1,226.657
			c20.849-16.82,33.167-42.367,33.167-69.271c0-49.039-39.896-88.936-88.936-88.936c-3.012,0-6.048,0.152-9.024,0.453
			c-4.125,0.416-7.13,4.098-6.714,8.223c0.417,4.125,4.105,7.134,8.223,6.714c2.476-0.25,5.005-0.377,7.515-0.377
			c40.76,0,73.922,33.161,73.922,73.922c0,21.031-9.06,41.065-24.557,55.008l-18.355-40.883c-2.014-4.487-6.495-7.387-11.414-7.387
			h-71.37c-0.023,0-0.045,0-0.068,0h-21.772c-0.201-2.234-0.309-4.49-0.309-6.739c0-20.367,8.108-39.339,22.829-53.423
			c2.996-2.866,3.101-7.618,0.235-10.614c-2.864-2.996-7.618-3.101-10.613-0.235c-17.71,16.944-27.464,39.769-27.464,64.272
			c0,2.246,0.095,4.499,0.263,6.739h-37.222c-0.17-0.118-0.342-0.234-0.524-0.339l-10.681-6.167l22.927-13.238
			c5.484-3.166,9.407-8.279,11.046-14.395c1.64-6.117,0.799-12.506-2.368-17.99l-13.238-22.927h26.475
			c6.333,0,12.286-2.466,16.763-6.943c4.479-4.477,6.945-10.431,6.945-16.765V38.886l22.929,13.238
			c5.483,3.166,11.873,4.006,17.988,2.368c6.117-1.639,11.229-5.562,14.396-11.046l13.238-22.928l13.238,22.928
			c3.167,5.484,8.279,9.407,14.395,11.046c6.116,1.64,12.504,0.798,17.99-2.368l22.928-13.238v26.475
			c0,6.334,2.466,12.287,6.944,16.763c4.478,4.479,10.431,6.945,16.764,6.945h26.474l-13.237,22.927
			c-3.167,5.484-4.008,11.874-2.368,17.99c1.639,6.117,5.562,11.229,11.045,14.395l22.928,13.238L466.502,170.857z"/>
	</g>
</g>
<g>
</g>
<g>
</g>
<g>
</g>
<g>
</g>
<g>
</g>
<g>
</g>
<g>
</g>
<g>
</g>
<g>
</g>
<g>
</g>
<g>
</g>
<g>
</g>
<g>
</g>
<g>
</g>
<g>
</g>
</svg>
