<?xml version="1.0" encoding="iso-8859-1"?>
<!-- Generator: Adobe Illustrator 19.0.0, SVG Export Plug-In . SVG Version: 6.00 Build 0)  -->
<svg version="1.1" id="Capa_1" xmlns="http://www.w3.org/2000/svg" xmlns:xlink="http://www.w3.org/1999/xlink" x="0px" y="0px"
	 viewBox="0 0 512 512" style="enable-background:new 0 0 512 512;" xml:space="preserve">
<g>
	<g>
		<path d="M136,449c-5.52,0-10,4.48-10,10c0,5.52,4.48,10,10,10s10-4.48,10-10C146,453.48,141.52,449,136,449z"/>
	</g>
</g>
<g>
	<g>
		<path d="M276,449H176c-5.523,0-10,4.477-10,10s4.477,10,10,10h100c5.523,0,10-4.477,10-10S281.523,449,276,449z"/>
	</g>
</g>
<g>
	<g>
		<path d="M511.998,129.957c-0.019-4.199-2.664-7.84-6.415-9.295L225.556,7.264C220.11,2.569,213.25,0,206,0
			c-10.4,0-20.076,5.499-25.502,14.23L4.791,121.464C1.825,123.272,0,126.58,0,130v40c0,5.523,4.477,10,10,10h10v50
			c0,5.523,4.477,10,10,10h86c5.523,0,10-4.477,10-10v-50h20c0,10.184,0,222.341,0,229h-30c-16.542,0-30,13.458-30,30v63
			c0,5.522,4.477,10,10,10h220c5.523,0,10-4.478,10-10v-63c0-16.542-13.458-30-30-30h-30c0-10.425,0-218.708,0-229h146v40.7
			c0,2.652,1.054,5.196,2.929,7.071L432,244.843v59.871c-11.641,4.127-20,15.249-20,28.287c0,16.542,13.458,30,30,30
			c11.561,0,22.216-6.758,27.146-17.217c2.354-4.996,0.213-10.954-4.783-13.309c-4.997-2.354-10.955-0.213-13.309,4.783
			C449.41,340.746,445.856,343,442,343c-5.514,0-10-4.486-10-10c0-5.514,4.486-10,10-10c5.523,0,10-4.477,10-10v-68.157
			l17.071-17.071c1.875-1.875,2.929-4.419,2.929-7.071V180h30c5.523,0,10-4.477,10-10v-40
			C512,129.985,511.998,129.971,511.998,129.957z M196,30c0-5.703,4.678-10,10-10c5.491,0,10,4.455,10,10v70h-20V30z M186,120
			c5.686,0,51.787,0,60,0c0,7.166,0,60.844,0,68.344L179.646,120H186z M179.646,326H246v68.344L179.646,326z M232.354,409H166
			v-68.344L232.354,409z M166,306v-68.344L232.354,306H166z M179.646,223H246v68.344L179.646,223z M166,203
			c0-6.347,0-60.928,0-68.344L232.354,203H166z M176,40.407V100h-20c-0.047,0-0.093,0.006-0.14,0.007
			c-0.128,0.002-0.256,0.01-0.385,0.016c-0.13,0.007-0.26,0.011-0.39,0.023c-0.101,0.009-0.2,0.023-0.299,0.035
			c-0.048,0.006-0.096,0.005-0.144,0.012l-98.566,13.502L176,40.407z M106,220H40v-40h66V220z M20,160v-21.276l126-17.26V160
			C102.008,160,117.037,160,20,160z M296,429c5.514,0,10,4.486,10,10v53H106v-53c0-5.514,4.486-10,10-10
			C120.814,429,291.19,429,296,429z M256.811,100.033c-0.129-0.01-0.257-0.006-0.386-0.011C256.282,100.015,256.143,100,256,100h-20
			V33.071l201.665,81.665L256.811,100.033z M452,216.558l-10,10l-10-10V180h20V216.558z M492,160H266v-39.154l226,18.374V160z"/>
	</g>
</g>
<g>
</g>
<g>
</g>
<g>
</g>
<g>
</g>
<g>
</g>
<g>
</g>
<g>
</g>
<g>
</g>
<g>
</g>
<g>
</g>
<g>
</g>
<g>
</g>
<g>
</g>
<g>
</g>
<g>
</g>
</svg>
