<?xml version="1.0" encoding="utf-8"?>
<!-- Generator: Adobe Illustrator 16.0.0, SVG Export Plug-In . SVG Version: 6.00 Build 0)  -->
<!DOCTYPE svg PUBLIC "-//W3C//DTD SVG 1.1//EN" "http://www.w3.org/Graphics/SVG/1.1/DTD/svg11.dtd">
<svg version="1.1" id="Layer_1" xmlns="http://www.w3.org/2000/svg" xmlns:xlink="http://www.w3.org/1999/xlink" x="0px" y="0px"
	 width="637.035px" height="248.016px" viewBox="0 0 637.035 248.016" enable-background="new 0 0 637.035 248.016"
	 xml:space="preserve">
<g>
	<g>
		<defs>
			<rect id="SVGID_1_" x="192.334" width="253.441" height="248.016"/>
		</defs>
		<clipPath id="SVGID_2_">
			<use xlink:href="#SVGID_1_"  overflow="visible"/>
		</clipPath>
		<path clip-path="url(#SVGID_2_)" d="M444.489,93.629c-0.528-1.632-1.94-2.823-3.64-3.066l-81.728-11.89L322.564,4.622
			c-0.744-1.544-2.311-2.514-4.032-2.514c-1.72,0-3.287,0.97-4.059,2.514l-36.551,74.074l-81.728,11.868
			c-1.699,0.243-3.11,1.434-3.64,3.066c-0.529,1.632-0.087,3.442,1.148,4.632l59.14,57.646l-13.964,81.423
			c-0.287,1.666,0.397,3.386,1.787,4.398c1.39,1.028,3.242,1.15,4.765,0.333l73.103-38.425l73.106,38.425
			c0.638,0.353,1.365,0.529,2.092,0.529c0.928,0,1.876-0.287,2.648-0.862c1.391-1.013,2.096-2.732,1.809-4.398l-13.964-81.398
			l59.141-57.67C444.6,97.049,445.041,95.261,444.489,93.629L444.489,93.629z M444.489,93.629"/>
	</g>
</g>
<g>
	<g>
		<defs>
			<rect id="SVGID_3_" x="456" y="70.856" width="181.035" height="177.16"/>
		</defs>
		<clipPath id="SVGID_4_">
			<use xlink:href="#SVGID_3_"  overflow="visible"/>
		</clipPath>
		<path clip-path="url(#SVGID_4_)" d="M636.117,137.736c-0.378-1.166-1.386-2.017-2.6-2.19l-58.379-8.493l-26.113-52.896
			c-0.532-1.104-1.65-1.796-2.881-1.796c-1.229,0-2.347,0.692-2.898,1.796l-26.11,52.911l-58.379,8.478
			c-1.213,0.173-2.221,1.024-2.6,2.19c-0.378,1.166-0.063,2.458,0.819,3.309l42.245,41.178l-9.975,58.161
			c-0.205,1.189,0.283,2.417,1.276,3.142c0.992,0.733,2.314,0.822,3.403,0.237l52.218-27.447l52.221,27.447
			c0.455,0.252,0.975,0.378,1.494,0.378c0.663,0,1.341-0.205,1.892-0.615c0.994-0.725,1.497-1.952,1.292-3.142l-9.975-58.145
			l42.246-41.194C636.195,140.18,636.511,138.902,636.117,137.736L636.117,137.736z M636.117,137.736"/>
	</g>
</g>
<g>
	<g>
		<defs>
			<rect id="SVGID_5_" y="70.856" width="181.035" height="177.16"/>
		</defs>
		<clipPath id="SVGID_6_">
			<use xlink:href="#SVGID_5_"  overflow="visible"/>
		</clipPath>
		<path clip-path="url(#SVGID_6_)" d="M180.117,137.736c-0.378-1.166-1.386-2.017-2.6-2.19l-58.379-8.493L93.025,74.158
			c-0.532-1.104-1.65-1.796-2.881-1.796c-1.229,0-2.347,0.692-2.898,1.796l-26.11,52.911l-58.379,8.478
			c-1.213,0.173-2.221,1.024-2.6,2.19c-0.378,1.166-0.063,2.458,0.819,3.309l42.245,41.178l-9.975,58.161
			c-0.205,1.189,0.283,2.417,1.276,3.142c0.992,0.733,2.314,0.822,3.403,0.237l52.218-27.447l52.221,27.447
			c0.455,0.252,0.975,0.378,1.494,0.378c0.663,0,1.341-0.205,1.892-0.615c0.994-0.725,1.497-1.952,1.292-3.142l-9.975-58.145
			l42.246-41.194C180.195,140.18,180.511,138.902,180.117,137.736L180.117,137.736z M180.117,137.736"/>
	</g>
</g>
</svg>
