<svg height="512.00003pt" viewBox="0 0 512.00003 512.00003" width="512.00003pt" xmlns="http://www.w3.org/2000/svg"><path d="m256 0c-107.941406 0-195.765625 87.824219-195.765625 195.765625v180.703125c0 24.914062 20.265625 45.179688 45.175781 45.179688 24.914063 0 45.179688-20.265626 45.179688-45.179688v-150.585938c0-24.910156-20.265625-45.175781-45.179688-45.175781-5.070312 0-9.867187 1.027344-14.425781 2.574219 6.425781-85.511719 77.902344-153.164062 165.015625-153.164062 87.066406 0 158.523438 67.589843 165.007812 153.042968-4.53125-1.550781-9.355468-2.453125-14.417968-2.453125-24.914063 0-45.179688 20.265625-45.179688 45.175781v150.585938c0 24.914062 20.265625 45.179688 45.179688 45.179688 5.304687 0 10.324218-1.085938 15.058594-2.773438v17.832031c0 8.308594-6.765626 15.058594-15.058594 15.058594h-108.1875c-6.238282-17.492187-22.796875-30.117187-42.402344-30.117187-24.910156 0-45.175781 20.265624-45.175781 45.175781 0 24.910156 20.265625 45.175781 45.175781 45.175781 19.605469 0 36.164062-12.628906 42.402344-30.117188h108.1875c24.910156 0 45.175781-20.265624 45.175781-45.175781 0-90.578125 0-150.265625 0-240.941406 0-107.941406-87.824219-195.765625-195.765625-195.765625zm0 0"/><path d="m481.882812 213.597656v175.15625c17.488282-6.234375 30.117188-22.792968 30.117188-42.402344v-90.351562c0-19.605469-12.628906-36.164062-30.117188-42.402344zm0 0"/><path d="m0 256v90.351562c0 19.609376 12.628906 36.167969 30.117188 42.402344v-175.15625c-17.488282 6.238282-30.117188 22.796875-30.117188 42.402344zm0 0"/></svg>