<svg height="512pt" viewBox="0 0 512 512" width="512pt" xmlns="http://www.w3.org/2000/svg"><path d="m467 211h-16v-15c0-108.074219-87.476562-196-195-196s-195 87.925781-195 196v15h-16c-24.8125 0-45 20.1875-45 45v90c0 24.8125 20.1875 45 45 45h18.578125c6.195313 17.460938 22.867187 30 42.421875 30 24.8125 0 45-20.1875 45-45v-150c0-24.8125-20.1875-45-45-45-5.085938 0-9.96875.859375-14.527344 2.421875 6.410156-85.679687 77.753906-153.421875 164.527344-153.421875s158.117188 67.742188 164.527344 153.421875c-4.558594-1.5625-9.441406-2.421875-14.527344-2.421875-24.8125 0-45 20.1875-45 45v150c0 24.8125 20.1875 45 45 45 5.257812 0 10.304688-.914062 15-2.578125v18.578125c0 8.269531-6.730469 15-15 15h-107.578125c-6.195313-17.460938-22.867187-30-42.421875-30-24.8125 0-45 20.1875-45 45s20.1875 45 45 45c19.554688 0 36.226562-12.539062 42.421875-30h107.578125c24.8125 0 45-20.1875 45-45v-46h16c24.8125 0 45-20.1875 45-45v-90c0-24.8125-20.1875-45-45-45zm-437 135v-90c0-8.269531 6.730469-15 15-15h16v120h-16c-8.269531 0-15-6.730469-15-15zm76-135c8.269531 0 15 6.730469 15 15v150c0 8.269531-6.730469 15-15 15s-15-6.730469-15-15v-150c0-8.269531 6.730469-15 15-15zm150 271c-8.269531 0-15-6.730469-15-15s6.730469-15 15-15 15 6.730469 15 15-6.730469 15-15 15zm150-91c-8.269531 0-15-6.730469-15-15v-150c0-8.269531 6.730469-15 15-15s15 6.730469 15 15v150c0 8.269531-6.730469 15-15 15zm76-45c0 8.269531-6.730469 15-15 15h-16v-120h16c8.269531 0 15 6.730469 15 15zm0 0"/></svg>